<svg xmlns="http://www.w3.org/2000/svg" viewBox="0 0 26 28">
  <path fill="#6c757d" d="M25.6 7.47c.4.56.5 1.3.29 2.02l-4.3 14.15A3.41 3.41 0 0 1 18.5 26H4.05c-1.6 0-3.3-1.27-3.87-2.9a2.9 2.9 0 0 1-.03-1.97c.03-.32.09-.63.1-1 .02-.25-.12-.46-.09-.65.06-.37.4-.64.64-1.06.47-.78 1-2.05 1.17-2.86.08-.3-.07-.64 0-.9.08-.3.38-.52.54-.8.42-.72.96-2.1 1.04-2.84.03-.33-.12-.7-.03-.94.11-.36.45-.52.69-.83.37-.52 1-2 1.1-2.83.02-.26-.13-.53-.08-.81.06-.3.43-.6.68-.97.66-.97.78-3.1 2.77-2.55l-.02.05c.27-.06.53-.14.8-.14h11.9c.72 0 1.38.33 1.77.88.4.56.5 1.3.28 2.03l-4.28 14.15C18.41 21.46 18 22 16.02 22H2.44c-.2 0-.45.05-.6.23-.12.2-.14.33-.01.68.31.9 1.39 1.09 2.25 1.09H18.5c.58 0 1.25-.33 1.42-.9l4.7-15.41c.08-.3.08-.61.07-.9.36.15.69.37.92.68zM8.99 7.5c-.09.28.07.5.35.5h9.5c.26 0 .56-.22.65-.5l.33-1c.1-.28-.06-.5-.34-.5h-9.5c-.27 0-.56.22-.66.5zm-1.3 4c-.09.28.07.5.35.5h9.5c.27 0 .56-.22.66-.5l.33-1c.09-.28-.07-.5-.35-.5h-9.5c-.26 0-.56.22-.65.5z"/>
</svg>
