<?xml version="1.0" encoding="UTF-8"?>
<svg width="100px" height="100px" viewBox="0 0 100 100" version="1.1" xmlns="http://www.w3.org/2000/svg" xmlns:xlink="http://www.w3.org/1999/xlink">
    <!-- Generator: Sketch 53 (72520) - https://sketchapp.com -->
    <title>Artboard</title>
    <desc>Created with Sketch.</desc>
    <defs>
        <radialGradient cx="33.9966831%" cy="40.7249699%" fx="33.9966831%" fy="40.7249699%" r="35.4574559%" gradientTransform="translate(0.339967,0.407250),scale(1.000000,0.987952),translate(-0.339967,-0.407250)" id="radialGradient-1">
            <stop stop-color="#B9E0F7" offset="0%"></stop>
            <stop stop-color="#007AC2" offset="100%"></stop>
        </radialGradient>
        <radialGradient cx="71.4669908%" cy="60.4904617%" fx="71.4669908%" fy="60.4904617%" r="97.2002592%" gradientTransform="translate(0.714670,0.604905),scale(1.000000,0.804348),translate(-0.714670,-0.604905)" id="radialGradient-2">
            <stop stop-color="#B2D234" offset="0%"></stop>
            <stop stop-color="#009E46" offset="96.067798%"></stop>
            <stop stop-color="#009E46" offset="100%"></stop>
        </radialGradient>
        <radialGradient cx="95.6682687%" cy="-55.7120357%" fx="95.6682687%" fy="-55.7120357%" r="150.383451%" gradientTransform="translate(0.956683,-0.557120),scale(1.000000,0.909091),translate(-0.956683,0.557120)" id="radialGradient-3">
            <stop stop-color="#B2D234" offset="0%"></stop>
            <stop stop-color="#009E46" offset="96.067798%"></stop>
            <stop stop-color="#009E46" offset="100%"></stop>
        </radialGradient>
        <radialGradient cx="-3.51581595%" cy="2.76117299%" fx="-3.51581595%" fy="2.76117299%" r="143.089934%" gradientTransform="translate(-0.035158,0.027612),scale(1.000000,0.636364),translate(0.035158,-0.027612)" id="radialGradient-4">
            <stop stop-color="#B2D234" offset="0%"></stop>
            <stop stop-color="#009E46" offset="96.067798%"></stop>
            <stop stop-color="#009E46" offset="100%"></stop>
        </radialGradient>
    </defs>
    <g id="Artboard" stroke="none" stroke-width="1" fill="none" fill-rule="evenodd">
        <g id="ESRI_Logo" transform="translate(2.000000, 1.000000)" fill-rule="nonzero">
            <path d="M96,49.0014998 C96,75.5057635 74.511759,97 47.9985002,97 C21.4912407,97 0,75.5057635 0,49.0014998 C0,22.4882449 21.4912407,1 47.9985002,1 C74.511759,1 96,22.4882449 96,49.0014998" id="path252" fill="#FFFFFF"></path>
            <path d="M7,49.4999981 C7,72.4202021 25.3612253,91 47.9985154,91 L47.9985154,91 C70.6417476,91 89,72.4202021 89,49.4999981 L89,49.4999981 C89,26.5828072 70.6417476,8 47.9985154,8 L47.9985154,8 C25.3612253,8 7,26.5828072 7,49.4999981" id="path300" fill="url(#radialGradient-1)"></path>
            <path d="M30.854383,17.8626615 C27.6666083,17.9981284 24.6136533,18.4353159 21.5696907,18.9002096 L21.5696907,18.9002096 C12.9471185,26.4247396 7.37450381,37.5083343 7,49.949667 L7,49.949667 C9.43576961,52.5851007 12.6535072,58.5517684 16.3655849,62 L16.3655849,62 C16.8569353,61.7751224 17.3902268,61.5843623 17.9594761,61.4057958 L17.9594761,61.4057958 C16.1378867,59.2321796 13.5912655,56.350442 13.2077732,55.0234904 L13.2077732,55.0234904 C11.3322334,48.5241954 13.5043547,42.4405342 18.1961589,41.9602432 L18.1961589,41.9602432 C22.4025844,41.526136 26.0127757,35.0945746 28.9788704,30.8766486 L28.9788704,30.8766486 C35.0787855,22.2037374 44.4533589,23.6507627 43.9829597,19.3096868 L43.9829597,19.3096868 C43.4436965,16.7727771 41.9816353,16.0000024 40.1211022,16.0000024 L40.1211022,16.0000024 C37.3227876,15.9976147 33.6317037,17.7518245 30.854383,17.8626615" id="path328" fill="url(#radialGradient-2)"></path>
            <path d="M20.1941374,58.041038 C19.5909024,58.2191522 19.0054105,58.3849809 18.446533,58.5569544 L18.446533,58.5569544 C17.9438353,58.698216 17.5535085,58.9039657 16.8733885,59.1496404 L16.8733885,59.1496404 C15.377133,59.843663 14.2919017,60.9061997 14.0375982,63.175603 L14.0375982,63.175603 C13.5822126,67.2936931 17.3524302,70.5242885 20.5282805,71.4701306 L20.5282805,71.4701306 C24.5587147,72.6677841 24.8958162,71.2674493 27.0100952,74.2339476 L27.0100952,74.2339476 C28.4856531,76.3068144 28.7724842,80.1546628 29.5265269,82.6850908 L29.5265269,82.6850908 C29.949385,84.1007835 30.5200924,85.5072591 31.2031632,86.8860992 L31.2031632,86.8860992 C34.0832881,88.2772209 37.1379265,89.3366852 40.3344782,90 L40.3344782,90 C41.1269616,85.1203228 40.7691624,78.5332204 41.8189077,75.686489 L41.8189077,75.686489 C43.9745857,69.8579013 45.1899233,67.2875484 42.2831381,61.2716373 L42.2831381,61.2716373 C35.8723183,59.3922387 33.9295257,58.7964843 27.47139,57.4207165 L27.47139,57.4207165 C26.1555113,57.1412616 25.3334589,57 24.5942007,57 L24.5942007,57 C23.4468728,57 22.5006194,57.3408706 20.1941374,58.041038" id="path356" fill="url(#radialGradient-3)"></path>
            <path d="M59.4915286,26.3191468 C57.587274,29.0524585 50.9059983,29.8009009 48.7633416,32.8755021 L48.7633416,32.8755021 C47.0945115,35.276502 48.820082,39.994683 47.3656944,42.7160177 L47.3656944,42.7160177 C46.6951832,43.970408 47.0051098,47.6108299 47.8216206,48.799353 L47.8216206,48.799353 C50.393428,52.5595285 54.6697777,50.4698778 57.8852786,51.8230591 L57.8852786,51.8230591 C61.8099842,53.469634 62.2599937,58.0411162 65.5142113,61.3881485 L65.5142113,61.3881485 C68.7743879,64.738176 61.354058,69.8994327 67.4125068,82.078084 L67.4125068,82.078084 C68.0591778,83.3863606 68.8131047,84.344366 69.620725,85 L69.620725,85 C73.7182944,82.4403283 77.3241329,79.1771228 80.2893096,75.3780291 L80.2893096,75.3780291 C81.2071634,69.2258353 79.1390088,67.2589295 81.7256928,61.6276518 L81.7256928,61.6276518 C83.3200208,58.1548794 86.0527044,52.1433939 89,48.0658827 L89,48.0658827 C88.4993286,36.6596237 83.400482,26.4568599 75.5152661,19.2837927 L75.5152661,19.2837927 C74.7762119,19.4902443 73.8345178,19.5262873 72.5501164,19.2933897 L72.5501164,19.2933897 C71.4474961,19.0866981 70.4551362,19 69.5551635,19 L69.5551635,19 C63.4728784,19 61.66098,23.2062427 59.4915286,26.3197621" id="path384" fill="url(#radialGradient-4)"></path>
            <path d="M43.559617,94.0645708 C42.1892779,93.272957 40.4711118,92.0462625 38.8668868,90.9766786 C38.2012055,91.5688775 37.6644419,92.4390466 37.1336976,93.1369948 C38.9718357,93.7714903 41.4486359,93.8258783 43.559617,94.0645708 M36.3241142,89.1124618 C33.3885343,86.9068262 26.1260433,79.9666257 23.1154717,75.7819594 C22.0090299,76.4376071 20.7766279,78.2232686 19.1754028,78.5314517 C18.5457057,78.6494096 17.1303902,78.8245283 16.7105909,78.6494096 C16.2937683,78.4741658 16.8065476,77.5828485 17.2593273,76.9876267 C18.0419496,75.9573242 19.184395,74.6188348 20.8575885,73.3135812 C17.2773194,68.026099 15.5771416,64.1647261 13.1423178,57.7895307 C11.7359945,58.6748062 10.7134901,59.4633972 9.48708412,60.4483802 C9.07328474,60.7746926 7.93683158,60.9831722 7.38509907,60.4846232 C6.38358294,59.5781994 6.3685908,57.985911 7.77491025,56.9767568 C8.35363095,56.5598016 11.2142463,54.5686873 11.8829237,54.0067013 C10.1227773,48.894459 8.65048542,42.1748256 8.26067424,38.6911265 C7.08824072,39.71841 5.43903927,40.8876975 4.97424025,41.2049491 C4.30858607,41.3954204 3.86180243,41.1807741 3.66989294,41.1474211 C3.00121552,48.3776753 3.7718457,56.3391174 5.90681114,63.5270711 C9.57404087,75.8877009 19.8590724,87.6742571 33.7393613,92.0583344 C34.0632078,91.5718847 35.6584367,89.7106908 36.3241142,89.1124501 M7.83188272,34.9353935 C7.65796535,32.2614375 7.44507152,28.5994796 7.44507152,28.5994796 C5.49601173,32.8717658 4.32957429,35.4460144 3.78683784,40.4343781 C5.15117698,37.9991146 7.83188272,34.9353935 7.83188272,34.9353935 M28.659816,4.35258999 C36.7229214,0.989750455 44.5701292,-0.856336954 53.6317275,0.391509702 C54.639263,0.53049477 54.5553024,1.39159918 53.4849185,1.40065994 L52.207509,1.43401292 C44.9090609,1.54882684 34.1742496,3.8843868 28.6209325,7.05385325 C28.5041078,10.7853057 29.2056493,16.716352 29.9492913,21.3904869 C34.9958523,19.2513229 42.7980798,17.0547519 48.7232198,16.3991042 C45.3588445,12.7975722 40.7830553,9.38940931 40.2373189,8.9936063 C39.6885592,8.59779938 39.4157162,7.92402233 39.4157162,7.05385325 C39.4936769,5.42832902 40.8790081,5.22589518 41.6226501,5.41926826 C44.0874582,4.93281857 46.5402741,4.39500373 50.717256,4.51888232 C68.3697235,3.74237887 84.4989305,13.8037035 90.6549565,25.2760348 C106.250396,50.127207 90.6597626,84.41125 70.2408187,93.5419796 C61.5090397,97.4486758 54.0186589,99.131607 40.2133075,97.1918539 C26.3810144,95.2460591 15.0734785,88.4327601 6.29072314,74.1112329 C-4.52804876,56.4631248 1.56200871,35.9023644 3.08227309,31.5908005 C9.59512599,16.1150923 20.2699687,7.91495766 28.6599129,4.35270715 M10.4107326,23.158023 C10.1739668,25.0192169 10.4203449,28.4545699 10.8845044,32.5576581 C14.6386638,29.1736703 21.8921858,24.7593761 27.9552551,22.0642679 C27.2535934,17.4082623 26.5069553,9.98161215 26.584916,8.00560435 C20.9776264,11.1055802 14.8216004,17.3387678 10.3117798,23.7290698 M11.2353353,36.301198 C11.7660757,39.99035 13.5232298,47.9457464 15.1064628,51.982363 C18.8636492,49.1331632 27.3675384,43.845681 32.1801902,41.706517 C30.4980238,35.5277135 29.3645745,31.6270592 28.423027,25.3908527 C21.6193157,28.4394634 14.4257932,33.1770471 11.2353353,36.301198 M16.5727547,55.5506592 C18.8036768,61.9621094 20.9596343,66.8537886 23.7752732,70.8904052 C27.0676839,68.0049468 33.8204188,63.4486486 38.9839247,60.9559782 C37.2837236,57.272868 34.827931,50.3870517 33.1187571,45.2294899 C26.4679711,48.519816 21.5023708,51.7255411 16.5727547,55.5506592 M25.8802582,73.6912588 C29.3795667,78.214325 34.8609153,83.9550211 38.6750742,87.1275104 C42.2853276,84.2027783 46.3753528,81.4714153 49.7787084,79.8066134 C46.8431285,75.2200984 42.5042253,68.5578681 40.6871025,64.4608256 C34.1742496,67.3704513 30.4770356,69.8087376 25.8802582,73.6912588 M40.9209885,89.1246704 C42.3093158,90.5386922 47.8116604,94.2097188 47.8116604,94.2097188 C51.4728902,94.369731 56.0966557,93.9347676 59.3980586,93.3546562 C57.5779398,91.2608116 53.0321349,84.7768479 51.6528036,82.5953834 C48.1325031,84.0819186 43.6766549,86.8193273 40.9209885,89.1246704 M63.2541978,92.4089508 C65.1103009,91.8076911 69.8360154,89.6473749 70.8195394,88.99475 C71.0534253,85.1545255 71.0145651,80.7946154 70.8586399,78.1841121 C65.8900434,78.1841121 58.8914227,79.649499 54.882362,81.3414949 C57.209237,85.1152478 60.417687,89.2727201 63.2543141,92.4089508 M73.4403928,87.5716596 C77.1705911,85.2270389 80.6758956,82.5319307 83.2186683,79.2899508 C81.0297265,78.7370295 76.1390907,78.0662753 73.713263,78.2233897 C73.713263,78.2233897 73.6352984,84.0819186 73.4403928,87.5716596 M84.3911018,77.7852823 C85.0957596,77.0752505 86.1512521,75.570582 86.5620515,74.6943711 C86.9728547,71.1321167 86.9848469,63.8293491 86.8349216,61.6992458 C82.5709829,59.9558887 75.9831655,58.5781216 71.1704904,58.2215923 C72.7357351,64.0076117 73.5183574,72.5189484 73.6352984,75.2926118 C75.9441851,75.5282815 81.7703685,76.7187212 84.3911018,77.7852823 M90.6490767,61.270207 C90.4540509,61.9439801 89.2787414,62.62078 88.730005,62.451582 C88.8108455,63.6480635 88.5349793,69.5942163 88.2232489,71.8874718 C89.0418555,70.192457 90.6070963,65.9836196 91.0778721,64.2040038 L91.7405495,61.5904776 C92.4002309,59.3667126 94.5381963,51.6892864 92.6011093,41.5886802 C90.4541711,30.3671289 86.4241183,26.3607253 85.0147989,24.5780905 C81.4345298,22.6171892 76.0191458,20.8375734 76.0191458,20.8375734 C80.9277737,27.5330395 82.6279554,30.6843767 85.5635353,38.6579024 C87.2667131,39.5492237 90.3552183,41.2744514 90.7390101,41.7488136 C91.0508839,42.1204494 91.05388,42.7912035 90.0853481,42.7760971 C89.2787414,42.7712542 87.7134968,41.9935518 86.5020829,41.6672355 C87.7914574,46.0120391 88.7899503,54.1245498 88.7149896,59.5600818 C88.7149896,59.5600818 90.8439822,60.5994489 90.6490767,61.270207 M82.4360459,20.8375734 C75.6293346,12.4380278 60.2227814,5.29237072 43.0710701,6.36799649 C46.9032172,8.91505105 50.0936752,12.7582985 52.8883258,15.924746 C57.1702566,15.528939 66.1659097,16.2419937 69.5482732,17.1846762 C68.9725525,16.4988156 68.2648948,15.8189967 68.0819813,15.4141251 C67.6022134,14.374758 68.7566587,14.151172 69.6832103,14.7463899 C70.8586399,15.501745 72.2109636,16.4051499 73.2844676,17.5079697 C75.2725077,17.9581607 80.1661435,19.6471337 82.4360459,20.8375734 M86.7959413,58.7110649 C86.5020829,53.2936584 85.6804802,46.0573585 83.686444,41.0206524 C78.4059932,38.8845113 71.1914786,37.5490408 64.855543,37.4886149 C66.8105989,42.0811717 69.0834975,49.758598 70.1929625,54.6986195 C74.7687516,55.2515369 81.9262937,56.5567905 86.7959413,58.7110649 M71.9531127,19.9643815 C67.182418,19.0942124 60.2227814,18.5382721 55.0592755,18.852501 C58.5795761,23.7653284 61.161329,28.0436565 63.5841567,34.1408818 C70.1150018,34.304038 78.99071,36.2679622 82.6309283,37.7091781 C80.4600018,31.8748164 76.333973,24.4662956 71.9531127,19.9643815 M42.0335697,59.5298688 C49.8178089,55.9253139 58.3636784,54.3028125 66.9665203,54.5384822 C64.6186571,46.3413743 63.2723062,42.5374046 61.2752739,37.5490408 C51.7158923,37.9659999 43.559834,40.3408336 36.1294256,43.8879815 C36.1294256,43.8879815 38.8671,52.7558475 42.0335697,59.5298688 M67.8480954,57.9859227 C58.1088042,57.868207 49.6079112,60.2157295 43.79672,63.0951422 C46.258528,68.4400313 51.1281756,75.5161979 52.9482944,78.4318653 C56.114768,77.2444485 59.5181198,76.3531311 62.1568452,75.9361759 C64.7985706,75.5222397 68.3158712,75.1324785 70.7027146,75.1747751 C70.270927,68.953675 69.5482732,64.7569212 67.8480954,57.9859227 M35.0259568,40.5160773 C42.066554,37.5037214 49.6978679,35.092629 59.9858955,34.2224599 C57.3651622,27.8865421 54.4715588,23.411822 51.0682031,19.3117566 C43.4848695,19.9251039 36.5612172,21.9857126 30.5761086,24.4783831 C31.4546837,29.1736703 33.1188773,34.8539365 35.0259568,40.5160773" id="path396" fill="#000000"></path>
        </g>
    </g>
</svg>