<svg xmlns="http://www.w3.org/2000/svg" viewBox="0 0 22 32">
  <path fill="#6c757d" d="M22.16 8.62V0H0v8.62h4.94v14.77H.04V32h22.15V23.4H17.2V8.62zm-4.95 16h3.69v6.13H1.23v-6.13h3.68c.68 0 1.23-.55 1.23-1.23V8.62c0-.68-.55-1.23-1.23-1.23H1.23V1.25h19.7V7.4h-3.69c-.67 0-1.22.55-1.22 1.23v14.77c0 .67.53 1.21 1.2 1.23z"/>
  <path fill="#6c757d" d="M17.21 7.38h3.69V1.25H1.23v6.13h3.68c.68 0 1.23.55 1.23 1.23v14.77c0 .68-.55 1.23-1.23 1.23H1.23v6.13h19.7v-6.13h-3.69c-.67 0-1.22-.55-1.22-1.23V8.62c0-.68.53-1.22 1.2-1.23z"/>
</svg>
