<!-- Generated by IcoMoon.io -->
<svg version="1.1" xmlns="http://www.w3.org/2000/svg" width="34" height="32" viewBox="0 0 34 32">
<path fill="#6c757d" d="M11.429 10.286c0 1.894-1.535 3.429-3.429 3.429s-3.429-1.535-3.429-3.429v0c0-1.894 1.535-3.429 3.429-3.429s3.429 1.535 3.429 3.429v0zM29.714 17.143v8h-25.143v-3.429l5.714-5.714 2.857 2.857 9.143-9.143zM31.429 4.571h-28.571c-0.309 0-0.571 0.263-0.571 0.571v21.714c0 0.309 0.263 0.571 0.571 0.571h28.571c0.309 0 0.571-0.263 0.571-0.571v-21.714c0-0.309-0.263-0.571-0.571-0.571zM34.286 5.143v21.714c0 1.578-1.279 2.857-2.857 2.857v0h-28.571c-1.578 0-2.857-1.279-2.857-2.857v0-21.714c0-1.578 1.279-2.857 2.857-2.857v0h28.571c1.578 0 2.857 1.279 2.857 2.857v0z"></path>
</svg>
