<svg xmlns="http://www.w3.org/2000/svg" viewBox="0 0 32 32">
  <path fill="#6c757d" d="M16.43 4.4c0 .43-.04 1.15.18 1.3.6.4 1.62.68 1.95 1.07.08.1-.02.8-.26.74-1.63-.36-1.7-.34-2.9-.32-.1 0-.35-.5-.37-.84 0-.21.3-.43.4-.77.2-.57.05-3.2.1-4.97.02-.4.06-.56.45-.56.36 0 .4.25.4.55-.02 1.26.05 2.56.05 3.8zM15.48.45c0-.38.5-.62.68-.38zm2.92 6.27c.24.25 0 .87-.5.68-.87-.31-1.68-.19-2.54-.31-.25-.06-.32-.5-.32-.74zm-2.05-4.9c0 1.17-.06 2.29.06 3.47 0 .12.12.31.19.37zm6.63 16.13a5.8 5.8 0 0 1 1.36 0c.11.02.19.1.22.14.12.16.1.78.1.97-.03.4-.24.64-.24 1 .03 2.83.1 6.2-.06 6.79-.26 1-.22 1.18-.62 1.21-.11.01-.24-.02-.3-.36a6.96 6.96 0 0 1-.1-1.16c0-1.17.02-4.2-.04-5.38-.04-1.07-.32-1.14-.4-1.2-.1-.07-.24-.1-.27-.28-.06-.37.06-1.22.17-1.52.03-.06.08-.18.18-.2zm2.15 12.65c.15 0 .36 0 .4.21.04.23-.03.63-.1.9-.06.23-.14.27-.3.27H6.66c-.14 0-.18-.07-.2-.17-.07-.28.02-.83.11-1.05.03-.1.11-.12.13-.13.2-.1.41.02.63-.8.3-1.13.18-11.9.18-11.9-.01-.64-.2-1.27-.72-1.39a.7.7 0 0 1-.18-.07c-.24-.15-.09-1.43.27-1.46.58-.07.79-.16.93-.52.58-1.44.87-2.92 1.68-4.28a9.53 9.53 0 0 1 3.23-3.1c.43-.13.9.45.68.84-.36.63-.76.9-1.28 1.76-.4.64-.12 1.29-.3 2.09-.28 1.33-.7 1.12-1.15 2.03-.11.22-.13.68-.06.9.06.23.5.2.74.2 4.66.06 13.75.04 14 .07.14.04.19.08.22.19a3 3 0 0 1-.13 1.1c-.07.21-.31.24-.43.25-2.25.06-8.2.03-12.36.03-.08 0-.28.01-.35.15-.13.27-.16.64-.13.99.01.12.12.14.18.17.26.1 1.68 0 1.98.08.18.06.26.1.35.28.21.49-.1 9.97.11 11.9.02.18.13.33.32.4.26.08 1.39.13 1.69-.14.74-.68.5-7.02.45-8.72-.02-1.1-.52-1.6-1.59-1.7-.2-.03-.24-.12-.27-.17-.1-.16 0-1.23.19-1.68.06-.16.2-.2.26-.2h2.35c.64 0 .82.24.82.82 0 3.29-.02 11.27.14 11.62.22.47 1.04.17 1.22-.27.35-.88.32-6.2.27-8.92-.01-.79-.28-1.08-.8-1.2a.33.33 0 0 1-.28-.3c-.04-.37.06-1.2.21-1.52.05-.1.1-.15.19-.2.1-.07 1.16-.03 1.72-.03.43 0 .54.5.54.81.06 3.6-.07 7.2.02 10.8.02.53 0 .81.19.93.28.18 1.75.13 2.71.13zm-15.8-.35c.54-.6.43-8.65.15-9.31-.23-.54-.7-.37-.78-.03-.04.18-.08 6.42-.03 9.4.01.45.33.31.66-.06zm3.26-.02c.51-.59.48-6.08.32-8.56-.05-.87-.14-1.18-.68-1.57-.24-.17-.88-.2-.95.15-.04.19-.17 9.4.08 10.08.16.43.9.3 1.23-.1z"/>
</svg>
