<?xml version="1.0" encoding="UTF-8" standalone="no"?><!DOCTYPE svg PUBLIC "-//W3C//DTD SVG 1.1//EN" "http://www.w3.org/Graphics/SVG/1.1/DTD/svg11.dtd"><svg width="100%" height="100%" viewBox="0 0 1500 600" version="1.1" xmlns="http://www.w3.org/2000/svg" xmlns:xlink="http://www.w3.org/1999/xlink" xml:space="preserve" xmlns:serif="http://www.serif.com/" style="fill-rule:evenodd;clip-rule:evenodd;stroke-linejoin:round;stroke-miterlimit:1.41421;"><g id="Layer-11" serif:id="Layer 11"><path d="M14.055,176.77l229.956,-132.77l229.974,132.77l0,265.544l-229.974,132.767l-229.956,-132.767l0,-265.544Z" style="fill:#00594f;fill-rule:nonzero;"/><path d="M60.968,392.079c7.567,-0.26 15.168,0.78 22.686,-0.758c9.04,-1.864 15.811,-7.043 21.147,-14.377c3.387,-4.651 7.008,-9.172 10.34,-13.869c5.723,-8.054 13.874,-10.634 23.232,-10.69c8.376,-0.065 16.377,-1.386 23.358,-6.582c2.545,-1.886 4.316,-4.463 6.644,-7.275c4.247,9.876 9.15,18.738 16.146,26.274c21.456,23.14 47.932,29.251 77.997,22.908c7.134,-1.496 13.945,-4.074 20.292,-7.643c2.636,-1.467 4.803,-1.258 7.378,-0.182c14.033,5.821 22.521,24.858 19.028,38.121c-3.673,13.941 -8.772,27.45 -15.04,40.171c-7.614,15.479 -5.848,30.131 -1.668,45.463c1.729,6.338 4.081,12.437 7.09,18.15c-0.827,1.019 -1.452,0.348 -1.856,0.045c-11.498,-8.395 -22.229,-17.504 -31.135,-28.767c-10.912,-13.804 -10.937,-27.983 -2.536,-42.762c3.775,-6.633 6.689,-13.578 7.979,-21.147c2.156,-12.685 -2.088,-23.685 -12.602,-32.255c-0.987,1.692 -0.373,3.503 -0.513,5.217c-0.647,8.524 -3.28,15.755 -10.482,21.39c-12.078,9.433 -16.886,21.945 -13.1,37.421c-2.329,-0.738 -2.962,-2.625 -3.666,-4.111c-8.116,-17.295 -14.009,-35.174 -14.186,-54.526c-0.025,-2.616 0.552,-5.237 0.774,-7.86c0.096,-1.149 0.114,-2.442 -1.116,-3.026c-1.098,-0.542 -1.799,0.425 -2.517,1.082c-8.143,7.491 -15.84,15.451 -22.766,24.042c-10.595,13.204 -23.104,21.258 -40.929,18.427c-4.946,-0.81 -10.112,-0.129 -15.108,-0.129c-0.578,-2.644 1.253,-2.991 2.346,-3.728c8.083,-5.216 14.966,-11.862 22.194,-18.119c12.414,-10.713 18.349,-25.064 23.596,-39.933c0.497,-1.407 1.161,-2.859 -0.1,-4.154c-0.781,-0.801 -1.851,-0.692 -2.771,-0.245c-9.068,4.681 -19.204,5.658 -28.842,8.358c-17.902,5.02 -33.559,14.356 -48.322,25.305c-3.984,2.95 -8.195,4.631 -12.903,3.547c-10.581,-2.44 -21.197,-4.957 -30.069,-11.795l0,-1.988Z" style="fill:#4dba6d;"/><path d="M165.997,93.296c13.689,9.307 23.087,20.778 32.049,32.6c4.384,5.765 8.282,11.905 12.348,17.908c8.436,12.462 9.603,25.956 5.72,40.186c-2.699,9.868 -5.212,19.772 -2.773,30.128c1.038,4.417 3.134,8.303 5.731,11.947c1.205,1.669 2.005,2.782 -0.893,3.854c-11.188,4.175 -21.716,9.608 -30.295,18.158c-2.327,2.318 -3.236,-0.043 -4.189,-1.178c-7.507,-8.841 -9.458,-19.255 -8.434,-30.521c1.395,-15.463 4.799,-30.488 8.895,-45.452c3.88,-14.175 1.427,-28.083 -3.986,-41.555c-4.644,-11.572 -9.129,-23.203 -14.173,-36.075" style="fill:#4dba6d;"/><path d="M438.379,244.959c-5.792,3.003 -11.548,2.558 -17.027,3.301c-17.107,2.319 -31.316,9.678 -41.989,23.345c-7.642,9.784 -16.374,18.517 -25.312,27.034c-6.166,5.88 -13.595,9.73 -21.924,11.79c-3.237,0.809 -4.852,0.542 -4.812,-3.468c0.113,-9.467 -1.986,-18.591 -5.128,-27.486c-0.701,-1.97 -1.467,-3.637 1.007,-5.014c22.308,-12.335 44.102,-25.702 68.496,-33.792c11.147,-3.713 22.536,-4.602 34.025,-2.005c4.457,1.008 8.657,2.878 12.664,6.295" style="fill:#4dba6d;"/><path d="M72.058,225.788c0.595,-1.518 0.827,-2.438 1.292,-3.236c9.538,-16.55 36.928,-18.833 48.267,-3.561c9.553,12.877 21.096,22.443 36.58,27.15c5.528,1.669 10.557,4.576 15.204,8.094c3.152,2.359 3.93,4.385 1.301,8.033c-6.121,8.483 -10.282,17.966 -12.268,29.221c-11.455,-8.074 -23.553,-14.685 -31.18,-26.504c-5.529,-8.583 -10.499,-17.476 -14.988,-26.7c-4.353,-8.928 -12.354,-13.538 -22.175,-14.533c-7.208,-0.731 -14.437,-0.326 -22.033,2.036" style="fill:#4dba6d;"/><path d="M318.489,347.509c-1.017,-1.734 0.115,-3.092 0.747,-4.563c3.312,-7.725 6.762,-15.411 7.347,-23.966c0.15,-2.36 1.419,-3.069 3.549,-3.069c5.758,-0.042 10.888,-2.212 15.998,-4.572c10.302,-4.753 20.385,-10.179 32.334,-9.528c3.875,0.216 7.575,0.889 10.933,2.687c9.738,5.221 19.881,9.551 29.954,14.072c6.563,2.947 11.189,7.085 13.526,12.173c-6.443,0.059 -11.948,-2.775 -17.701,-4.355c-8.106,-2.255 -16.301,-3.722 -24.656,-4.791c-11.489,-1.466 -20.476,3.273 -27.663,11.304c-9.359,10.475 -21.625,13.156 -34.555,14.544c-3.259,0.368 -6.588,0.05 -9.875,0.022l0.062,0.042Z" style="fill:#4dba6d;"/><path d="M268.734,228.619c-13.455,-2.766 -26.434,-4.328 -40.078,-1.675c11.688,-32.168 8.106,-63.129 -3.386,-94.156c13.996,9.361 36.418,58.961 43.464,95.831" style="fill:#4dba6d;"/><path d="M159.927,301.152c0.087,9.341 -0.811,17.987 2.494,26.166c0.815,2.05 -0.591,2.146 -1.955,2.382c-18.264,3.094 -34.311,-2.209 -46.954,-15.044c-8.634,-8.772 -17.776,-9.089 -27.029,-3.939c-1.703,0.947 -3.381,1.965 -6.355,3.7c4.949,-10.482 11.033,-17.938 20.572,-22.28c9.643,-4.399 18.693,-4.525 26.84,3.417c9.277,9.053 20.19,10.078 32.387,5.598" style="fill:#4dba6d;"/><path d="M318.427,347.467c3.72,4.117 8.708,6.827 12.244,11.231c18.424,23.016 19.465,51.449 -3.938,75.137c-0.8,0.821 -1.556,2.159 -2.788,1.597c-1.614,-0.738 -1.329,-2.471 -1.173,-3.939c0.878,-9.672 1.704,-19.329 1.722,-29.039c0.051,-15.806 -8.029,-25.986 -23.527,-29.532c-1.123,-0.261 -2.244,-0.519 -3.995,-0.932c6.13,-5.338 11.655,-10.736 16.084,-17.177c1.697,-2.492 2.077,-6.049 5.433,-7.304l-0.062,-0.042Z" style="fill:#4dba6d;"/><path d="M299.793,246.079c7.263,-2.612 13.37,-6.202 18.488,-11.54c3.888,-4.035 5.488,-9.314 8.193,-13.989c1.841,-3.15 3.698,-6.26 6.757,-8.387c4.281,-3.001 8.742,-4.536 14.314,-3.597c10.052,1.69 20.112,3.15 29.6,7.152c2.575,1.076 5.003,2.382 8.499,5.111c-6.667,0 -11.98,0.422 -17.214,-0.088c-11.219,-1.072 -18.381,3.942 -23.268,13.693c-2.857,5.715 -5.956,11.32 -9.64,16.629c-4.49,6.452 -10.839,9.854 -17.832,12.578c-1.261,0.498 -2.551,1.177 -3.446,-0.413c-3.692,-6.479 -9.146,-11.536 -14.451,-17.149" style="fill:#4dba6d;"/><path d="M292.815,164.227c6.62,7.404 11.384,15.436 14.874,24.148c2.864,7.192 2.001,14.564 -0.459,21.715c-3.117,9.038 -7.965,17.298 -11.894,25.977c-1.307,2.9 -2.919,4.155 -6.378,1.828c-4.747,-3.193 -10.085,-5.519 -15.597,-7.303c-1.932,-0.629 -3.741,-1.43 -3.283,-4.067c0.906,-5.176 1.012,-10.46 2.644,-15.513c1.04,-3.212 2.507,-6.328 5.187,-8.258c11.504,-8.237 16.228,-19.359 14.927,-33.286c-0.169,-1.735 -0.021,-3.486 -0.021,-5.241" style="fill:#4dba6d;"/><g><path d="M44.308,305.678c0,32.362 19.186,59.638 52.935,59.638c15.718,0 25.889,-5.316 32.824,-15.256l0.462,0c0,0 -0.231,3.467 -0.231,6.241l0,5.548c0,21.266 -15.487,28.894 -33.286,28.894c-18.031,0 -32.593,-7.859 -32.593,-7.859l-9.015,23.116c11.326,6.01 27.045,10.171 41.839,10.171c30.743,0 62.181,-15.257 62.181,-55.709l0,-81.136c0,-3.005 2.08,-4.623 5.085,-4.623l9.015,0l0,-24.964l-27.276,0c-9.247,0 -12.945,5.547 -12.945,10.864c0,1.618 0,3.005 0,3.005l-0.462,0c0,0 -9.015,-16.643 -36.292,-16.643c-33.98,0 -52.241,26.351 -52.241,58.713Zm59.176,34.905c-18.955,0 -29.357,-15.257 -29.357,-35.829c0,-19.88 9.709,-32.825 27.508,-32.825c15.949,0 29.356,7.166 29.356,33.98c0,26.583 -13.407,34.674 -27.507,34.674Z" style="fill:#fff;fill-rule:nonzero;"/><path d="M185.775,308.683c0,33.518 24.272,61.719 63.337,61.719c29.357,0 47.387,-17.799 47.387,-17.799l-12.251,-20.342c0,0 -14.101,13.176 -33.056,13.176c-17.799,0 -33.055,-10.864 -35.366,-31.668l81.366,0c0,0 0.694,-7.397 0.694,-10.865c0,-31.206 -18.493,-55.939 -52.241,-55.939c-35.367,0 -59.87,25.427 -59.87,61.718Zm30.975,-15.256c3.236,-14.794 13.869,-23.809 28.895,-23.809c12.02,0 21.728,9.708 22.191,23.809l-51.086,0Z" style="fill:#fff;fill-rule:nonzero;"/><path d="M314.529,308.683c0,36.292 28.663,61.719 64.492,61.719c36.061,0 64.724,-25.427 64.724,-61.719c0,-36.06 -28.663,-61.718 -64.724,-61.718c-35.829,0 -64.492,25.658 -64.492,61.718Zm29.588,0c0,-21.728 15.95,-36.754 34.904,-36.754c19.186,0 35.136,15.026 35.136,36.754c0,21.96 -15.95,36.754 -35.136,36.754c-18.954,0 -34.904,-14.794 -34.904,-36.754Z" style="fill:#fff;fill-rule:nonzero;"/></g></g><g id="for-dark-backgrounds" serif:id="for dark backgrounds"><path d="M550.992,353.09c16.8,0 30.661,-13.86 30.661,-38.012c0,-23.1 -12.39,-38.011 -30.241,-38.011c-15.751,0 -30.451,11.13 -30.451,38.221c0,18.901 9.87,37.802 30.031,37.802m-49.981,-111.304c0,-3.15 -1.681,-4.62 -4.621,-4.62l-8.61,0l0,-17.43l20.161,0c9.45,0 13.44,3.99 13.44,13.44l0,34.651c0,5.04 -0.42,8.82 -0.42,8.82l0.42,0c0,0 9.24,-17.431 34.231,-17.431c28.561,0 46.622,22.682 46.622,55.652c0,33.812 -20.371,55.653 -48.302,55.653c-23.731,0 -33.391,-17.851 -33.391,-17.851l-0.42,0c0,0 0.42,3.359 0.42,7.98l0,7.35l-19.53,0l0,-126.214Z" style="fill:#cdcdcd;fill-rule:nonzero;"/><path d="M627.431,241.786c0,-3.15 -1.68,-4.62 -4.62,-4.62l-8.61,0l0,-17.431l20.16,0c9.45,0 13.441,3.99 13.441,13.441l0,112.773c0,3.15 1.68,4.62 4.62,4.62l8.61,0l0,17.431l-20.161,0c-9.45,0 -13.44,-3.99 -13.44,-13.441l0,-112.773Z" style="fill:#cdcdcd;fill-rule:nonzero;"/><path d="M714.302,354.14c17.22,0 28.351,-18.061 28.351,-33.812l0,-3.569l-5.25,0c-15.331,0 -43.052,0.84 -43.052,20.37c0,8.611 6.511,17.011 19.951,17.011m23.521,-52.292l4.62,0l0,-1.05c0,-18.69 -6.931,-25.41 -23.521,-25.41c-5.04,0 -17.431,1.259 -17.431,8.189l0,6.091l-19.11,0l0,-10.501c0,-17.43 26.461,-19.95 36.751,-19.95c34.441,0 43.682,18.061 43.682,41.581l0,45.152c0,3.15 1.679,4.62 4.62,4.62l8.61,0l0,17.43l-19.111,0c-9.45,0 -13.23,-4.62 -13.23,-12.18c0,-3.571 0.42,-6.3 0.42,-6.3l-0.42,0c0,0 -8.401,21.001 -33.811,21.001c-18.271,0 -36.122,-11.131 -36.122,-32.342c0,-34.23 46.202,-36.331 64.053,-36.331" style="fill:#cdcdcd;fill-rule:nonzero;"/><path d="M844.682,259.216c12.811,0 38.222,5.25 38.222,23.311l0,10.92l-18.481,0l0,-5.88c0,-7.56 -11.97,-10.92 -19.741,-10.92c-20.79,0 -36.331,15.54 -36.331,38.011c0,24.15 17.641,37.802 37.382,37.802c19.95,0 32.97,-14.702 32.97,-14.702l8.821,14.491c0,0 -15.12,18.271 -43.262,18.271c-33.391,0 -56.701,-23.731 -56.701,-55.652c0,-31.291 22.891,-55.652 57.121,-55.652" style="fill:#cdcdcd;fill-rule:nonzero;"/><path d="M909.011,241.786c0,-3.15 -1.681,-4.62 -4.62,-4.62l-8.61,0l0,-17.431l20.16,0c9.45,0 13.44,2.73 13.44,12.18l0,68.883l9.45,0c3.781,0 8.401,-1.05 11.131,-4.62l24.57,-34.441l23.312,0l-28.771,39.481c-4.831,6.51 -7.981,7.98 -7.981,7.98l0,0.42c0,0 3.57,1.26 7.141,7.981l15.751,28.77c1.679,3.36 3.779,4.2 9.03,4.2l6.51,0l0,17.431l-14.7,0c-9.871,0 -13.021,-1.68 -17.641,-9.87l-19.321,-35.701c-2.31,-3.991 -7.14,-4.411 -10.5,-4.411l-7.981,0l0,49.982l-20.37,0l0,-126.214Z" style="fill:#cdcdcd;fill-rule:nonzero;"/><path d="M1019.43,241.786c0,-3.15 -1.681,-4.62 -4.62,-4.62l-8.61,0l0,-17.431l20.16,0c9.451,0 13.44,3.99 13.44,13.441l0,112.773c0,3.15 1.681,4.62 4.621,4.62l8.61,0l0,17.431l-20.161,0c-9.45,0 -13.44,-3.99 -13.44,-13.441l0,-112.773Z" style="fill:#cdcdcd;fill-rule:nonzero;"/><path d="M1077.32,219.735l18.271,0l0,21.21l-18.271,0l0,-21.21Zm-0.42,64.052c0,-3.15 -1.679,-4.62 -4.62,-4.62l-8.61,0l0,-17.43l19.951,0c9.45,0 13.441,3.99 13.441,13.44l0,70.772c0,3.151 1.679,4.62 4.62,4.62l8.61,0l0,17.431l-19.951,0c-9.45,0 -13.441,-3.99 -13.441,-13.44l0,-70.773Z" style="fill:#cdcdcd;fill-rule:nonzero;"/><path d="M1203.57,312.559c0,-27.722 -13.651,-35.702 -30.031,-35.702c-18.481,0 -28.982,13.441 -28.982,35.071c0,22.051 11.551,37.172 30.661,37.172c14.701,0 28.352,-8.82 28.352,-36.541m-33.182,-53.342c26.461,0 34.022,16.591 34.022,16.591l0.42,0l0,-3.361c0,-6.3 3.36,-10.71 11.76,-10.71l19.741,0l0,17.43l-8.401,0c-2.73,0 -4.62,1.471 -4.62,4.201l0,80.222c0,35.072 -26.671,48.512 -53.552,48.512c-12.81,0 -25.831,-3.57 -36.331,-8.82l6.93,-16.381c0,0 13.021,7.14 28.982,7.14c18.48,0 33.6,-8.19 33.6,-29.611l0,-7.14c0,-3.36 0.421,-6.72 0.421,-6.72l-0.421,0c-6.3,10.29 -16.17,16.171 -31.711,16.171c-29.4,0 -47.461,-23.732 -47.461,-54.392c0,-30.451 17.011,-53.132 46.621,-53.132" style="fill:#cdcdcd;fill-rule:nonzero;"/><path d="M1258.01,241.786c0,-3.15 -1.681,-4.62 -4.62,-4.62l-8.61,0l0,-17.431l20.16,0c9.45,0 13.44,3.99 13.44,13.021l0,41.371c0,5.04 -0.42,8.82 -0.42,8.82l0.42,0c4.62,-10.29 18.271,-23.731 39.482,-23.731c24.991,0 36.331,13.651 36.331,40.742l0,45.991c0,3.15 1.68,4.62 4.62,4.62l8.61,0l0,17.431l-19.95,0c-9.45,0 -13.441,-3.99 -13.441,-13.441l0,-49.981c0,-14.91 -3.15,-26.671 -20.161,-26.671c-16.17,0 -29.19,10.92 -33.6,26.251c-1.471,4.2 -1.891,9.03 -1.891,14.07l0,49.772l-20.37,0l0,-126.214Z" style="fill:#cdcdcd;fill-rule:nonzero;"/><path d="M1390.69,278.117l-13.86,0l0,-16.38l14.28,0l0,-29.191l19.951,0l0,29.191l25.41,0l0,16.38l-25.41,0l0,48.722c0,21.211 14.7,23.94 22.471,23.94c2.939,0 4.83,-0.42 4.83,-0.42l0,18.061c0,0 -2.731,0.42 -7.141,0.42c-13.44,0 -40.531,-4.201 -40.531,-39.692l0,-51.031Z" style="fill:#cdcdcd;fill-rule:nonzero;"/></g></svg>