<!-- Generated by IcoMoon.io -->
<svg version="1.1" xmlns="http://www.w3.org/2000/svg" width="32" height="32" viewBox="0 0 32 32">
<path fill="#6c757d" d="M9.143 0c0.309 0 0.571 0.263 0.571 0.571v26.286c-0.002 0.218-0.125 0.406-0.305 0.501l-0.003 0.002-8.571 4.571c-0.073 0.043-0.16 0.069-0.254 0.069-0.003 0-0.006-0-0.010-0h0c-0.313-0.006-0.565-0.258-0.571-0.571v-26.286c0-0.217 0.114-0.411 0.309-0.503l8.571-4.571c0.073-0.043 0.16-0.069 0.254-0.069 0.003 0 0.006 0 0.010 0h-0zM31.429 0c0.309 0 0.571 0.263 0.571 0.571v26.286c-0.002 0.218-0.125 0.406-0.305 0.501l-0.003 0.002-8.571 4.571c-0.073 0.043-0.16 0.069-0.254 0.069-0.003 0-0.006-0-0.010-0h0c-0.313-0.006-0.565-0.258-0.571-0.571v-26.286c0-0.217 0.114-0.411 0.309-0.503l8.571-4.571c0.073-0.043 0.16-0.069 0.254-0.069 0.003 0 0.006 0 0.010 0h-0zM11.429 0c0.001 0 0.002 0 0.002 0 0.091 0 0.176 0.021 0.252 0.059l-0.003-0.002 9.143 4.571c0.194 0.114 0.32 0.297 0.32 0.514v26.286c0 0 0 0.001 0 0.001 0 0.316-0.256 0.571-0.571 0.571-0.092 0-0.178-0.022-0.255-0.060l0.003 0.002-9.143-4.571c-0.188-0.099-0.315-0.291-0.32-0.514v-26.286c0-0.309 0.263-0.571 0.571-0.571z"></path>
</svg>
