<svg xmlns="http://www.w3.org/2000/svg" viewBox="0 0 26 32">
  <path fill="#6c757d" d="M12.28 31.99c-.26-.01-.32-.02-.23-.04l.13-.01h-.16a11.32 11.32 0 0 1-3.73-.98c-.25-.12-.3-.15-.31-.23l-.12-.46c-.07-.27-.11-.37-.15-.38-.03-.01-.27.02-.53.07l-.49.09-.25-.18a14.68 14.68 0 0 1-4.37-5.19l-.12-.24.16-.4c.1-.22.16-.43.15-.45 0-.03-.18-.1-.42-.17l-.41-.13-.09-.21a19.5 19.5 0 0 1-1.28-6l-.01-.38.3-.32.3-.35c0-.01-.12-.18-.3-.36l-.3-.33.02-.4c.1-2.07.53-4.03 1.3-6.06l.06-.13.4-.13c.25-.08.42-.15.43-.18.01-.02-.06-.22-.15-.45l-.16-.4.14-.28a14.68 14.68 0 0 1 4.3-5.1l.3-.23.5.1.53.07c.02 0 .09-.18.14-.39l.12-.46c.02-.08.06-.1.33-.23a10.6 10.6 0 0 1 3.78-1l.62-.01c.42 0 .7 0 .63.02l-.15.02h.18a10.92 10.92 0 0 1 3.68.94l.37.17.12.46c.07.27.14.47.17.48s.25-.02.52-.07l.48-.09.16.1a13.97 13.97 0 0 1 3.98 4.36c.21.35.62 1.1.62 1.14L23.3 8c-.1.22-.16.42-.15.44 0 .02.2.1.42.16l.4.13.06.13a19.52 19.52 0 0 1 1.33 6.12l.01.35-.3.32c-.17.18-.31.34-.31.36s.14.18.3.36l.31.32-.02.35a19.4 19.4 0 0 1-1.38 6.23c-.02.02-.2.08-.42.15-.21.07-.39.14-.4.16s.06.22.15.45l.17.41-.16.3a16.2 16.2 0 0 1-1.87 2.82c-.35.42-1.14 1.22-1.55 1.58-.31.27-1.01.8-1.13.87-.04.02-.18 0-.54-.06-.27-.05-.5-.08-.53-.07-.03.01-.05.1-.22.7l-.06.24-.3.14a10.73 10.73 0 0 1-3.74 1 9.86 9.86 0 0 0-.61.04c-.07 0-.29 0-.49-.02zM14 30.66a9.47 9.47 0 0 0 2.93-.94c.03-.03.09-.2.13-.37l.1-.35s.2.01.4.05c.47.08.4.1.89-.26a13.47 13.47 0 0 0 3.86-4.67l.15-.3-.14-.36c-.08-.19-.13-.35-.13-.36l.34-.12c.23-.07.34-.13.37-.17A18.28 18.28 0 0 0 24.18 17l.02-.47-.48-.5.07-.07c.03-.05.14-.16.24-.26l.17-.18-.02-.47a18.15 18.15 0 0 0-1.28-5.82c-.03-.05-.13-.1-.37-.17-.19-.06-.34-.12-.34-.13l.14-.37.13-.33-.15-.31a14 14 0 0 0-2.89-3.86A9.58 9.58 0 0 0 18 2.94c-.03-.02-.21 0-.43.04-.2.04-.39.06-.4.05l-.1-.35-.12-.37a9.5 9.5 0 0 0-3.03-.96c-.5-.07-1.9-.07-2.4 0a8.45 8.45 0 0 0-3.04.98l-.11.37-.1.34-.4-.06c-.24-.04-.4-.06-.43-.04-.1.03-.63.42-.96.7a13.55 13.55 0 0 0-3.5 4.56c0 .03.07.2.14.39.07.18.13.33.12.34l-.33.11c-.18.06-.34.13-.37.16-.12.14-.6 1.6-.81 2.5-.27 1.1-.46 2.51-.48 3.52l-.01.28.47.52-.47.5v.29a18.27 18.27 0 0 0 1.32 6.05l.35.12c.17.05.33.11.33.12l-.12.34a3.4 3.4 0 0 0-.13.39 12.95 12.95 0 0 0 4 4.95c.49.37.42.35.88.27l.4-.06.1.34c.05.18.1.35.13.38a10.1 10.1 0 0 0 3.33 1c.43.05 1.75.02 2.18-.05zM11.73 30a8.86 8.86 0 0 1-2.42-.65c-.26-.11-.27-.12-.3-.24l-.08-.28-.04-.17.16-.24.6-.86c.4-.54.46-.63.6-.7l.13-.08h4.66l.14.08c.13.07.2.16.65.79l.6.86.1.15-.07.28-.09.3a8.97 8.97 0 0 1-2.49.75c-.41.05-1.72.07-2.15.01zm-4.3-1.72a12.1 12.1 0 0 1-3.68-4.42l.1-.31.1-.26H7l.35.18 1.9 2.7.02.52-.53.76c-.3.42-.56.79-.59.81a.84.84 0 0 1-.3.1l-.26.03-.16-.1zm10.12.07l-.28-.07-.57-.8-.56-.8-.02-.43.17-.25.97-1.4c.8-1.13.82-1.14.98-1.23l.17-.09h3.05l.1.27c.07.15.11.29.11.3a12.6 12.6 0 0 1-3.48 4.27c-.38.3-.34.28-.64.22zm-7.29-2.31c-.15-.08-.18-.12-1.1-1.43-.53-.74-.97-1.38-.99-1.43a.9.9 0 0 1 0-.45l.99-1.41c.94-1.33.95-1.34 1.1-1.42l.17-.08h4.58l.15.08c.15.08.2.13 1.12 1.45l.97 1.37v.5l-.97 1.37c-.93 1.31-.97 1.37-1.12 1.45l-.15.08h-4.6l-.15-.08zm-6.8-3.52l-.4-.13-.13-.37a17.39 17.39 0 0 1-.99-4.82l-.01-.37.46-.48h4.63l.16.08c.16.08.17.09 1.13 1.45l.97 1.37-.02.51-1.91 2.7-.35.19H3.85l-.4-.13zm14.79.04c-.17-.09-.18-.1-1.01-1.27-1.24-1.76-1.12-1.56-1.12-1.8v-.21l.97-1.37c.89-1.26.98-1.38 1.12-1.47l.15-.1h4.66l.24.25c.28.28.26.2.2 1.03a17.92 17.92 0 0 1-1.08 4.68c-.04.07-.09.1-.44.22l-.4.13h-3.12l-.17-.09zm-8-3.49c-.14-.07-.22-.18-1.12-1.45l-.97-1.37v-.47l.97-1.37c.9-1.27.98-1.38 1.11-1.45l.14-.08h4.66l.14.08c.13.07.22.19 1.1 1.44l.97 1.36v.52l-.96 1.35c-.89 1.25-.98 1.37-1.1 1.44l-.15.08h-4.65l-.15-.08zm-8.1-3.63l-.23-.25.02-.37c.08-1.54.44-3.28.97-4.76l.15-.4.82-.28H7l.17.09c.1.04.2.13.24.18L8.38 11l.9 1.28v.5l-.96 1.37c-.9 1.27-.98 1.37-1.12 1.44l-.14.08H2.38l-.23-.25zm16.07.16c-.14-.08-.23-.2-1.12-1.46l-.98-1.38v-.21c0-.25-.12-.05 1.12-1.8l.83-1.19.36-.18h3.11l.4.13c.35.12.4.15.44.22a17.7 17.7 0 0 1 1.07 4.68c.07.83.09.76-.2 1.04l-.23.23h-4.66l-.14-.08zm-7.97-3.48c-.17-.1-.2-.13-1.13-1.45L8.16 9.3v-.18c-.02-.1 0-.22 0-.27s.47-.69 1-1.44c.94-1.33.95-1.35 1.1-1.43l.17-.08H15l.16.1c.16.08.2.12 1.13 1.44l.96 1.37v.5l-.97 1.36c-.93 1.32-.97 1.38-1.12 1.45l-.15.08h-4.6l-.17-.09zm-6.4-3.63a1.9 1.9 0 0 1-.1-.31A12.06 12.06 0 0 1 7.23 3.9c.23-.18.35-.25.4-.25.17 0 .47.07.52.11l.59.81.53.77-.01.51-1.91 2.7-.35.19H3.96l-.1-.26zm14.38.17c-.15-.09-.2-.14-.96-1.24l-.98-1.39-.17-.25.02-.43.56-.8.57-.8c.01-.02.43-.1.51-.1.17 0 .96.66 1.65 1.37a12.44 12.44 0 0 1 2.24 3.15c0 .02-.04.16-.1.3l-.1.28h-3.08l-.16-.1zm-7.95-3.48c-.18-.09-.2-.1-.62-.71-.25-.34-.52-.73-.6-.86l-.17-.24.04-.17.08-.28c.03-.12.04-.13.3-.24.63-.28 1.44-.5 2.22-.63a8.76 8.76 0 0 1 4.84.74l.09.3.07.29-.1.14-.6.86c-.5.7-.5.7-.69.8l-.18.1h-4.5l-.18-.1zM0 16.75c0-.05 0-.07.01-.05v.1L0 16.75zm25.4-.04c0-.04.01-.04.02-.02v.06s-.02-.01-.01-.04zM0 15.28c0-.06 0-.08.01-.05v.1L0 15.28zm25.4.04c0-.03.01-.04.02-.02v.06s-.02 0-.01-.04z"/>
</svg>
