<!-- Generated by IcoMoon.io -->
<svg version="1.1" xmlns="http://www.w3.org/2000/svg" width="28" height="32" viewBox="0 0 28 32">
<title>michigan-state-university</title>
<path fill="#6c757d" d="M25.92 2.2s-1.66 3.57-2.5 5.34c-4.15-1.9-9.57-2.17-14.13 0.53-3.040 1.85-5.49 5.16-5.74 8.7-0.080 2.37 0.94 4.95 0.6 7.32-0.065 1.331-0.412 2.568-0.983 3.67l0.023-0.050c-0.76 1.27-1.67 2.37-3.19 2.45 0.34-0.42 2.68-1.58 1.76-6.89-0.36-2.1-3.26-7.33-0.46-13.88 2.55-5.98 13.6-13.060 24.62-7.19z"></path>
<path fill="#6c757d" d="M13.25 12.69c0.784-0.272 1.688-0.429 2.628-0.429 0.686 0 1.352 0.084 1.989 0.241l-0.057-0.012c2.773 0.434 5.032 2.281 6.041 4.768l0.019 0.052c1.1 2.69 1.88 4.86 3.77 7.16 0.050 0.070-2.94-0.44-2.93-0.52 0.73-5.33-4.31-5.55-5.7-3.56 0.919 0.959 2.21 1.555 3.641 1.555 0.208 0 0.413-0.013 0.614-0.037l-0.024 0.002c-0.3 5.3 1.19 10.1 1.1 10.090-1.2-0.17-6.7-3.4-8.31-4.81-2.37 0.42-4.22 1.3-6.96 1.67-0.080 0.020 0.5-2.020 0.42-3.030 0-2.79-2.13-5.4-0.62-8.82 0.9-2.050 2.27-3.56 4.38-4.32zM15.23 11.080c0.16 0 0.4 0.040 0.41 0.020 0.050-0.18 0.2-1.5 1.32-2.46 1.25-1.080 2.9-0.97 2.88-0.98-1.64-0.5-3.33-0.54-4.5-0.43l-0.1 3.85zM4.8 15.89c-0.133 0.715-0.209 1.537-0.209 2.377 0 0.516 0.029 1.024 0.084 1.525l-0.006-0.062s0.24-1.35 1-2.1c0.68-0.67 1.53-0.8 1.84-0.8 0 0 0.15-0.51 0.13-0.51l-2.83-0.43zM7.98 15.6c0.080-0.22 0.18-0.4 0.3-0.65l-2.9-1.13c-0.19 0.37-0.33 0.91-0.4 1.2l3 0.57zM8.68 14.48s0.47-0.6 0.48-0.59l-2.67-2c-0.28 0.35-0.5 0.73-0.69 1.14l2.88 1.45zM9.68 13.39l0.59-0.54-2.31-2.63c-0.52 0.45-0.68 0.66-1 1.040l2.72 2.13zM10.88 12.48c0 0.030 0.66-0.37 0.67-0.4l-1.71-3.13c-0.66 0.32-1.080 0.66-1.27 0.8l2.3 2.73zM12.15 11.78l0.82-0.27-0.98-3.51c-0.54 0.16-1.28 0.47-1.45 0.59l1.61 3.2zM13.6 11.3c0.030 0.020 0.74-0.15 0.75-0.15l0.090-3.81c-0.030 0.030-0.88 0.16-1.61 0.36l0.77 3.6z"></path>
</svg>
