<svg xmlns="http://www.w3.org/2000/svg" viewBox="0 0 28 32">
  <path fill="#6c757d" d="M25.92 2.2s-1.66 3.57-2.5 5.34c-4.15-1.9-9.57-2.17-14.13.53-3.04 1.85-5.49 5.16-5.74 8.7-.08 2.37.94 4.95.6 7.32a8.9 8.9 0 0 1-.96 3.62c-.76 1.27-1.67 2.37-3.19 2.45.34-.42 2.68-1.58 1.76-6.89-.36-2.1-3.26-7.33-.46-13.88C3.85 3.41 14.9-3.67 25.92 2.2z"/>
  <path fill="#6c757d" d="M13.25 12.69a8.26 8.26 0 0 1 4.56-.2 7.78 7.78 0 0 1 6.06 4.82c1.1 2.69 1.88 4.86 3.77 7.16.05.07-2.94-.44-2.93-.52.73-5.33-4.31-5.55-5.7-3.56a5.04 5.04 0 0 0 4.23 1.52c-.3 5.3 1.19 10.1 1.1 10.09-1.2-.17-6.7-3.4-8.31-4.81-2.37.42-4.22 1.3-6.96 1.67-.08.02.5-2.02.42-3.03 0-2.79-2.13-5.4-.62-8.82.9-2.05 2.27-3.56 4.38-4.32zM15.23 11.08c.16 0 .4.04.41.02.05-.18.2-1.5 1.32-2.46 1.25-1.08 2.9-.97 2.88-.98-1.64-.5-3.33-.54-4.5-.43l-.1 3.85zM4.8 15.89a13.63 13.63 0 0 0-.13 3.84s.24-1.35 1-2.1c.68-.67 1.53-.8 1.84-.8 0 0 .15-.51.13-.51l-2.83-.43zM7.98 15.6c.08-.22.18-.4.3-.65l-2.9-1.13c-.19.37-.33.91-.4 1.2l3 .57zM8.68 14.48s.47-.6.48-.59l-2.67-2c-.28.35-.5.73-.69 1.14l2.88 1.45zM9.68 13.39l.59-.54-2.31-2.63c-.52.45-.68.66-1 1.04l2.72 2.13zM10.88 12.48c0 .03.66-.37.67-.4L9.84 8.95c-.66.32-1.08.66-1.27.8l2.3 2.73zM12.15 11.78l.82-.27L11.99 8c-.54.16-1.28.47-1.45.59l1.61 3.2zM13.6 11.3c.03.02.74-.15.75-.15l.09-3.81c-.03.03-.88.16-1.61.36l.77 3.6z"/>
</svg>
