<svg xmlns="http://www.w3.org/2000/svg" viewBox="0 0 32 32">
  <path fill="#6c757d" d="M29.96 20.66h2v4.85h-9.51v-4.85h1.7l-2.91-4.86-1.13 1.89h1.08v4.85H10.77v-4.85h1.08l-1.13-1.89-2.92 4.86h1.71v4.85H0v-4.85h2l5.6-9.31H6.06V6.49h9.32v4.86h-1.54l2.14 3.55 2.14-3.56h-1.54V6.5h9.32v4.85h-1.54zM25.28 7.1H17.2v3.61h2.02l-3.24 5.39-3.24-5.39h2.02v-3.6H6.68v3.6H8.7L2.35 21.28H.62v3.6H8.9v-3.6H6.7l4.02-6.68 2.23 3.7H11.4v3.62h9.18V18.3h-1.56l2.23-3.71 4.02 6.68h-2.19v3.6h8.27v-3.6H29.6l-6.35-10.56h2.02v-3.6zm-.62.63v2.36h-2.5l7.1 11.8h1.46v2.37h-7.03V21.9h2.67l-5.12-8.5-3.33 5.53h2.04v2.36H12v-2.36h2.04l-3.33-5.54L5.6 21.9h2.67v2.37H1.24V21.9H2.7l7.1-11.8H7.3V7.74h6.84v2.36h-2.5l4.34 7.22 4.34-7.22h-2.5V7.74h6.84z"/>
</svg>
