<svg xmlns="http://www.w3.org/2000/svg" viewBox="0 0 152 152">
  <path d="M89.818,3.455v38h10.364V76L53.545,3.455H3.455v38H13.818v69.091H3.455v38H62.182v-38H51.818V76l46.636,72.545h50.091v-38H138.182V41.455h10.364v-38ZM58.727,114v31.091H6.909V114H17.273V38H6.909V6.909H51.818l51.818,79.455V38H93.273V6.909h51.818V38H134.727v76h10.364v31.091H100.182L48.364,65.636V114Z" fill="#6c757d"></path>
  <path d="M147.008,0H86.364V44.909H96.727V65.636L55.273,0H0V44.909H10.364v62.182H0V152H65.636V107.091H55.273V86.364L96.727,152H152V107.091H141.636V44.909H152V0Zm1.537,41.455H138.182v69.091h10.364v38H98.455L51.818,76v34.545H62.182v38H3.455v-38H13.818V41.455H3.455v-38H53.545L100.182,76V41.455H89.818v-38h58.727ZM103.636,86.364,51.818,6.909H6.909V38H17.273v76H6.909v31.091H58.727V114H48.364V65.636l51.818,79.455h44.909V114H134.727V38h10.364V6.909H93.273V38h10.364Z" fill="#6c757d"></path>
</svg>
