<svg xmlns="http://www.w3.org/2000/svg" viewBox="0 0 24 32">
  <path fill="#6c757d" d="M2.98 2.98L0 5.96V26l5.92 6h12.54l5.97-5.96V5.98L18.5 0H5.96L2.98 2.98zm18.06.45l2.86 2.86v19.42l-5.73 5.68H6.25L.57 25.7V6.24L6.27.57h11.9l2.87 2.86z"/>
  <path fill="#6c757d" d="M3.85 4.02L1.23 6.66v18.76L6.5 30.7h11.44l5.24-5.24V6.61l-5.24-5.23H6.5L3.86 4.02zm12.83 3.89l1.07 1.07V23.1l-2.14 2.14H8.77l-1.04-1.07-1.05-1.08V8.94l2.1-2.1h6.84l1.06 1.07z"/>
  <path fill="#6c757d" d="M8.3 8.46l-.85.84v13.48l1.65 1.65h6.23l1.6-1.61V9.3l-1.68-1.69H9.14l-.85.85zm7.4.42l.67.67v12.98l-1.33 1.33H9.4l-1.33-1.33V9.55L9.4 8.22h5.65l.66.66z"/>
</svg>
