<svg xmlns="http://www.w3.org/2000/svg" viewBox="0 0 29 32">
  <path fill="#6c757d" d="M18.9 18.64c0-.22.19-.56.19-.85 0-.38-.45-.49-.78-.53-.71-.1-.97-.07-.97-.22 0-.11.11-.22.22-.4.19-.3.67-.38.9-.42.33-.03.67-.07 1.11-.07.49 0 .9.07 1.08.11.45.08.52.26.52.49v.22c0 .22-.18.33-.48.37-.08 0-.19.04-.22.04-.23.03-.53.07-.6.37-.22.6-.6 1.08-.86 1.08-.07-.08-.1-.11-.1-.19zm.64-9.82c-.04 0-.12-.04-.12-.15s.08-.22.23-.45c.37-.48.85-1.08 1.04-1.08.07 0 .15.08.26.26.07.12.11.34.11.53 0 .63-.22 1.11-.56 1.6-.18-.12-.48-.45-.96-.71zM8.88 10c.15 0 .3-.11.52-.37.56-.6 1.08-.71 1.08-.97 0-.11-.07-.22-.15-.34-.6-.93-.85-1.4-1.19-2.08-.1-.22-.3-.4-.4-.4-.2 0-.41.21-.56.44-.19.3-.34.6-.34.9 0 .44.11 1.26.3 1.78.19.56.48 1.04.74 1.04zm6.59 2.12c0-.37-.41-.93-1.15-.93-.67 0-1.16.48-1.3.9.14.3.3.63.92.81.08.04.19.04.19.11 0 .12-.11.15-.34.15-.7 0-1.15-.3-1.34-.55-.18.03-.4.1-.67.1-.22 0-.33-.14-.33-.33 0-.11.04-.26.11-.4.04-.08.08-.2.11-.23.12-.22.3-.7.93-1.08l.38-.22c.37-.23.67-.26 1.07-.26h.34c.52 0 .78.15 1.04.33.49.41.75.64.75.93 0 .34 0 .6-.3.93-.23.3-.56.49-.78.49-.08 0-.08-.04-.08-.08s.04-.07.12-.1c.22-.16.3-.42.33-.57zm3.2 10.2c-.11.03-.37.07-1.45.07-1.64 0-1.94-.4-1.94-.7 0-.53 2.35-.94 3.28-.94.89 0 1.3.3 1.3.52s-.41.82-1.2 1.05zm-9.49 4.8a47.47 47.47 0 0 0 5.32 3.57c0-1.6-.03-2.57 1.04-3.72.45-.45.9-.93 1.3-1.38.3-.34.56-.56.71-.56.12 0 .15.04.15.19s.08.67.41 1.3c.41.78 1 .9 1.2.93C24 23.92 27.9 19.35 27.9 12.8V3.24c-1.16-.41-5.88-2.2-13.4-2.2S2.27 2.87 1.11 3.24v9.56a15 15 0 0 0 2.02 7.6c.1-1.35 1-1.98 1-3.28 0-.9-.26-1.5-.26-2.24 0-1.37 1.86-4.2 2.83-5.35.04-.04.07-.12.19-.12.07 0 .1.04.14.12.12.15.15.22.26.22s.15-.07.15-.15c0-.22-.26-.63-.26-2.2 0-1.07.26-1.33.93-2 .12-.12.52-.49.86-.49.4 0 .6.23.86.49.4.4 1 1.19 1.11 1.3.04.04.04.07.11.07.19 0 .38-.07 1.2-.07 1.52 0 3.83.22 5.02.63.6.19.74.34.89.34.07 0 .07-.04.07-.12s-.14-.18-.14-.3c0-.07.07-.1.1-.14.9-.49 1.64-.82 2.35-.82.41 0 .6.33.78.7.15.26.26.64.26 1.01 0 .93-.37 1.53-.63 1.9.15.15.33.33.45.48.22.26.44.6.44.93 0 .15-.07.37-.1.56 0 .07-.08.26-.23.26-.11 0-.15-.15-.15-.26v-.11c0-.26-.07-.64-.34-.9-.3-.3-.55-.52-.89-.52h-.11c-.56 0-.78.23-.93.38s-.3.37-.3.67a6.08 6.08 0 0 0 .7 1.49c.12.18.27.25.42.25.37 0 .7-.03.7-.18 0-.04 0-.08-.07-.08h-.11c-.49 0-.78-.63-1-1.22.18-.19.4-.38.77-.38.49 0 .82.34.82.79 0 .22-.07.4-.1.48-.05.04-.05.07-.05.07 0 .08.08.08.23.12l.18.03c.15.04.3.19.38.34.03.11.14.37.14.44.08.26.23.6.23 1.05s-.04.55-.15 1-.22.78-.26 1.08c.04.11.07.11.07.19.08.18.19.52.19.85v.3c0 .56-.22 1-.49 1.34-.18.26-.44.63-.63.82-.11.11-.22.22-.4.22-.08 0-.16-.03-.27-.03-.11-.04-.3-.08-.37-.12-.33-.07-.45-.3-.56-.6l-.07-.21c-.08-.19-.11-.34-.26-.34-.11 0-.19.08-.3.19-.33.48-.52.67-1.12.82-.22.03-.63.14-.85.18-.34.08-.97.26-1.34.26H15c-.49-.07-.82-.11-1.42-.82-.82-.96-.74-1.11-.78-2.45 0-.15-.04-.34-.22-.34-.15 0-.19.3-.26.67-.08.49-.19.97-.41.97-.15 0-.26-.04-.52-.11-.3-.11-1.05-.34-1.45-.49-.52-.18-1.05-.33-1.27-.78-.11-.22-.26-.63-.37-.85-.08-.15-.11-.23-.22-.23-.15 0-.19.19-.19.3 0 .15-.07.49-.07.7-.08.94-.26 1.35-.67 1.83-.19.22-.34.49-.56.75-.41.55-.67 1.11-.64 2.15v.64c.2 1.78.6 2.53 3.24 4.65z"/>
  <path fill="#6c757d" d="M21.66 13.25c.03.1.14.37.14.44.08.26.23.6.23 1.05s-.04.55-.15 1-.22.78-.26 1.08c-.04-.08-.86-1.49-.9-1.6-.07-.11-.1-.22-.1-.37s.07-.23.22-.34c.1-.07.22-.15.33-.18.41-.23.52-.49.52-.75l-.03-.33zm-3.54 2.2c.04.1.07.22.07.33 0 .22-.03.26-.14.4l-.23.2c-.1.07-.22.14-.3.22-.14.18-.22.3-.22.4 0 .04 0 .08.04.08-.15-.11-.22-.3-.22-.45s.03-.22.03-.37c0-.11-.03-.22-.03-.3-.23-.74-.6-1.64-.82-2.23-.23-.64-.41-.97-.71-.97-.15 0-.3.07-.45.07.23 0 .56-.18.78-.48.26-.33.3-.6.3-.93 0-.15-.07-.26-.18-.4.33.33.55.77.78 1.26.52 1.11.93 2.27 1.3 3.16zM6.1 22.65v-.63c0-1.05.23-1.6.64-2.16l.55-.75c.41-.52.6-.89.67-1.82.04-.22.08-.56.08-.7s.03-.3.18-.3c.12 0 .15.07.23.22.07.22.26.63.37.86.22.48.7.63 1.26.78.41.1 1.16.37 1.45.48.26.07.38.11.53.11.22 0 .33-.48.4-.96.04-.41.12-.67.26-.67s.19.18.23.33c.03 1.34-.04 1.45.78 2.46.6.7.93.74 1.41.82-.18-.04-.4-.26-.4-.71v-.49c0-.22.03-.48.14-.74.08-.11.11-.37.19-.52.11-.26.04-.3.04-.48s-.08-.38-.2-.79l-.25-.81c-.3-.82-.41-1.05-1.41-1.16-.34-.03-1.72-.22-2.01-.3-1.12-.14-2.01-.22-2.46-.96-.56-.9-.48-1.97-1-1.97-.26 0-.38.26-.38.67s.15 1.11.15 2.3c0 1.04-.11 1.34-.7 2.09l-.53.67c-.44.55-.63.89-.63 1.52 0 1.71.3 2.98.41 3.61zm11.43 4.02c.03-.41.22-1.12.22-1.38 0-.15-.04-.18-.15-.18-.15 0-.4.22-.7.55-.42.41-.86.9-1.3 1.38-1.09 1.15-1.05 2.08-1.05 3.72 1.23-.74 2.3-1.45 3.12-2-.1-.71-.22-1.2-.14-2.1z"/>
</svg>
