<svg xmlns="http://www.w3.org/2000/svg" viewBox="0 0 58 32">
  <path fill="#6c757d" d="M13.66 0c-1.9 4.4-3.76 8.83-5.65 13.24h5.98l-2.35 5.52H5.66C3.76 23.15 1.9 27.6 0 32h31.96c1.27-2.93 2.5-5.87 3.76-8.8 5.2-.07 10.8.52 15.4-2.39 3.97-2.5 6.1-7.06 7.17-11.47a7.21 7.21 0 0 0-4.6-8.4C49.7-.49 45.43.14 41.3 0H13.66zm36.29.43c1.08-.15 5.48 1.42 2.65.49-.87-.25-1.76-.4-2.65-.5zm-35.87.2C25.71.67 37.33.6 48.96.68c3.39.07 7.44 1.35 8.55 4.94 1.04 3.72-1 7.4-2.71 10.57-2.47 4.31-7.51 6.27-12.28 6.35-2.4.06-4.81.01-7.22.03-1.27 2.93-2.5 5.87-3.76 8.8H.98l5.1-11.97h5.99c.96-2.26 1.92-4.53 2.9-6.78h-6L14.07.64z"/>
  <path fill="#6c757d" d="M38.8 14.3H28.1l2.2-5.18c3.79.03 7.58-.06 11.36.04 2.9.47 1.07 4.22-.88 4.74a5 5 0 0 1-1.98.4zm7.86-9.96h-31l-2.03 4.78h5.98L13.66 23.1h-6l-2.03 4.77h22.75l2.04-4.77h-6.08l1.72-4.04c5.5-.05 11 .1 16.48-.09 3.53-.19 7.17-1.84 8.77-5.15.99-2.18 2.48-4.52 1.98-7-.98-2.5-4.4-2.38-6.63-2.48z"/>
</svg>
