<svg xmlns="http://www.w3.org/2000/svg" viewBox="0 0 246.005 217.375">
  <path fill="#6c757d" d="m223.76,176.25l-39.62-60.16c28.72-11.67,43.32-29.88,43.32-54.14,0-17.61-6.99-31.95-21.43-43.84C191.2,6.08,171.06,0,146.13,0H0v41.14h16.35v135.11H0v41.13h107.09v-41.13h-16.9v-51.74h25.93l32.59,51.74h-17.74v41.13h115.03v-41.13h-22.24Zm16.57,35.45h-103.71v-29.8h22.29l-39.71-63.09h-34.71v63.09h16.94v29.8H5.67v-29.8h16.35V35.47H5.67V5.61h140.43c23.59,0,42.54,5.66,56.32,16.84,13.01,10.72,19.33,23.62,19.33,39.44,0,22.86-13.98,39.25-42.73,50.08l-3.47,1.3,45.17,68.63h19.61v29.8Z"/>
  <path fill="#6c757d" d="m220.72,181.9l-45.17-68.63,3.47-1.3c28.75-10.83,42.73-27.22,42.73-50.08,0-15.82-6.32-28.72-19.33-39.44-13.78-11.18-32.73-16.84-56.32-16.84H5.67v29.86h16.35v146.43H5.67v29.8h95.76v-29.8h-16.94v-63.09h34.71l39.71,63.09h-22.29v29.8h103.71v-29.8h-19.61Zm-72.53-100.13l-.07.06c-7.4,5.78-18.3,8.71-32.43,8.71h-31.2v-55.07h38.5c12.04,0,21.34,3.36,27.68,9.94,2.28,2.24,4.09,4.93,5.29,7.9,1.21,2.97,1.79,6.16,1.71,9.36-.01,7.39-3.2,13.82-9.48,19.1Z"/>
  <path fill="#6c757d" d="m155.96,53.31c-1.2-2.97-3.01-5.66-5.29-7.9-6.34-6.58-15.64-9.94-27.68-9.94h-38.5v55.07h31.2c14.13,0,25.03-2.93,32.43-8.71l.07-.06c6.28-5.28,9.47-11.71,9.48-19.1.08-3.2-.5-6.39-1.71-9.36Zm-11.32,24.07c-6.36,4.98-16.09,7.51-28.87,7.51h-25.58v-43.75h32.8c10.39,0,18.35,2.77,23.63,8.22l.08.08c1.76,1.72,3.13,3.79,4.05,6.06.91,2.28,1.35,4.73,1.27,7.18-.03,5.68-2.44,10.48-7.38,14.7Z"/>
</svg>
