<!-- Generated by IcoMoon.io -->
<svg version="1.1" xmlns="http://www.w3.org/2000/svg" width="32" height="32" viewBox="0 0 32 32">
<title>university-of-nebraska-lincoln</title>
<path fill="#6c757d" d="M4.028 7.727v3.473h1.544v9.6h-1.544v6.946h9.864v-6.946h-1.544l0.002-1.916c0-1.805 0.002-1.912 0.032-1.869 0.040 0.055 1.084 1.704 3.185 5.028 0.501 0.791 1.476 2.334 2.566 4.056 0.518 0.817 0.964 1.523 0.99 1.566l0.049 0.081h8.292v-6.946h-1.544v-9.6h1.544l-0.004-3.469-0.006-3.467-9.854-0.009v6.946l0.768 0.004 0.766 0.006 0.006 1.905c0.002 1.048-0.002 1.907-0.009 1.907-0.009-0.002-0.363-0.553-0.789-1.229-0.721-1.143-1.506-2.383-3.584-5.67-0.457-0.725-0.958-1.517-1.112-1.76-0.152-0.243-0.514-0.815-0.802-1.271l-0.525-0.828-8.29-0.009v3.473zM12.943 5.813c0.437 0.691 1.118 1.768 1.513 2.394 0.397 0.627 1.158 1.83 1.69 2.673s1.101 1.741 1.261 1.995c0.744 1.175 1.355 2.144 1.666 2.635 0.186 0.296 0.344 0.544 0.354 0.555 0.009 0.009 0.017-1.088 0.017-2.566v-2.583h-1.544v-6.362h9.261l-0.004 3.176-0.006 3.177-0.766 0.006-0.768 0.004v10.184h1.544v6.344h-7.825l-0.966-1.53c-0.533-0.84-1.34-2.118-1.796-2.837-0.454-0.719-1.107-1.752-1.451-2.296-1.387-2.195-2.485-3.932-2.767-4.376-0.164-0.26-0.299-0.474-0.303-0.478s-0.008 1.158-0.008 2.583v2.592h1.544v6.344h-9.261v-6.344h1.544v-10.184l-0.766-0.004-0.768-0.006-0.006-3.177-0.004-3.176h7.821l0.792 1.257z"></path>
<path fill="#6c757d" d="M4.8 7.727v2.701h1.544v11.144h-1.544v5.402h8.32v-5.402h-1.544v-3.637c0-2.001 0.008-3.629 0.015-3.62 0.009 0.011 0.139 0.213 0.29 0.452 0.149 0.237 0.661 1.047 1.135 1.798 1.737 2.746 2.383 3.77 2.814 4.452 0.241 0.382 0.474 0.751 0.518 0.819 0.045 0.068 0.181 0.282 0.305 0.48 0.124 0.196 0.488 0.772 0.809 1.28 0.32 0.506 0.727 1.15 0.904 1.431 0.177 0.279 0.525 0.83 0.774 1.224l0.454 0.715 7.098 0.009v-5.402h-1.544v-11.144h1.544v-5.402h-8.32v5.402l0.768 0.004 0.766 0.006 0.006 3.62c0.002 2.366-0.002 3.62-0.015 3.614-0.009-0.002-0.166-0.239-0.344-0.523s-0.563-0.89-0.851-1.346c-0.939-1.483-2.231-3.529-2.522-3.991-0.309-0.489-2.878-4.552-3.753-5.935l-0.538-0.851h-7.087v2.701z"></path>
<path fill="#6c757d" d="M28.386 26.539c-0.107 0.036-0.243 0.117-0.297 0.181-0.273 0.309-0.186 0.776 0.177 0.96 0.098 0.049 0.13 0.056 0.271 0.056 0.124 0 0.181-0.009 0.248-0.041 0.124-0.056 0.243-0.173 0.309-0.301 0.047-0.094 0.055-0.13 0.053-0.26 0-0.117-0.009-0.171-0.043-0.239-0.109-0.226-0.299-0.356-0.535-0.365-0.075-0.004-0.156 0-0.183 0.009zM28.755 26.688c0.303 0.154 0.371 0.552 0.136 0.794-0.307 0.314-0.841 0.094-0.843-0.35 0-0.201 0.137-0.397 0.328-0.467 0.102-0.040 0.282-0.028 0.38 0.023z"></path>
<path fill="#6c757d" d="M28.292 27.132v0.369h0.111l0.006-0.156c0.006-0.147 0.008-0.154 0.049-0.154 0.036 0 0.058 0.028 0.122 0.151 0.072 0.137 0.085 0.151 0.141 0.156l0.062 0.006-0.079-0.158-0.079-0.16 0.068-0.066c0.060-0.056 0.070-0.075 0.070-0.151 0-0.064-0.011-0.1-0.045-0.139-0.043-0.051-0.055-0.053-0.235-0.058l-0.19-0.008v0.369zM28.6 26.891c0.041 0.040 0.038 0.126-0.006 0.166-0.024 0.023-0.060 0.030-0.109 0.026-0.070-0.006-0.072-0.008-0.077-0.088-0.004-0.045-0.002-0.094 0.004-0.107 0.013-0.036 0.151-0.034 0.188 0.004z"></path>
</svg>
