<!-- Generated by IcoMoon.io -->
<svg version="1.1" xmlns="http://www.w3.org/2000/svg" width="26" height="32" viewBox="0 0 26 32">
<title>university-of-chicago</title>
<path fill="#6c757d" d="M9.27 0.95c-2.6 0.070-6.25 0.31-7.63 0.49l-0.23 0.030v8.3c0 8.91 0 8.6 0.24 9.92 0.824 4.713 4.057 8.514 8.359 10.13l0.091 0.030c1.24 0.49 2.77 0.87 3.21 0.8 0.12-0.010 0.55-0.11 0.96-0.2 3.81-0.96 6.79-3.030 8.59-5.97 0.94-1.564 1.61-3.4 1.891-5.362l0.009-0.078c0.1-0.61 0.11-0.68 0.12-9.1 0.010-8.090 0.010-8.48-0.070-8.48l-0.81-0.070c-4.23-0.4-10.090-0.59-14.73-0.44zM11.51 2.45c0.42 0.060 0.88 0.2 1.23 0.36l0.25 0.11v3.54c0 2.8-0.020 3.52-0.060 3.5-0.63-0.328-1.375-0.52-2.165-0.52-0.153 0-0.304 0.007-0.454 0.021l0.019-0.001c-0.2 0.030-0.8 0.14-1.34 0.26-1.26 0.27-1.82 0.35-2.4 0.35h-0.47v-7.2l0.27 0.030c0.15 0.030 0.67 0.040 1.16 0.040h0.9l0.52-0.18c0.555-0.217 1.198-0.343 1.871-0.343 0.236 0 0.468 0.015 0.696 0.045l-0.027-0.003zM16.73 2.59c0.799 0.258 1.719 0.406 2.673 0.406 0.189 0 0.377-0.006 0.563-0.017l-0.026 0.001 0.53-0.040v7.18h-0.3c-0.54 0-1.45-0.13-3.2-0.47-0.461-0.139-0.99-0.219-1.538-0.219-0.159 0-0.317 0.007-0.472 0.020l0.020-0.001c-0.67 0.080-0.94 0.17-1.63 0.52-0.020 0-0.030-1.57-0.020-3.5l0.010-3.52 0.42-0.16c0.52-0.232 1.126-0.368 1.765-0.368 0.429 0 0.844 0.061 1.237 0.175l-0.031-0.008zM4.28 4.27c0.48 0.36 0.44 1.090-0.080 1.33-0.6 0.3-1.2-0.2-1.080-0.87 0.071-0.246 0.247-0.441 0.475-0.538l0.005-0.002c0.2-0.060 0.53-0.030 0.68 0.080zM21.5 4.61c0.1 0 0.28-0.030 0.41-0.070 0.3-0.090 0.5-0.090 0.71 0 0.27 0.12 0.41 0.27 0.5 0.58 0.040 0.1 0.030 0.1-0.080 0.060-0.24-0.1-0.42-0.050-1.1 0.26-0.64 0.3-1.050 0.42-1.14 0.37-0.033-0.173-0.052-0.373-0.052-0.577 0-0.043 0.001-0.087 0.003-0.13l-0 0.006v-0.68l0.3 0.1c0.15 0.040 0.36 0.080 0.45 0.080zM5.79 5.010v0.45l-0.87-0.020-0.020-0.44-0.010-0.43h0.9v0.43zM4.2 7.3c0.54 0.27 0.54 1.11-0.010 1.37-0.37 0.19-0.86 0.030-1.030-0.32-0.19-0.4-0.050-0.86 0.33-1.040 0.103-0.057 0.225-0.091 0.355-0.091s0.252 0.034 0.359 0.093l-0.004-0.002zM21.33 7.38c0.24 0.010 0.58 0 0.75-0.020 0.19-0.010 0.4-0.030 0.47-0.020 0.17 0.020 0.47 0.33 0.55 0.55 0.060 0.2 0.040 0.24-0.1 0.17-0.2-0.11-0.5-0.070-0.8 0.1-0.4 0.22-0.93 0.4-1.25 0.44l-0.25 0.040v-1.36l0.1 0.040c0.060 0.020 0.3 0.040 0.53 0.050zM5.8 8.050v0.42h-0.9v-0.85h0.9v0.43zM13.81 11.060c0.4 0.17 0.73 0.22 0.87 0.14 0.1-0.040 0.1-0.040 0.1 0.050 0 0.060-0.030 0.15-0.070 0.2-0.090 0.1-0.080 0.1 0.1 0.070 0.1-0.020 0.24-0.090 0.32-0.16l0.13-0.13v0.18c0 0.21-0.15 0.37-0.42 0.45l-0.18 0.060 0.13 0.11c0.1 0.080 0.14 0.16 0.14 0.25 0 0.18 0.16 0.38 0.3 0.38 0.15 0 0.15 0.060 0.020 0.16-0.070 0.050-0.13 0.050-0.22 0.020-0.15-0.060-0.16-0.040-0.080 0.16 0.040 0.1 0.070 0.22 0.070 0.28 0 0.2 0.1 0.48 0.24 0.6 0.22 0.23 0.040 0.27-0.2 0.050l-0.16-0.14 0.070 0.2c0.060 0.19 0.060 0.23 0 0.53-0.060 0.18-0.11 0.35-0.14 0.37-0.030 0.030-0.1-0.020-0.23-0.16-0.19-0.22-0.25-0.23-0.11-0.030 0.18 0.28 0.28 1.060 0.14 1.060-0.040 0-0.12-0.080-0.18-0.18-0.13-0.24-0.19-0.24-0.12-0.020 0.060 0.25 0.11 0.34 0.35 0.6 0.12 0.13 0.28 0.37 0.35 0.54l0.14 0.29-0.070 0.54c-0.040 0.3-0.080 0.55-0.1 0.57-0.040 0.050-0.12-0.040-0.24-0.27-0.037-0.088-0.084-0.164-0.141-0.231l0.001 0.001c-0.1 0 0.14 0.6 0.3 0.77 0.050 0.060 0.11 0.17 0.14 0.26 0.070 0.2 0.080 0.61 0.010 0.61-0.020 0-0.1-0.080-0.17-0.19-0.070-0.1-0.13-0.18-0.14-0.17l0.080 0.34c0.16 0.48 0.15 1.13 0 1.5l-0.12 0.29-0.14-0.58c-0.080-0.32-0.16-0.57-0.2-0.56l-0.31 0.4c-0.16 0.22-0.29 0.38-0.3 0.37l-0.070-0.36c-0.068-0.631-0.245-1.206-0.513-1.728l0.013 0.028c-0.070 0-0.73 1.89-0.8 2.24-0.029 0.156-0.045 0.336-0.045 0.52 0 0.267 0.035 0.525 0.1 0.771l-0.005-0.021c0.040 0.12 0.060 0.22 0.050 0.22-0.050 0-0.26-0.5-0.34-0.8-0.21-0.76-0.16-1.56 0.11-1.84 0.13-0.14 0.16-0.36 0.050-0.5-0.050-0.070-0.070-0.070-0.070-0.020 0 0.1-0.090 0.39-0.14 0.47-0.060 0.1-0.22-0.010-0.28-0.19-0.070-0.2 0-0.48 0.18-0.78s0.2-0.4 0.13-0.5c-0.060-0.090-0.070-0.080-0.16 0.090-0.12 0.25-0.22 0.26-0.3 0.010-0.031-0.135-0.049-0.29-0.049-0.45 0-0.525 0.193-1.005 0.511-1.373l-0.002 0.003c0.090-0.1 0.16-0.22 0.15-0.24s-0.11 0.020-0.22 0.1c-0.26 0.17-0.3 0.12-0.26-0.22 0.060-0.52 0.4-0.97 0.75-1.040 0.18-0.030 0.19-0.050 0.080-0.17-0.040-0.040-0.070-0.090-0.060-0.1l0.34-0.1c0.4-0.090 0.58-0.2 0.65-0.42 0.080-0.25 0.020-0.27-0.19-0.070-0.13 0.13-0.23 0.18-0.33 0.18-0.17 0-0.23-0.080-0.1-0.16 0.12-0.090 0.13-0.27 0.020-0.38-0.060-0.060-0.13-0.070-0.3-0.050-0.18 0.020-0.47-0.060-0.47-0.13-0.006-0.037-0.017-0.071-0.031-0.102l0.001 0.002c-0.020-0.060 0-0.070 0.070-0.050s0.22-0.020 0.44-0.12c0.32-0.13 0.35-0.14 0.53-0.090 0.1 0.040 0.26 0.13 0.35 0.22l0.18 0.16c0.040 0 0.020-0.24-0.030-0.35-0.060-0.11-0.36-0.31-0.48-0.31-0.040 0-0.12-0.080-0.18-0.17-0.116-0.202-0.326-0.339-0.568-0.35l-0.002-0c-0.15 0-0.19-0.020-0.27-0.16-0.13-0.22-0.28-0.29-0.46-0.21-0.075 0.040-0.136 0.098-0.179 0.168l-0.001 0.002c-0.060 0.14-0.090 0.14-0.2-0.020-0.2-0.24-0.080-0.66 0.24-0.86l0.19-0.1c0.020 0 0.080 0.1 0.13 0.22 0.090 0.2 0.2 0.3 0.26 0.24 0.020-0.020 0-0.12-0.050-0.22s-0.080-0.22-0.060-0.26c0.040-0.080 0.23-0.1 0.31-0.010 0.050 0.050 0.090 0.020 0.18-0.1 0.27-0.32 0.66-0.35 1.25-0.1zM8.96 11.45c0.090 0.060 0.2 0.2 0.27 0.31 0.1 0.2 0.12 0.27 0.13 0.72 0 0.57 0.020 0.62 0.33 0.7l0.2 0.050-0.080 0.14c-0.14 0.24-0.25 0.26-0.77 0.16-0.1-0.020-0.15 0.020-0.33 0.23-0.26 0.3-0.29 0.44-0.14 0.66 0.1 0.15 0.13 0.43 0.050 0.47-0.070 0.050-0.050 0.3 0.030 0.38 0.1 0.1 0.25 0.090 0.68-0.020 0.45-0.12 0.55-0.12 0.77 0.020 0.1 0.060 0.24 0.12 0.3 0.12 0.080 0 0.1-0.030 0.1-0.16 0-0.18-0.050-0.25-0.31-0.42-0.22-0.14-0.28-0.28-0.23-0.51 0.040-0.2 0.26-0.7 0.31-0.7 0.020 0 0.060 0.080 0.1 0.17 0.070 0.24 0.27 0.45 0.7 0.74 0.55 0.4 0.7 0.75 0.54 1.37-0.080 0.33-0.090 0.36-0.010 0.54 0.070 0.19 0.070 0.2-0.010 0.35-0.26 0.44-0.3 1.26-0.080 1.65 0.1 0.2 0.11 0.25 0.090 0.58-0.030 0.39 0.020 0.57 0.23 0.8 0.080 0.080 0.080 0.12 0.030 0.34-0.040 0.2-0.040 0.32 0 0.58 0.030 0.18 0.050 0.34 0.040 0.36-0.020 0-0.13-0.2-0.26-0.48-0.14-0.3-0.31-0.58-0.43-0.71-0.277-0.284-0.647-0.477-1.061-0.529l-0.009-0.001-0.3-0.030v0.13c0 0.090 0.080 0.23 0.2 0.38 0.1 0.13 0.2 0.32 0.23 0.4 0.060 0.2 0.060 0.75 0 0.75-0.070 0-0.55-0.48-0.62-0.63-0.044-0.086-0.082-0.186-0.108-0.29l-0.002-0.010-0.030-0.16-0.2 0.18c-0.28 0.29-0.42 0.62-0.42 1.030-0.010 0.2-0.020 0.33-0.040 0.31s-0.1-0.2-0.18-0.42l-0.15-0.38 0.42-0.54c0.357-0.445 0.668-0.952 0.912-1.496l0.018-0.044 0.040-0.11-0.11 0.090c-0.1 0.1-0.73 0.91-1.15 1.5l-0.23 0.32-0.18-0.34-0.17-0.35 0.15-0.19 0.3-0.4c0.17-0.25 0.6-1.17 0.56-1.2-0.010-0.020-0.27 0.36-0.58 0.82l-0.55 0.85-0.14-0.11c-0.050-0.051-0.11-0.091-0.176-0.119l-0.004-0.001c-0.040 0-0.14 0.37-0.14 0.56 0 0.17-0.2 0.43-0.64 0.81-0.31 0.27-0.34 0.26-0.34-0.22v-0.28l0.37-0.43c0.36-0.4 0.85-1.12 1.080-1.57l0.1-0.21-0.15 0.14c-0.080 0.070-0.43 0.5-0.79 0.94l-0.65 0.82c-0.010 0.020-0.040-0.010-0.070-0.060l-0.19-0.24-0.13-0.16 0.34-0.49c0.35-0.5 0.81-1.4 0.78-1.5-0.020-0.040-0.31 0.37-0.67 0.9-0.46 0.7-0.66 0.98-0.71 0.96-0.1-0.040-0.090-0.14 0.020-0.75 0.060-0.28 0.1-0.57 0.1-0.63 0-0.38-0.3 0.51-0.36 1.060l-0.030 0.3-0.24 0.060c-0.28 0.070-0.3 0.14-0.070 0.36l0.14 0.14-0.020 0.68c-0.010 0.67-0.010 0.68 0.12 0.86 0.16 0.23 0.16 0.25 0 0.25-0.099 0.005-0.191 0.031-0.274 0.072l0.004-0.002c-0.040 0.030-0.087 0.054-0.137 0.069l-0.003 0.001c-0.010-0.010-0.060-0.23-0.1-0.49-0.073-0.567-0.115-1.224-0.115-1.89 0-0.748 0.053-1.483 0.155-2.203l-0.010 0.083c-0.030-0.040-0.15 0.23-0.92 2.1-0.77 1.9-0.75 1.84-0.83 1.84s-0.11-0.11-0.11-0.47c0-0.9 0.76-2.84 1.5-3.8 0.16-0.22 0.18-0.3 0.1-0.3-0.030 0-0.35 0.29-0.7 0.64-0.73 0.7-1.080 0.92-1.45 0.92-0.1 0-0.2-0.020-0.2-0.040 0-0.030 0.47-0.5 1.040-1.040 0.97-0.91 1.34-1.3 1.3-1.35l-0.46 0.21c-0.5 0.25-0.82 0.34-1.22 0.34-0.3 0-0.57-0.050-0.57-0.1 0.175-0.125 0.374-0.248 0.582-0.357l0.028-0.013c0.7-0.38 1.3-0.76 1.6-1.020 0.24-0.21 0.47-0.52 0.47-0.64 0-0.070-0.060-0.050-0.43 0.13-0.52 0.24-0.94 0.36-1.33 0.37-0.3 0-0.64-0.050-0.64-0.1 0-0.030 0.13-0.11 0.28-0.2 0.5-0.3 2-1.23 2.76-1.73 0.63-0.4 0.8-0.49 0.95-0.49 0.1 0 0.21-0.020 0.25-0.040 0.050-0.040 0-0.050-0.18-0.050-0.41 0-0.56-0.14-0.47-0.44l0.040-0.18 0.14 0.16c0.14 0.14 0.15 0.15 0.46 0.12 0.17-0.020 0.53-0.1 0.79-0.2 0.58-0.2 0.92-0.22 1.15-0.060zM19.31 11.45c0.21 0.070 0.5 0.16 0.63 0.22s0.35 0.1 0.48 0.1c0.15 0.010 0.25 0.040 0.25 0.070 0 0.080-0.19 0.2-0.32 0.2-0.15 0-0.18 0.1-0.020 0.12 0.3 0.080 0.8 0.28 1.040 0.44 0.28 0.19 0.34 0.28 0.21 0.3-0.050 0.010 0.21 0.31 0.92 1.020 0.73 0.74 0.96 1 0.89 1-0.2 0-0.78-0.4-1.46-1-0.18-0.16-0.32-0.26-0.32-0.23 0 0.060 0.17 0.25 1 1.12 0.28 0.3 0.64 0.71 0.81 0.93 0.3 0.38 0.64 0.9 0.64 0.97 0 0.12-1-0.33-1.31-0.6-0.11-0.1-0.43-0.51-0.72-0.95-0.47-0.71-0.67-0.95-0.73-0.88-0.020 0.010 0.3 0.56 0.69 1.21 0.85 1.43 1.040 1.8 1.2 2.42 0.12 0.42 0.13 0.55 0.13 1.4 0 1.14-0.1 1.77-0.28 1.77-0.060 0-0.12-0.2-0.6-2.16-0.48-1.95-0.8-2.87-1.18-3.32l-0.12-0.14 0.12 0.33c0.55 1.43 0.86 2.6 0.94 3.46l0.030 0.35-0.27 0.1c-0.15 0.050-0.4 0.16-0.55 0.26l-0.27 0.18v-0.25c0-0.72-0.17-1.76-0.43-2.56-0.15-0.46-0.25-0.58-0.21-0.24 0.080 0.58 0.22 1.63 0.25 1.77 0 0.1 0 0.15-0.030 0.13-0.020-0.020-0.27-0.3-0.53-0.63-0.54-0.65-0.84-0.96-0.84-0.85 0 0.1 0.4 0.79 0.66 1.13 0.13 0.17 0.35 0.4 0.5 0.53l0.25 0.23v0.3c0 0.38-0.070 0.69-0.15 0.66-0.030 0-0.41-0.44-0.84-0.95-0.88-1.040-1.14-1.32-1.16-1.25-0.020 0.050 0.15 0.4 0.42 0.87 0.14 0.23 0.39 0.51 0.88 1l0.68 0.67-0.15 0.23c-0.25 0.39-0.24 0.39-0.65 0.090-0.19-0.15-0.36-0.3-0.36-0.33l-0.060-0.24c-0.040-0.19-0.050-0.2-0.23-0.2-0.19 0-0.22-0.020-0.64-0.45-0.46-0.47-0.6-0.57-0.5-0.33 0.090 0.24 0.36 0.66 0.55 0.83l0.19 0.17-0.14 0.24c-0.080 0.14-0.14 0.3-0.14 0.33 0 0.15-0.1 0.1-0.5-0.29-0.48-0.46-0.57-0.5-0.4-0.15 0.090 0.17 0.4 0.5 0.68 0.7l0.13 0.090-0.1 0.28c-0.060 0.17-0.17 0.34-0.28 0.44-0.33 0.31-1 0.86-1.020 0.83 0.15-0.508 0.482-0.923 0.92-1.175l0.010-0.005c0.21-0.1 0.23-0.2 0.080-0.36-0.090-0.080-0.14-0.1-0.47-0.080l-0.37 0.030v-0.15c0-0.080-0.030-0.31-0.070-0.52l-0.1-0.6-0.040-0.23-0.22 0.14c-0.3 0.19-0.36 0.3-0.41 0.68-0.030 0.18-0.080 0.39-0.13 0.47l-0.23 0.45-0.16 0.3-0.050-0.16c-0.030-0.080-0.050-0.29-0.050-0.46 0-0.27-0.020-0.35-0.15-0.55-0.2-0.31-0.26-0.47-0.32-0.82-0.040-0.26-0.030-0.3 0.060-0.42 0.13-0.19 0.16-0.5 0.060-0.87-0.080-0.28-0.080-0.35-0.010-0.95 0.1-0.87 0.060-1.040-0.3-1.48l-0.17-0.2 0.1-0.6 0.47 0.030 0.14-0.29c0.080-0.15 0.23-0.37 0.35-0.47 0.21-0.21 0.23-0.27 0.12-0.52-0.030-0.1-0.060-0.18-0.050-0.2l0.22 0.1c0.31 0.17 0.35 0.31 0.21 0.72-0.12 0.35-0.1 0.4 0.12 0.4 0.35 0 0.77-0.27 0.83-0.51 0.080-0.39 0.12-0.48 0.3-0.67 0.23-0.26 0.24-0.41 0-0.52-0.13-0.060-0.14-0.090-0.13-0.22l0.020-0.15-0.23 0.2c-0.27 0.27-0.4 0.3-0.7 0.2-0.19-0.080-0.26-0.080-0.4-0.040-0.059 0.025-0.128 0.040-0.2 0.040v0c-0.060-0.060 0.1-0.25 0.25-0.3 0.26-0.1 0.48-0.23 0.57-0.37 0.060-0.080 0.070-0.13 0.010-0.26-0.080-0.24-0.020-0.37 0.29-0.7l0.27-0.3 0.24 0.030c0.16 0.020 0.27 0 0.34-0.040 0.31-0.22 0.76-0.25 1.32-0.090zM10.83 12.33c0 0.050 0.060 0.15 0.12 0.22l0.11 0.13h0.68c0.74 0.010 0.9 0.060 1.050 0.29 0.080 0.12 0.080 0.13 0 0.090-0.164-0.041-0.352-0.065-0.545-0.065s-0.381 0.024-0.561 0.068l0.016-0.003c-0.62 0.1-0.83 0.070-1.020-0.13-0.15-0.17-0.17-0.33-0.040-0.54 0.1-0.17 0.2-0.2 0.2-0.060zM13.38 19.53c0.12 0.38 0.15 1 0.070 1.51-0.020 0.15-0.020 0.4 0 0.54l0.030 0.28 0.060-0.28c0.040-0.15 0.14-0.4 0.22-0.54 0.16-0.31 0.49-0.66 0.55-0.6 0.080 0.1 0.24 0.84 0.24 1.12 0 0.38-0.060 0.57-0.37 1.090-0.164 0.213-0.272 0.477-0.3 0.764l-0 0.006c-0.020 0.2-0.030 0.38-0.020 0.41s0.080-0.12 0.15-0.33c0.080-0.24 0.23-0.54 0.38-0.78 0.27-0.4 0.35-0.61 0.47-1.23 0.040-0.23 0.12-0.46 0.2-0.6 0.14-0.22 0.25-0.29 0.25-0.15 0 0.050 0.020 0.13 0.060 0.18 0.2 0.28 0.12 0.78-0.23 1.42-0.23 0.44-0.23 0.44-0.15 0.44 0.17 0 0.46-0.35 0.55-0.66 0.040-0.12 0.040-0.12 0.11 0.050 0.14 0.32 0.1 0.44-0.21 0.67-0.1 0.070-0.22 0.22-0.27 0.33-0.1 0.2-0.14 0.55-0.060 0.54 0.060 0 0.49-0.56 0.63-0.83 0.1-0.18 0.15-0.35 0.18-0.6 0.030-0.28 0.060-0.4 0.22-0.66 0.17-0.29 0.27-0.58 0.37-1.080 0.010-0.060 0.080-0.16 0.15-0.24l0.12-0.14 0.060 0.36c0.1 0.56 0.1 0.93-0.030 1.17l-0.1 0.2 0.16-0.1c0.32-0.2 0.44-0.24 0.67-0.24h0.24l-0.3 0.14c-0.32 0.17-0.46 0.33-0.7 0.89-0.24 0.6-0.3 0.67-0.63 1-0.34 0.32-0.4 0.42-0.24 0.42 0.21 0 0.67-0.3 1-0.65 0.2-0.2 0.53-0.5 0.75-0.65 0.54-0.39 0.72-0.67 0.94-1.37 0.1-0.33 0.34-0.77 0.42-0.77 0.14 0 0.11 0.69-0.050 1.28-0.1 0.36-0.15 0.47-0.46 0.84l-0.16 0.2 0.18-0.080c0.25-0.1 0.85-0.43 1.1-0.6 0.4-0.27 0.72-0.62 1.060-1.14 0.38-0.57 0.55-0.74 1.020-0.99 0.44-0.23 0.5-0.22 0.3 0.050-0.090 0.12-0.17 0.26-0.18 0.32-0.1 0.52-0.15 0.69-0.3 0.95-0.080 0.17-0.14 0.3-0.1 0.3 0.020 0 0.12-0.040 0.23-0.1s0.22-0.080 0.26-0.070c0.050 0.020-0.070 0.17-0.41 0.52-0.69 0.7-0.82 0.75-2.4 1.010-0.76 0.13-1.19 0.3-1.98 0.84-0.64 0.43-0.97 0.61-1.46 0.8-0.13 0.030-0.22 0.090-0.22 0.1 0 0.030 0.15 0.11 0.34 0.2 0.29 0.14 0.39 0.16 0.68 0.16 0.33 0 0.35 0 1.16-0.42 0.45-0.23 0.84-0.41 0.84-0.4 0.020 0.020-0.2 0.26-0.48 0.56-0.55 0.56-0.72 0.67-1.4 0.86-0.32 0.090-0.49 0.1-1.31 0.1-0.86 0-0.96 0.020-1.1 0.1-0.25 0.15-0.24 0.22 0.020 0.22 0.24 0 0.35 0.040 0.58 0.24 0.4 0.35 0.83 0.4 1.1 0.14 0.2-0.2 0.45-0.3 0.73-0.3 0.23 0 0.56 0.14 0.69 0.29 0.070 0.080 0.070 0.090-0.060 0.11-0.070 0.010-0.2 0.1-0.27 0.18l-0.37 0.4c-0.28 0.32-0.52 0.41-0.96 0.39-0.3-0.020-0.34-0.040-0.87-0.36-0.78-0.5-0.95-0.53-1.070-0.21-0.060 0.15 0.010 0.31 0.31 0.67 0.43 0.52 0.45 0.7 0.15 1.010-0.24 0.24-0.43 0.27-0.73 0.12-0.17-0.080-0.65-0.55-0.61-0.6 0 0 0.1 0 0.18 0.030 0.22 0.070 0.53 0.060 0.6 0 0.1-0.1 0.060-0.26-0.15-0.67-0.095-0.158-0.171-0.342-0.217-0.537l-0.003-0.013c0-0.080-0.020-0.14-0.050-0.14s-0.18 0.12-0.34 0.27c-0.38 0.36-0.8 0.66-1.060 0.77-0.23 0.1-0.62 0.12-0.77 0.030-0.228-0.175-0.43-0.352-0.621-0.541l0.001 0.001c-0.371-0.38-0.784-0.717-1.232-1.003l-0.028-0.017-0.2-0.12h0.52c0.86 0 1.15 0.12 1.67 0.66 0.31 0.33 0.37 0.37 0.52 0.37 0.090 0 0.23-0.040 0.3-0.090 0.294-0.24 0.549-0.513 0.761-0.817l0.009-0.013c0.060-0.1 0.050-0.11-0.12-0.18-0.327-0.139-0.708-0.22-1.108-0.22-0.224 0-0.442 0.025-0.652 0.074l0.020-0.004c-0.11 0.030-0.2 0.050-0.2 0.020 0-0.080 0.52-0.56 0.72-0.66 0.44-0.23 0.92-0.1 1.35 0.35 0.27 0.28 0.31 0.2 0.1-0.18-0.3-0.55-1.040-0.81-1.73-0.6-0.14 0.030-0.48 0.18-0.78 0.32-0.63 0.31-0.8 0.33-1.21 0.12-0.599-0.315-1.099-0.738-1.492-1.249l-0.008-0.011c-0.2-0.28-0.19-0.33 0-0.2 0.89 0.58 1.67 0.7 2.37 0.37 0.58-0.28 1.23-0.24 2.14 0.12 0.23 0.1 0.43 0.17 0.44 0.17 0.020 0-0.090-0.1-0.24-0.24-0.302-0.26-0.668-0.455-1.072-0.556l-0.018-0.004c-0.18-0.030-0.388-0.047-0.6-0.047-0.447 0-0.877 0.076-1.277 0.215l0.027-0.008c-0.32 0.13-0.54 0.1-0.98-0.16-0.135-0.091-0.29-0.172-0.454-0.235l-0.016-0.005c-0.1 0 0.1-0.16 0.39-0.3 0.29-0.16 0.56-0.2 0.9-0.12 0.15 0.030 0.28 0.050 0.3 0.030 0-0.010-0.090-0.080-0.2-0.15-0.238-0.125-0.518-0.205-0.815-0.22l-0.005-0c-1.123-0.15-2.133-0.395-3.099-0.733l0.109 0.033c-0.27-0.1-0.27-0.1-0.18-0.2 0.16-0.15 0.51-0.2 0.88-0.1 0.060 0.030 0-0.070-0.17-0.22-0.3-0.29-0.47-0.6-0.48-0.84l0.040-0.57c0.030-0.34 0.020-0.43-0.040-0.56-0.040-0.080-0.070-0.16-0.060-0.17 0.050-0.060 0.4 0.060 0.51 0.17 0.15 0.16 0.2 0.34 0.27 0.99 0.060 0.5 0.16 0.8 0.32 0.95 0.090 0.080 0.090 0.070 0.090-0.17 0-0.18 0.020-0.28 0.080-0.35 0.12-0.13 0.14-0.13 0.21 0.050 0.1 0.2 0.4 0.5 0.64 0.6 0.25 0.12 0.3 0.12 0.36 0 0.040-0.080 0.030-0.14-0.040-0.3-0.2-0.4-0.28-0.98-0.22-1.5 0.020-0.27 0.040-0.31 0.1-0.26 0.1 0.090 0.28 0.5 0.44 1.050 0.12 0.42 0.2 0.59 0.4 0.9 0.15 0.22 0.32 0.43 0.38 0.49l0.1 0.1 0.030-0.11c0.020-0.060 0-0.31-0.040-0.56-0.080-0.53-0.050-0.75 0.14-1.040 0.14-0.21 0.19-0.23 0.23-0.060 0.020 0.060 0.16 0.24 0.31 0.4 0.31 0.3 0.3 0.29 0.28 0.98 0 0.24 0.010 0.32 0.1 0.45 0.14 0.2 0.62 0.53 1.32 0.91 0.66 0.37 0.92 0.56 1.2 0.87 0.22 0.26 0.26 0.23 0.12-0.090-0.1-0.2-0.35-0.41-1.060-0.88-0.457-0.272-0.828-0.643-1.092-1.086l-0.008-0.014c-0.12-0.26-0.13-0.32-0.16-1.14l-0.030-0.89-0.2-0.22c-0.19-0.2-0.19-0.2-0.090-0.2 0.060 0 0.2 0.030 0.31 0.080 0.56 0.25 1.11 1.070 1.4 2.1 0.15 0.5 0.18 0.55 0.48 0.87 0.13 0.14 0.32 0.36 0.42 0.5 0.1 0.12 0.17 0.19 0.15 0.13l-0.16-0.6c-0.086-0.366-0.135-0.785-0.135-1.216 0-0.398 0.042-0.786 0.121-1.16l-0.006 0.036c0.11-0.4 0.41-1.080 0.48-1.080 0.030 0 0.090 0.16 0.15 0.34zM7.54 20.74c0 0.18 0.030 0.43 0.070 0.56 0.040 0.12 0.060 0.23 0.050 0.25-0.060 0.050-0.6-0.56-0.6-0.69 0-0.060 0.38-0.44 0.45-0.44 0.020 0 0.030 0.15 0.030 0.32zM19.74 21.19c0.3 0.27 0.3 0.3 0.060 0.52-0.16 0.13-0.16 0.13-0.33 0.050-0.19-0.1-0.18-0.030-0.090-0.63 0.010-0.1 0.040-0.19 0.060-0.19s0.15 0.11 0.3 0.25zM21.49 22.67c-0.14 0.45-0.5 1.18-0.64 1.31-0.060 0.060-0.1 0.070-0.14 0.030-0.080-0.080-0.1-0.5-0.040-0.83 0.050-0.3 0.060-0.31 0.3-0.45 0.13-0.070 0.32-0.22 0.42-0.33 0.1-0.1 0.2-0.18 0.21-0.16l-0.1 0.43zM5.95 22.72c0.12 0.37 0.040 1.1-0.13 1.1-0.1 0-0.32-0.55-0.61-1.5 0-0.020 0.14 0.020 0.33 0.1 0.31 0.12 0.36 0.16 0.4 0.3z"></path>
<path fill="#6c757d" d="M9.93 3.52c-0.2 0.1-0.38 0.42-0.38 0.66 0 0.33 0.3 0.62 0.66 0.63 0.12 0 0.5-0.2 0.45-0.25-0.035-0.007-0.074-0.011-0.115-0.011s-0.080 0.004-0.119 0.011l0.004-0.001c-0.17 0.010-0.22 0-0.35-0.11-0.090-0.070-0.15-0.16-0.15-0.2 0-0.030 0.13-0.16 0.28-0.3l0.28-0.25-0.12-0.13c-0.15-0.16-0.22-0.16-0.44-0.040zM11.050 3.73c-0.24 0.19-0.29 0.37-0.13 0.54l0.1 0.13-0.17 0.17c-0.067 0.050-0.123 0.11-0.168 0.177l-0.002 0.003c0 0.090 0.42 0.2 0.6 0.17 0.25-0.040 0.57-0.25 0.63-0.39 0.050-0.13-0.030-0.3-0.2-0.39-0.080-0.050-0.080-0.050 0.080-0.2l0.16-0.14-0.15-0.11c-0.22-0.17-0.5-0.16-0.75 0.040zM8.48 3.73c-0.12 0.13-0.13 0.18-0.030 0.18 0.12 0 0.17 0.18 0.15 0.58l-0.010 0.38 0.13 0.020h0.13v-0.46c0-0.52 0.050-0.65 0.2-0.48 0.060 0.060 0.12 0.1 0.15 0.1 0.050 0 0.28-0.19 0.25-0.2l-0.14-0.12c-0.12-0.11-0.13-0.11-0.27-0.040-0.13 0.070-0.16 0.070-0.29 0-0.17-0.080-0.15-0.080-0.27 0.040zM7.98 3.75c-0.050 0.060-0.080 0.060-0.27 0.010-0.32-0.070-0.53-0.020-0.75 0.2-0.32 0.32-0.3 0.75 0.050 1.010 0.21 0.17 0.4 0.2 0.72 0.1 0.15-0.030 0.2-0.030 0.26 0.030 0.12 0.1 0.16 0.1 0.1-0.010-0.026-0.091-0.041-0.197-0.041-0.305 0-0.016 0-0.031 0.001-0.047l-0 0.002c0-0.15-0.020-0.27-0.050-0.27-0.020 0-0.050 0.060-0.050 0.13 0 0.2-0.24 0.44-0.45 0.44-0.17 0-0.4-0.24-0.43-0.44-0.060-0.42 0.12-0.74 0.44-0.74 0.27 0 0.44 0.18 0.44 0.44 0 0.070 0.030 0.12 0.050 0.12 0.030 0 0.050-0.15 0.050-0.37 0-0.21 0-0.38-0.020-0.38l-0.050 0.080zM10.68 5.12c0 0.040-0.090 0.060-0.28 0.060-0.27 0-0.3 0.010-0.45 0.16-0.1 0.090-0.16 0.2-0.16 0.25 0 0.12 0.16 0.25 0.45 0.36 0.31 0.12 0.4 0.2 0.38 0.37-0.010 0.2-0.2 0.25-0.48 0.16-0.15-0.040-0.21-0.1-0.28-0.25l-0.1-0.18-0.010 0.25c-0.020 0.33 0 0.42 0.1 0.34 0.060-0.040 0.2-0.060 0.4-0.060 0.28 0.010 0.33 0 0.43-0.1 0.070-0.080 0.12-0.2 0.13-0.33 0.020-0.18 0-0.23-0.1-0.33-0.088-0.082-0.201-0.136-0.328-0.15l-0.002-0c-0.121-0.018-0.229-0.060-0.323-0.122l0.003 0.002-0.1-0.080 0.1-0.1c0.15-0.14 0.39-0.13 0.57 0.020l0.15 0.12v-0.16c-0.001-0.080-0.020-0.155-0.051-0.223l0.001 0.003c-0.030-0.050-0.050-0.050-0.050-0.020zM9.19 5.32c-0.060 0.1-0.17 0.23-0.25 0.29-0.12 0.080-0.13 0.1-0.060 0.15 0.050 0.040 0.070 0.16 0.070 0.45 0.010 0.34 0.030 0.4 0.13 0.48 0.15 0.12 0.2 0.11 0.32-0.060 0.1-0.13 0.1-0.14 0.020-0.14-0.14 0-0.19-0.090-0.2-0.4-0.020-0.27-0.020-0.28 0.1-0.3 0.22-0.020 0.33-0.050 0.33-0.1 0-0.020-0.080-0.030-0.19-0.020-0.15 0.030-0.18 0.020-0.2-0.070-0.004-0.026-0.006-0.055-0.006-0.085 0-0.062 0.010-0.123 0.027-0.179l-0.001 0.004c0.060-0.24 0.030-0.24-0.1-0.020zM7.040 5.55c-0.242 0.153-0.4 0.418-0.4 0.721 0 0.010 0 0.020 0.001 0.030l-0-0.001c0 0.2 0.020 0.24 0.16 0.38 0.1 0.1 0.21 0.16 0.34 0.18 0.16 0.020 0.19 0 0.26-0.13 0.080-0.14 0.080-0.14-0.040-0.14-0.188-0.015-0.352-0.109-0.459-0.248l-0.001-0.002c-0.13-0.18-0.070-0.6 0.1-0.66 0.030-0.020 0.12 0.020 0.2 0.080l0.13 0.12 0.1-0.12c0.11-0.1 0.11-0.1 0.030-0.23-0.12-0.15-0.15-0.15-0.41 0.020zM8.040 5.61c-0.23 0.16-0.31 0.32-0.24 0.51 0.050 0.13 0.040 0.17-0.040 0.27-0.12 0.15-0.11 0.26 0.020 0.41l0.11 0.14 0.13-0.1c0.17-0.14 0.23-0.14 0.3 0.020l0.060 0.12 0.16-0.16c0.16-0.15 0.16-0.16 0.070-0.2-0.080-0.030-0.1-0.070-0.1-0.44 0-0.33-0.010-0.43-0.1-0.54-0.11-0.16-0.16-0.17-0.37-0.030zM11.23 5.75c-0.101 0.090-0.182 0.2-0.238 0.324l-0.002 0.006c-0.060 0.22 0.010 0.44 0.17 0.57 0.2 0.17 0.32 0.16 0.45-0.040 0.13-0.19 0.14-0.25 0.040-0.16-0.17 0.14-0.5-0.16-0.5-0.45 0-0.13 0.18-0.24 0.33-0.19 0.040 0.020 0.12 0 0.17-0.050 0.090-0.070 0.090-0.070 0-0.14-0.14-0.1-0.2-0.090-0.42 0.14zM11.96 5.91c-0.1 0.090-0.14 0.16-0.1 0.15s0.1 0 0.15 0.020c0.070 0.030 0.080 0.1 0.080 0.39s0.020 0.35 0.1 0.42c0.1 0.090 0.1 0.090 0.24-0.050l0.14-0.13-0.11-0.030c-0.1-0.020-0.1-0.050-0.13-0.42-0.040-0.58-0.080-0.62-0.37-0.35zM9.77 7.15c-0.020 0.050-0.1 0.2-0.2 0.3-0.13 0.18-0.14 0.22-0.080 0.27 0.040 0.040 0.060 0.15 0.060 0.37 0 0.48 0.2 0.68 0.4 0.39 0.18-0.23 0.2-0.26 0.090-0.2-0.16 0.080-0.25-0.020-0.25-0.29 0-0.22 0-0.23 0.14-0.26 0.18-0.030 0.18-0.1 0-0.1h-0.16l0.040-0.29c0.030-0.28 0.010-0.37-0.040-0.19zM7.3 7.43c-0.38 0.28-0.5 0.63-0.34 0.96 0.1 0.22 0.45 0.5 0.51 0.43 0.16-0.19 0.3-0.4 0.28-0.43-0.020-0.020-0.060 0-0.090 0.020-0.043 0.037-0.099 0.059-0.16 0.060h-0c-0.13 0-0.34-0.17-0.27-0.22l0.33-0.27 0.28-0.23-0.14-0.23c-0.052-0.084-0.112-0.156-0.179-0.219l-0.001-0.001-0.22 0.13zM11.65 7.38c-0.26 0.16-0.32 0.27-0.29 0.47 0.020 0.12 0 0.21-0.040 0.27-0.1 0.12-0.1 0.4 0 0.53l0.070 0.1 0.2-0.11c0.25-0.15 0.28-0.15 0.46-0.020l0.14 0.1 0.15-0.15c0.1-0.1 0.12-0.15 0.060-0.13-0.16 0.060-0.21-0.050-0.21-0.43 0-0.35 0-0.37-0.17-0.54-0.058-0.065-0.124-0.121-0.196-0.168l-0.004-0.002c-0.065 0.021-0.121 0.049-0.173 0.082l0.003-0.002zM8.14 7.5c-0.1 0.12-0.1 0.13-0.030 0.26 0.060 0.1 0.080 0.24 0.080 0.56 0 0.43 0 0.43 0.12 0.43s0.11 0 0.11-0.46c0-0.38 0.020-0.48 0.090-0.54s0.1-0.060 0.16-0.010c0.070 0.050 0.080 0.14 0.080 0.53 0 0.27 0.020 0.5 0.050 0.5 0.030 0.020 0.12-0.030 0.21-0.1 0.1-0.080 0.14-0.13 0.1-0.14s-0.070-0.14-0.1-0.47c-0.020-0.45-0.070-0.63-0.17-0.63-0.081 0.033-0.15 0.077-0.211 0.131l0.001-0.001-0.16 0.11-0.080-0.14c-0.050-0.080-0.1-0.14-0.11-0.14l-0.14 0.12zM10.45 7.55l-0.15 0.15 0.14 0.030c0.14 0.030 0.14 0.030 0.18 0.41 0.030 0.45 0.12 0.55 0.3 0.35 0.1-0.11 0.11-0.12 0.030-0.17-0.060-0.030-0.080-0.11-0.080-0.35 0-0.31-0.1-0.58-0.21-0.58-0.030 0-0.12 0.070-0.2 0.16zM15.32 3.3c-0.020 0.020 0 0.040 0.040 0.040s0.1 0.040 0.13 0.1c0.030 0.080 0.020 0.18-0.070 0.5-0.070 0.21-0.14 0.39-0.15 0.39-0.040 0-0.3-0.6-0.3-0.68 0-0.040 0.040-0.080 0.090-0.1s0.1-0.040 0.1-0.070c0-0.050-0.22-0.080-0.69-0.11-0.33-0.030-0.35-0.020-0.22 0.030 0.1 0.030 0.2 0.12 0.28 0.24 0.13 0.2 0.58 1.22 0.58 1.31 0 0.13 0.1-0.11 0.33-0.8 0.22-0.65 0.26-0.73 0.4-0.81l0.14-0.1h-0.32c-0.17 0-0.33 0.030-0.34 0.050zM17.5 3.48c-0.090 0.14-0.32 0.35-0.43 0.4-0.040 0-0.030 0.030 0.030 0.080s0.1 0.18 0.12 0.5c0.050 0.46 0.15 0.72 0.26 0.72 0.040 0 0.13-0.080 0.2-0.18l0.1-0.18-0.1-0.020c-0.090-0.020-0.1-0.070-0.15-0.4-0.040-0.4-0.020-0.44 0.23-0.45 0.19 0 0.36-0.040 0.36-0.1 0-0.020-0.12-0.040-0.27-0.050l-0.27-0.010v-0.45l-0.090 0.14zM16.060 3.79c-0.15 0.13-0.16 0.16-0.080 0.16 0.2 0 0.26 0.11 0.26 0.48 0 0.29 0.010 0.38 0.1 0.48 0.12 0.16 0.27 0.16 0.4 0l0.1-0.13-0.15-0.1c-0.14-0.1-0.15-0.11-0.16-0.47-0.010-0.3-0.040-0.4-0.12-0.48-0.050-0.060-0.11-0.1-0.14-0.1s-0.11 0.070-0.21 0.16zM18.55 4.080c-0.22 0.17-0.28 0.3-0.18 0.37 0.070 0.050 0.070 0.070-0.020 0.23-0.12 0.19-0.1 0.4 0.030 0.6 0.080 0.13 0.080 0.13 0.2 0.040 0.22-0.15 0.33-0.16 0.43-0.040l0.1 0.1 0.11-0.12c0.14-0.16 0.14-0.2 0.050-0.27-0.050-0.040-0.070-0.16-0.070-0.45v-0.4l-0.15-0.1c-0.2-0.12-0.33-0.11-0.5 0.040zM14.98 5.37c-0.74 0.070-1.15 0.45-1.050 0.98 0.020 0.1 0.070 0.24 0.12 0.3 0.2 0.22 0.65 0.32 1.070 0.22 0.1-0.020 0.18-0.020 0.2 0 0.070 0.11 0.11 0.020 0.11-0.21 0-0.29-0.040-0.33-0.12-0.12-0.12 0.33-0.62 0.34-0.9 0.020-0.17-0.18-0.19-0.29-0.090-0.33 0.070-0.030 0.87 0.060 1.030 0.1 0.070 0.020 0.080 0 0.080-0.13 0-0.090 0-0.17-0.020-0.19s-0.14 0.010-0.27 0.050c-0.13 0.030-0.39 0.060-0.56 0.060h-0.32v-0.14c0-0.17 0.19-0.36 0.43-0.43 0.25-0.080 0.5 0.020 0.6 0.22 0.040 0.090 0.090 0.16 0.11 0.16s0.030-0.14 0.030-0.3-0.010-0.3-0.030-0.3l-0.42 0.040zM16.54 5.55c-0.13 0.14-0.13 0.14-0.23 0.060-0.17-0.16-0.2-0.16-0.44 0.020s-0.34 0.33-0.13 0.19c0.18-0.12 0.33-0.050 0.4 0.2 0.070 0.22 0 0.54-0.16 0.74l-0.090 0.12 0.1-0.050c0.087-0.060 0.16-0.133 0.218-0.217l0.002-0.003 0.13-0.16 0.16 0.17 0.17 0.17 0.36-0.36-0.18-0.090c-0.3-0.14-0.4-0.29-0.39-0.52 0.010-0.060 0.030-0.070 0.1-0.030 0.13 0.070 0.4 0.060 0.47-0.020 0.050-0.060 0.040-0.080-0.050-0.13-0.060-0.020-0.15-0.090-0.2-0.14-0.1-0.090-0.1-0.090-0.24 0.050zM17.59 5.86c-0.27 0.2-0.32 0.29-0.32 0.55 0 0.16 0.030 0.26 0.14 0.4 0.26 0.36 0.43 0.37 0.73 0.070l0.18-0.2-0.15 0.040c-0.45 0.14-0.86-0.36-0.58-0.7 0.090-0.11 0.1-0.11 0.18-0.030 0.1 0.090 0.37 0.1 0.42 0.030 0.030-0.040-0.25-0.32-0.34-0.33-0.020 0-0.15 0.080-0.26 0.17zM18.82 5.94c-0.33 0.25-0.47 0.66-0.32 0.94 0.1 0.2 0.3 0.37 0.42 0.37 0.13 0 0.41-0.26 0.53-0.5 0.047-0.092 0.074-0.201 0.074-0.316 0-0.218-0.098-0.413-0.253-0.543l-0.001-0.001c-0.17-0.13-0.22-0.13-0.45 0.050zM19.050 6.15c0.22 0.15 0.29 0.5 0.14 0.78-0.060 0.12-0.14 0.1-0.31-0.070-0.2-0.21-0.26-0.42-0.17-0.63 0.070-0.18 0.15-0.2 0.34-0.080zM14.010 7.8c0.020 0.87 0.030 0.93 0.16 1 0.090 0.050 0.12 0.040 0.26-0.11s0.15-0.17 0.070-0.17c-0.16 0-0.2-0.15-0.2-0.82v-0.64h-0.3l0.010 0.74zM16.5 7.2c-0.030 0.050-0.13 0.15-0.23 0.22-0.16 0.11-0.17 0.13-0.1 0.2 0.050 0.060 0.060 0.2 0.060 0.5 0 0.36 0.010 0.41 0.12 0.51 0.15 0.15 0.22 0.15 0.37-0.010 0.16-0.16 0.16-0.18 0-0.17-0.15 0-0.2-0.1-0.2-0.51 0-0.27 0-0.27 0.14-0.27 0.17 0 0.18-0.080 0.020-0.12-0.12-0.030-0.13-0.050-0.1-0.24 0.020-0.23 0.010-0.25-0.070-0.11zM15.15 7.51c-0.21 0.2-0.25 0.3-0.19 0.46 0.040 0.090 0.030 0.13-0.020 0.17-0.056 0.067-0.097 0.147-0.119 0.236l-0.001 0.004c-0.040 0.14-0.040 0.2 0.020 0.32 0.1 0.17 0.14 0.18 0.22 0.070 0.040-0.050 0.13-0.12 0.21-0.16 0.14-0.090 0.14-0.090 0.25 0.020l0.11 0.1 0.17-0.19c0.16-0.17 0.17-0.19 0.080-0.2-0.19-0.040-0.22-0.1-0.2-0.44 0-0.28 0-0.33-0.1-0.44-0.15-0.16-0.2-0.15-0.43 0.050zM17.11 7.67l-0.13 0.1 0.13 0.12c0.12 0.11 0.12 0.13 0.1 0.42-0.030 0.26-0.030 0.3 0.070 0.42l0.12 0.13 0.26-0.12c0.15-0.070 0.27-0.1 0.27-0.080 0 0.030 0.040 0.090 0.1 0.14 0.080 0.090 0.1 0.090 0.2 0.020 0.090-0.060 0.11-0.1 0.080-0.13-0.034-0.109-0.053-0.235-0.053-0.365 0-0.030 0.001-0.059 0.003-0.089l-0 0.004c0-0.4 0-0.41-0.14-0.54l-0.14-0.14-0.16 0.15c-0.13 0.13-0.13 0.15-0.050 0.15 0.15 0 0.2 0.1 0.2 0.36 0 0.3-0.080 0.38-0.33 0.3l-0.16-0.030-0.010-0.37c-0.010-0.26-0.040-0.4-0.1-0.46-0.080-0.1-0.1-0.1-0.25 0.020zM18.68 7.9l-0.15 0.11 0.3 0.13v0.95l0.15-0.020 0.15-0.010 0.010-0.45c0.010-0.24 0.040-0.46 0.060-0.49 0.030-0.020 0.1 0 0.19 0.1l0.14 0.13 0.28-0.27-0.18-0.13-0.17-0.13-0.31 0.19-0.1-0.12c-0.12-0.16-0.19-0.16-0.37 0zM13.080 11.38c-0.33 0.1-0.46 0.28-0.17 0.23 0.15-0.020 0.16-0.010 0.16 0.1 0 0.070 0.010 0.16 0.030 0.21 0.030 0.070 0.020 0.080-0.090 0.030-0.070-0.020-0.14-0.040-0.15-0.020-0.040 0.030 0.26 0.17 0.4 0.17 0.12 0 0.81-0.32 0.81-0.38 0-0.040-0.58-0.32-0.73-0.34-0.039-0.007-0.084-0.012-0.13-0.012s-0.091 0.004-0.134 0.012l0.005-0.001z"></path>
</svg>
