<!-- Generated by IcoMoon.io -->
<svg version="1.1" xmlns="http://www.w3.org/2000/svg" width="26" height="32" viewBox="0 0 26 32">
<title>university-of-maryland</title>
<path fill="#6c757d" d="M12.28 31.99c-0.26-0.010-0.32-0.020-0.23-0.040l0.13-0.010h-0.16c-1.375-0.121-2.641-0.47-3.8-1.009l0.070 0.029c-0.25-0.12-0.3-0.15-0.31-0.23l-0.12-0.46c-0.070-0.27-0.11-0.37-0.15-0.38-0.030-0.010-0.27 0.020-0.53 0.070l-0.49 0.090-0.25-0.18c-1.829-1.366-3.304-3.103-4.331-5.107l-0.039-0.083-0.12-0.24 0.16-0.4c0.1-0.22 0.16-0.43 0.15-0.45 0-0.030-0.18-0.1-0.42-0.17l-0.41-0.13-0.090-0.21c-0.703-1.768-1.163-3.813-1.278-5.951l-0.002-0.049-0.010-0.38 0.3-0.32 0.3-0.35c0-0.010-0.12-0.18-0.3-0.36l-0.3-0.33 0.020-0.4c0.1-2.070 0.53-4.030 1.3-6.060l0.060-0.13 0.4-0.13c0.25-0.080 0.42-0.15 0.43-0.18 0.010-0.020-0.060-0.22-0.15-0.45l-0.16-0.4 0.14-0.28c1.057-2.047 2.507-3.752 4.262-5.073l0.038-0.027 0.3-0.23 0.5 0.1 0.53 0.070c0.020 0 0.090-0.18 0.14-0.39l0.12-0.46c0.020-0.080 0.060-0.1 0.33-0.23 1.103-0.538 2.388-0.895 3.744-0.998l0.036-0.002 0.62-0.010c0.42 0 0.7 0 0.63 0.020l-0.15 0.020h0.18c1.354 0.105 2.604 0.44 3.748 0.968l-0.068-0.028 0.37 0.17 0.12 0.46c0.070 0.27 0.14 0.47 0.17 0.48s0.25-0.020 0.52-0.070l0.48-0.090 0.16 0.1c1.62 1.161 2.953 2.615 3.944 4.295l0.036 0.065c0.21 0.35 0.62 1.1 0.62 1.14l-0.17 0.41c-0.1 0.22-0.16 0.42-0.15 0.44 0 0.020 0.2 0.1 0.42 0.16l0.4 0.13 0.060 0.13c0.731 1.802 1.209 3.888 1.328 6.070l0.002 0.050 0.010 0.35-0.3 0.32c-0.17 0.18-0.31 0.34-0.31 0.36s0.14 0.18 0.3 0.36l0.31 0.32-0.020 0.35c-0.123 2.273-0.619 4.397-1.427 6.359l0.047-0.129c-0.020 0.020-0.2 0.080-0.42 0.15-0.21 0.070-0.39 0.14-0.4 0.16s0.060 0.22 0.15 0.45l0.17 0.41-0.16 0.3c-0.565 1.072-1.185 1.996-1.892 2.847l0.021-0.027c-0.35 0.42-1.14 1.22-1.55 1.58-0.31 0.27-1.010 0.8-1.13 0.87-0.040 0.020-0.18 0-0.54-0.060-0.27-0.050-0.5-0.080-0.53-0.070s-0.050 0.1-0.22 0.7l-0.060 0.24-0.3 0.14c-1.091 0.53-2.361 0.887-3.701 0.997l-0.039 0.003c-0.23 0.008-0.442 0.022-0.651 0.043l0.041-0.003c-0.070 0-0.29 0-0.49-0.020zM14 30.66c1.095-0.166 2.081-0.495 2.982-0.965l-0.052 0.025c0.030-0.030 0.090-0.2 0.13-0.37l0.1-0.35s0.2 0.010 0.4 0.050c0.47 0.080 0.4 0.1 0.89-0.26 1.611-1.241 2.912-2.802 3.825-4.594l0.035-0.076 0.15-0.3-0.14-0.36c-0.080-0.19-0.13-0.35-0.13-0.36l0.34-0.12c0.23-0.070 0.34-0.13 0.37-0.17 0.704-1.71 1.164-3.69 1.278-5.763l0.002-0.047 0.020-0.47-0.48-0.5 0.070-0.070c0.030-0.050 0.14-0.16 0.24-0.26l0.17-0.18-0.020-0.47c-0.113-2.123-0.572-4.107-1.324-5.941l0.044 0.121c-0.030-0.050-0.13-0.1-0.37-0.17-0.19-0.060-0.34-0.12-0.34-0.13l0.14-0.37 0.13-0.33-0.15-0.31c-0.768-1.495-1.734-2.77-2.883-3.853l-0.007-0.006c-0.423-0.405-0.887-0.773-1.383-1.098l-0.037-0.022c-0.030-0.020-0.21 0-0.43 0.040-0.2 0.040-0.39 0.060-0.4 0.050l-0.1-0.35-0.12-0.37c-0.878-0.462-1.899-0.799-2.979-0.954l-0.051-0.006c-0.5-0.070-1.9-0.070-2.4 0-1.134 0.142-2.162 0.488-3.083 1.002l0.043-0.022-0.11 0.37-0.1 0.34-0.4-0.060c-0.24-0.040-0.4-0.060-0.43-0.040-0.1 0.030-0.63 0.42-0.96 0.7-1.458 1.24-2.638 2.758-3.465 4.479l-0.035 0.081c0 0.030 0.070 0.2 0.14 0.39 0.070 0.18 0.13 0.33 0.12 0.34l-0.33 0.11c-0.18 0.060-0.34 0.13-0.37 0.16-0.12 0.14-0.6 1.6-0.81 2.5-0.27 1.1-0.46 2.51-0.48 3.52l-0.010 0.28 0.47 0.52-0.47 0.5v0.29c0.101 2.203 0.577 4.268 1.364 6.171l-0.044-0.121 0.35 0.12c0.17 0.050 0.33 0.11 0.33 0.12l-0.12 0.34c-0.043 0.103-0.088 0.233-0.124 0.366l-0.006 0.024c0.934 1.999 2.292 3.661 3.967 4.926l0.033 0.024c0.49 0.37 0.42 0.35 0.88 0.27l0.4-0.060 0.1 0.34c0.050 0.18 0.1 0.35 0.13 0.38 0.967 0.496 2.092 0.849 3.281 0.995l0.049 0.005c0.43 0.050 1.75 0.020 2.18-0.050zM11.73 30c-0.898-0.111-1.716-0.34-2.477-0.672l0.057 0.022c-0.26-0.11-0.27-0.12-0.3-0.24l-0.080-0.28-0.040-0.17 0.16-0.24 0.6-0.86c0.4-0.54 0.46-0.63 0.6-0.7l0.13-0.080h4.66l0.14 0.080c0.13 0.070 0.2 0.16 0.65 0.79l0.6 0.86 0.1 0.15-0.070 0.28-0.090 0.3c-0.722 0.347-1.56 0.609-2.44 0.744l-0.050 0.006c-0.41 0.050-1.72 0.070-2.15 0.010zM7.43 28.28c-1.552-1.156-2.797-2.638-3.648-4.35l-0.032-0.070 0.1-0.31 0.1-0.26h3.050l0.35 0.18 1.9 2.7 0.020 0.52-0.53 0.76c-0.3 0.42-0.56 0.79-0.59 0.81-0.087 0.049-0.188 0.085-0.296 0.099l-0.004 0-0.26 0.030-0.16-0.1zM17.55 28.35l-0.28-0.070-0.57-0.8-0.56-0.8-0.020-0.43 0.17-0.25 0.97-1.4c0.8-1.13 0.82-1.14 0.98-1.23l0.17-0.090h3.050l0.1 0.27c0.070 0.15 0.11 0.29 0.11 0.3-0.861 1.7-2.034 3.125-3.454 4.25l-0.026 0.020c-0.38 0.3-0.34 0.28-0.64 0.22zM10.26 26.040c-0.15-0.080-0.18-0.12-1.1-1.43-0.53-0.74-0.97-1.38-0.99-1.43-0.018-0.068-0.029-0.145-0.029-0.225s0.010-0.157 0.030-0.231l-0.001 0.006 0.99-1.41c0.94-1.33 0.95-1.34 1.1-1.42l0.17-0.080h4.58l0.15 0.080c0.15 0.080 0.2 0.13 1.12 1.45l0.97 1.37v0.5l-0.97 1.37c-0.93 1.31-0.97 1.37-1.12 1.45l-0.15 0.080h-4.6l-0.15-0.080zM3.46 22.52l-0.4-0.13-0.13-0.37c-0.527-1.419-0.881-3.061-0.988-4.77l-0.002-0.050-0.010-0.37 0.46-0.48h4.63l0.16 0.080c0.16 0.080 0.17 0.090 1.13 1.45l0.97 1.37-0.020 0.51-1.91 2.7-0.35 0.19h-3.15l-0.4-0.13zM18.25 22.56c-0.17-0.090-0.18-0.1-1.010-1.27-1.24-1.76-1.12-1.56-1.12-1.8v-0.21l0.97-1.37c0.89-1.26 0.98-1.38 1.12-1.47l0.15-0.1h4.66l0.24 0.25c0.28 0.28 0.26 0.2 0.2 1.030-0.163 1.725-0.546 3.312-1.122 4.802l0.042-0.122c-0.040 0.070-0.090 0.1-0.44 0.22l-0.4 0.13h-3.12l-0.17-0.090zM10.25 19.070c-0.14-0.070-0.22-0.18-1.12-1.45l-0.97-1.37v-0.47l0.97-1.37c0.9-1.27 0.98-1.38 1.11-1.45l0.14-0.080h4.66l0.14 0.080c0.13 0.070 0.22 0.19 1.1 1.44l0.97 1.36v0.52l-0.96 1.35c-0.89 1.25-0.98 1.37-1.1 1.44l-0.15 0.080h-4.65l-0.15-0.080zM2.15 15.44l-0.23-0.25 0.020-0.37c0.080-1.54 0.44-3.28 0.97-4.76l0.15-0.4 0.82-0.28h3.12l0.17 0.090c0.1 0.040 0.2 0.13 0.24 0.18l0.97 1.35 0.9 1.28v0.5l-0.96 1.37c-0.9 1.27-0.98 1.37-1.12 1.44l-0.14 0.080h-4.68l-0.23-0.25zM18.22 15.6c-0.14-0.080-0.23-0.2-1.12-1.46l-0.98-1.38v-0.21c0-0.25-0.12-0.050 1.12-1.8l0.83-1.19 0.36-0.18h3.11l0.4 0.13c0.35 0.12 0.4 0.15 0.44 0.22 0.534 1.369 0.913 2.957 1.065 4.611l0.005 0.069c0.070 0.83 0.090 0.76-0.2 1.040l-0.23 0.23h-4.66l-0.14-0.080zM10.25 12.12c-0.17-0.1-0.2-0.13-1.13-1.45l-0.96-1.37v-0.18c-0.020-0.1 0-0.22 0-0.27s0.47-0.69 1-1.44c0.94-1.33 0.95-1.35 1.1-1.43l0.17-0.080h4.57l0.16 0.1c0.16 0.080 0.2 0.12 1.13 1.44l0.96 1.37v0.5l-0.97 1.36c-0.93 1.32-0.97 1.38-1.12 1.45l-0.15 0.080h-4.6l-0.17-0.090zM3.85 8.49c-0.038-0.087-0.072-0.19-0.097-0.297l-0.003-0.013c0.844-1.713 2.019-3.145 3.453-4.26l0.027-0.020c0.23-0.18 0.35-0.25 0.4-0.25 0.17 0 0.47 0.070 0.52 0.11l0.59 0.81 0.53 0.77-0.010 0.51-1.91 2.7-0.35 0.19h-3.040l-0.1-0.26zM18.23 8.66c-0.15-0.090-0.2-0.14-0.96-1.24l-0.98-1.39-0.17-0.25 0.020-0.43 0.56-0.8 0.57-0.8c0.010-0.020 0.43-0.1 0.51-0.1 0.17 0 0.96 0.66 1.65 1.37 0.882 0.902 1.63 1.94 2.207 3.079l0.033 0.071c0 0.020-0.040 0.16-0.1 0.3l-0.1 0.28h-3.080l-0.16-0.1zM10.28 5.18c-0.18-0.090-0.2-0.1-0.62-0.71-0.25-0.34-0.52-0.73-0.6-0.86l-0.17-0.24 0.040-0.17 0.080-0.28c0.030-0.12 0.040-0.13 0.3-0.24 0.63-0.28 1.44-0.5 2.22-0.63 0.345-0.048 0.744-0.076 1.149-0.076 1.34 0 2.609 0.301 3.744 0.838l-0.053-0.023 0.090 0.3 0.070 0.29-0.1 0.14-0.6 0.86c-0.5 0.7-0.5 0.7-0.69 0.8l-0.18 0.1h-4.5l-0.18-0.1zM0 16.75c0-0.050 0-0.070 0.010-0.050v0.1l-0.010-0.050zM25.4 16.71c0-0.040 0.010-0.040 0.020-0.020v0.060s-0.020-0.010-0.010-0.040zM0 15.28c0-0.060 0-0.080 0.010-0.050v0.1l-0.010-0.050zM25.4 15.32c0-0.030 0.010-0.040 0.020-0.020v0.060s-0.020 0-0.010-0.040z"></path>
</svg>
