<svg xmlns="http://www.w3.org/2000/svg" viewBox="0 0 34 32">
  <path fill="#6c757d" d="M 17.03125 3.980469 L 23.546875 3.980469 L 23.546875 6.632812 L 20.839844 6.632812 L 27.957031 25.300781 L 30.058594 25.300781 L 30.058594 28.046875 L 21.242188 28.046875 L 21.242188 25.375 L 18.765625 25.375 L 18.765625 30.613281 L 32.683594 30.613281 L 32.683594 22.800781 L 29.558594 22.808594 L 24.546875 9.210938 L 26.121094 9.210938 L 26.121094 1.402344 L 7.941406 1.402344 L 7.941406 9.210938 L 9.515625 9.210938 L 4.503906 22.789062 L 1.378906 22.800781 L 1.378906 30.613281 L 15.300781 30.613281 L 15.300781 25.375 L 12.824219 25.375 L 12.824219 28.046875 L 4.003906 28.046875 L 4.003906 25.300781 L 6.109375 25.300781 L 13.222656 6.632812 L 10.515625 6.632812 L 10.515625 3.980469 Z M 17.03125 3.980469"/>
  <path fill="#6c757d" d="M 17.027344 4.003906 L 24.25 23.074219 C 24.25 23.074219 25.175781 25.394531 26.679688 25.394531 L 21.417969 25.394531 C 21.417969 25.394531 21.683594 25.433594 21.945312 24.988281 C 22.097656 24.734375 21.96875 24.351562 21.96875 24.351562 L 20.34375 20.09375 L 13.722656 20.09375 L 12.09375 24.351562 C 12.09375 24.351562 11.96875 24.734375 12.117188 24.988281 C 12.378906 25.433594 12.644531 25.394531 12.644531 25.394531 L 7.382812 25.394531 C 8.886719 25.394531 9.8125 23.074219 9.8125 23.074219 L 17.027344 4.003906 M 17.019531 18.070312 L 19.566406 18.070312 L 17.070312 11.382812 L 14.488281 18.070312 Z M 17.019531 18.070312"/>
</svg>
