<!-- Generated by IcoMoon.io -->
<svg version="1.1" xmlns="http://www.w3.org/2000/svg" width="20" height="32" viewBox="0 0 20 32">
<title>university-of-wisconsin-madison</title>
<path fill="#6c757d" d="M10.020 31.99c-0.020 0-0.030-0.020-0.020-0.030s0-0.020-0.010-0.020c-0.040 0-0.2-0.15-0.32-0.3l-0.11-0.15-0.24-0.060c-1.877-0.567-3.453-1.658-4.606-3.101l-0.014-0.019c-0.8-0.96-1.41-1.9-2.070-3.23-1.47-2.97-2.409-6.444-2.597-10.116l-0.003-0.064-0.030-0.51c-0.005-0.14-0.008-0.304-0.008-0.469 0-0.451 0.021-0.897 0.062-1.337l-0.004 0.056c0.010-0.66 0.18-2.070 0.36-2.96 0.6-3 1.8-5.16 3.5-6.3 0.763-0.532 1.709-0.85 2.73-0.85h0c0.030 0 0.080-0.070 0.14-0.2 0.2-0.42 0.63-0.7 1.25-0.85 0.13-0.020 0.23-0.050 0.24-0.060l0.080-0.17c0.12-0.28 0.27-0.49 0.48-0.7 0.26-0.26 0.52-0.4 0.84-0.47 0.070-0.010 0.12-0.030 0.1-0.040s0.050-0.020 0.14-0.020c0.18-0.020 0.5 0 0.47 0.020l0.15 0.050c0.54 0.13 1.040 0.59 1.28 1.18 0.060 0.14 0.1 0.18 0.15 0.18 0.13 0 0.5 0.12 0.73 0.23 0.2 0.1 0.27 0.15 0.42 0.3 0.14 0.14 0.2 0.21 0.27 0.36 0.050 0.1 0.1 0.19 0.13 0.2l0.22 0.010c0.56 0 1.32 0.2 1.91 0.5 1.73 0.84 3.030 2.67 3.8 5.36 0.391 1.36 0.639 2.93 0.689 4.55l0.001 0.030 0.010 0.84c0.001 0.063 0.002 0.138 0.002 0.212 0 0.323-0.015 0.643-0.045 0.958l0.003-0.040c-0.179 3.883-1.19 7.491-2.858 10.703l0.068-0.143c-0.904 1.797-2.134 3.304-3.624 4.5l-0.026 0.020c-0.864 0.67-1.888 1.181-3.002 1.467l-0.058 0.013-0.16 0.18c-0.070 0.090-0.17 0.19-0.21 0.22l-0.060 0.060c0.030 0-0.060 0.040-0.090 0.030h-0.060zM10.22 31.62c0.25-0.27 0.5-0.77 0.58-1.14 0.040-0.2 0.050-0.54 0.020-0.73-0.020-0.16-0.080-0.25-0.23-0.34-0.32-0.19-0.85-0.16-1.1 0.060-0.13 0.1-0.15 0.18-0.17 0.46-0.030 0.52 0.12 1 0.47 1.51 0.15 0.22 0.2 0.26 0.3 0.26 0.050 0 0.080-0.020 0.14-0.080zM9.35 31.1c-0.009-0.092-0.030-0.177-0.062-0.256l0.002 0.006c-0.079-0.212-0.132-0.457-0.15-0.712l-0-0.008c0-0.17-0.020-0.2-0.15-0.25-0.596-0.23-1.11-0.506-1.584-0.836l0.024 0.016c-0.040 0-0.24 0.2-0.36 0.35-0.13 0.17-0.27 0.4-0.26 0.46 0.704 0.553 1.536 0.982 2.44 1.238l0.050 0.012 0.050-0.020zM11.060 31.060c0.882-0.296 1.647-0.7 2.333-1.206l-0.023 0.016c0.020-0.030-0.080-0.22-0.2-0.38-0.114-0.17-0.253-0.313-0.415-0.427l-0.005-0.003c-0.49 0.336-1.051 0.629-1.646 0.852l-0.054 0.018c-0.019 0.059-0.030 0.126-0.030 0.197 0 0.008 0 0.016 0 0.025l-0-0.001c-0.020 0.26-0.070 0.47-0.15 0.7-0.1 0.3-0.1 0.3 0.2 0.21zM6.78 29.67c0.1-0.17 0.26-0.38 0.4-0.52 0.070-0.070 0.12-0.13 0.12-0.15s-0.090-0.1-0.2-0.2c-0.48-0.36-1.2-1.050-1.64-1.58-0.695-0.836-1.317-1.778-1.83-2.784l-0.040-0.086-0.040-0.050-0.17 0.050c-0.1 0.020-0.28 0.1-0.42 0.16-0.21 0.1-0.24 0.13-0.24 0.17 0.605 1.289 1.316 2.401 2.151 3.406l-0.021-0.026c0.29 0.36 1 1.080 1.3 1.33 0.29 0.25 0.5 0.41 0.54 0.41l0.1-0.12zM13.77 29.59c1.556-1.305 2.797-2.933 3.626-4.786l0.034-0.084c0-0.080-0.44-0.3-0.72-0.37-0.090-0.030-0.11-0.030-0.14 0l-0.2 0.36c-0.868 1.701-2.046 3.126-3.473 4.25l-0.027 0.020 0.13 0.17c0.17 0.18 0.29 0.33 0.38 0.5 0.050 0.090 0.090 0.13 0.11 0.13s0.15-0.090 0.28-0.2zM9.15 29.69c0.070-0.25 0.18-0.38 0.39-0.48 0.35-0.15 0.73-0.15 1.070 0 0.22 0.1 0.34 0.24 0.38 0.43 0.010 0.060 0.030 0.070 0.070 0.070 0.523-0.171 0.978-0.409 1.383-0.709l-0.013 0.009c0-0.030-0.060-0.1-0.13-0.15-0.2-0.16-0.57-0.56-0.73-0.76-0.16-0.22-0.3-0.44-0.39-0.66-0.040-0.090-0.080-0.17-0.1-0.17s-0.13 0.050-0.24 0.12c-0.26 0.15-0.7 0.36-0.76 0.36s-0.57-0.25-0.78-0.37c-0.054-0.040-0.117-0.071-0.186-0.089l-0.004-0.001c-0.020 0-0.060 0.060-0.1 0.16-0.090 0.2-0.22 0.41-0.4 0.66-0.16 0.22-0.55 0.62-0.74 0.77-0.11 0.090-0.14 0.13-0.12 0.16s0.44 0.28 0.71 0.41c0.47 0.23 0.67 0.3 0.69 0.23zM7.8 28.82c0.48-0.4 0.89-0.9 1.1-1.35 0.13-0.27 0.13-0.27-0.15-0.48-0.92-0.67-1.96-1.9-2.77-3.25-0.1-0.17-0.15-0.24-0.18-0.24-0.055 0.020-0.102 0.051-0.14 0.090l-0 0c-0.502 0.399-1.109 0.686-1.774 0.816l-0.026 0.004c0.77 1.612 1.826 2.971 3.113 4.066l0.017 0.014c0.28 0.23 0.6 0.46 0.63 0.46l0.18-0.13zM12.79 28.79c1.24-0.89 2.4-2.27 3.37-4.040 0.16-0.3 0.17-0.35 0.080-0.37-0.342-0.084-0.632-0.18-0.912-0.295l0.042 0.015c-0.306-0.121-0.569-0.273-0.808-0.456l0.008 0.006c-0.1-0.080-0.2-0.15-0.22-0.15s-0.1 0.12-0.19 0.27c-0.38 0.63-0.86 1.3-1.3 1.83-0.42 0.5-1.040 1.1-1.5 1.45-0.16 0.11-0.17 0.12-0.15 0.19 0.281 0.702 0.747 1.281 1.338 1.692l0.012 0.008c0.020 0 0.12-0.070 0.23-0.15zM8.67 24.83l0.65-4.17 0.64-4.16 0.81 4.1 0.82 4.18 0.020 0.070h0.2c0.12 0 0.19-0.010 0.2-0.030 0.020-0.020 0.63-2.74 1.36-6.060 0.89-4.030 1.35-6.060 1.37-6.090 0.070-0.1 0.14-0.13 0.3-0.15l0.17-0.010v-0.74h-2.1v0.74l0.16-0.010c0.29-0.010 0.41 0.090 0.42 0.34 0 0.12-1.58 7-1.6 6.97l-0.96-4.51c-0.7-3.34-0.95-4.51-0.98-4.54-0.060-0.060-0.34-0.050-0.37 0.010l-0.7 4.47-0.7 4.44-0.8-3.38c-0.83-3.57-0.81-3.5-0.73-3.66 0.060-0.11 0.14-0.15 0.3-0.15 0.1 0 0.14-0.010 0.15-0.040 0.030-0.040 0.030-0.6 0-0.65-0.020-0.040-0.050-0.040-1.16-0.040-0.95 0-1.15 0-1.17 0.030-0.020 0.020-0.020 0.13-0.020 0.35v0.32l0.14 0.050c0.17 0.060 0.23 0.1 0.27 0.19 0.020 0.040 0.67 2.77 1.44 6.080l1.42 6.040c0.020 0.030 0.43 0.040 0.45 0.010zM17.65 24.29c1.409-3.049 2.23-6.617 2.23-10.377 0-0.025-0-0.051-0-0.077v0.004c0-1.3-0.020-1.77-0.090-1.81-0.060-0.050-0.45 0.020-0.7 0.1l-0.14 0.050 0.010 0.42c0.019 0.356 0.029 0.772 0.029 1.191 0 3.648-0.811 7.107-2.262 10.206l0.062-0.148c-0.11 0.24-0.15 0.34-0.13 0.36 0.010 0.020 0.090 0.060 0.17 0.080 0.17 0.050 0.44 0.18 0.54 0.25 0.12 0.080 0.14 0.060 0.28-0.25zM2.94 24.42l0.4-0.16c0.11-0.030 0.15-0.050 0.15-0.080-0.498-1.005-0.958-2.193-1.312-3.426l-0.038-0.154c-0.61-2.078-0.961-4.465-0.961-6.933 0-0.361 0.008-0.72 0.022-1.078l-0.002 0.051c0.020-0.3 0.020-0.42 0-0.44-0.070-0.090-0.8-0.23-0.85-0.17-0.048 0.579-0.076 1.254-0.076 1.935 0 1.414 0.118 2.801 0.346 4.151l-0.020-0.146c0.33 1.99 0.88 3.93 1.63 5.69 0.22 0.54 0.4 0.88 0.43 0.88l0.28-0.11zM4.060 24.25c0.47-0.12 0.95-0.32 1.26-0.52 0.22-0.14 0.43-0.31 0.43-0.36l-0.12-0.25c-0.060-0.12-0.23-0.41-0.35-0.66-0.13-0.25-0.24-0.45-0.26-0.45s-0.050 0.050-0.1 0.1c-0.076 0.132-0.19 0.236-0.326 0.298l-0.004 0.002c-0.32 0.15-0.57 0.12-0.77-0.090-0.091-0.085-0.149-0.206-0.15-0.34v-0c0-0.27 0.24-0.52 0.46-0.48 0.11 0.020 0.24 0.14 0.23 0.2-0.010 0.080-0.070 0.090-0.15 0.020-0.050-0.040-0.090-0.050-0.13-0.040-0.18 0.040-0.25 0.3-0.12 0.47 0.21 0.28 0.74 0.1 0.85-0.29 0.080-0.28-0.060-0.57-0.34-0.72-0.11-0.060-0.14-0.070-0.35-0.070-0.2 0-0.23 0-0.35 0.070-0.16 0.080-0.36 0.27-0.43 0.41-0.21 0.41-0.18 1.090 0.080 1.9 0.13 0.37 0.28 0.75 0.34 0.83 0.030 0.040 0.070 0.030 0.3-0.030zM16.49 24.1c0.12-0.26 0.31-0.84 0.38-1.16 0.1-0.44 0.11-0.88 0.040-1.17-0.074-0.278-0.259-0.503-0.504-0.627l-0.006-0.003c-0.090-0.051-0.197-0.081-0.311-0.081-0.010 0-0.020 0-0.030 0.001l0.001-0c-0.17 0-0.2 0-0.3 0.050-0.15 0.068-0.272 0.174-0.358 0.307l-0.002 0.003c-0.050 0.1-0.060 0.13-0.060 0.28 0 0.19 0.020 0.25 0.15 0.39 0.080 0.1 0.3 0.2 0.41 0.2 0.050 0 0.13-0.020 0.18-0.040 0.23-0.12 0.26-0.46 0.040-0.56-0.050-0.030-0.070-0.030-0.13 0l-0.080 0.060c0 0.010-0.020 0.020-0.050 0.020-0.070-0.010-0.070-0.11 0-0.18 0.13-0.13 0.34-0.12 0.49 0.030 0.15 0.16 0.18 0.36 0.1 0.55-0.087 0.195-0.28 0.329-0.503 0.329-0.034 0-0.068-0.003-0.1-0.009l0.003 0c-0.259-0.041-0.478-0.184-0.618-0.387l-0.002-0.003c-0.030-0.050-0.070-0.090-0.090-0.090s-0.1 0.15-0.2 0.35c-0.223 0.466-0.397 0.797-0.578 1.123l0.058-0.113c0 0.1 0.38 0.36 0.77 0.55 0.27 0.13 0.52 0.23 0.85 0.32 0.35 0.1 0.33 0.1 0.45-0.14zM3 22.2c0-0.28 0.050-0.5 0.16-0.73 0.16-0.35 0.45-0.55 0.84-0.6 0.16-0.030 0.22-0.020 0.51 0.050 0.040 0.010 0.050 0 0.050-0.020l-0.14-0.46c-0.485-1.426-0.792-3.072-0.849-4.782l-0.001-0.028-0.020-0.47-0.070-0.1c-0.085-0.141-0.208-0.251-0.355-0.318l-0.005-0.002c-0.134-0.066-0.292-0.105-0.459-0.105-0.035 0-0.070 0.002-0.105 0.005l0.004-0c-0.47 0.030-0.84 0.26-1.040 0.67-0.1 0.2-0.1 0.25-0.040 0.82 0.21 2.1 0.64 4.040 1.32 5.93 0.16 0.43 0.2 0.46 0.2 0.13zM2.58 20.25l-0.060-0.18 0.040-0.1c0.070-0.143 0.185-0.254 0.326-0.318l0.004-0.002c0.2-0.1 0.36-0.13 0.58-0.12 0.25 0.020 0.27 0.030 0.36 0.26l0.080 0.21-0.1-0.070c-0.1-0.12-0.2-0.14-0.46-0.12-0.185 0.005-0.355 0.068-0.492 0.172l0.002-0.002c-0.15 0.11-0.2 0.18-0.2 0.33l-0.020 0.13-0.060-0.19zM2.25 18.88c-0.014-0.054-0.022-0.116-0.022-0.179 0-0.018 0.001-0.036 0.002-0.053l-0 0.002c0.040-0.14 0.27-0.34 0.48-0.4 0.050-0.020 0.2-0.030 0.33-0.030 0.2 0 0.27 0 0.34 0.040 0.080 0.040 0.090 0.060 0.15 0.24l0.070 0.22c0 0.020-0.040-0.010-0.1-0.080-0.080-0.1-0.1-0.11-0.22-0.13-0.2-0.050-0.47-0.020-0.63 0.060-0.23 0.11-0.32 0.22-0.32 0.37 0 0.060 0 0.1-0.020 0.1s-0.040-0.070-0.060-0.16zM2 17.68l-0.030-0.22-0.020-0.15 0.14-0.13c0.1-0.1 0.18-0.15 0.28-0.19 0.26-0.1 0.79-0.060 0.88 0.050 0.030 0.030 0.12 0.43 0.1 0.44l-0.070-0.090c-0.090-0.13-0.17-0.16-0.43-0.18-0.030-0.004-0.065-0.006-0.1-0.006-0.174 0-0.336 0.051-0.473 0.138l0.004-0.002c-0.14 0.1-0.2 0.17-0.23 0.3l-0.040 0.11-0.020-0.070zM1.85 16.38l-0.030-0.22-0.010-0.13 0.1-0.11c0.19-0.22 0.5-0.31 0.84-0.27 0.2 0.030 0.34 0.080 0.39 0.13 0.040 0.040 0.13 0.46 0.1 0.46l-0.080-0.1c-0.1-0.16-0.2-0.2-0.55-0.2-0.26 0-0.28 0-0.41 0.070-0.15 0.070-0.28 0.19-0.28 0.25l-0.030 0.12-0.030 0.080-0.010-0.080zM17.27 22.28c0.699-1.869 1.205-4.040 1.422-6.295l0.008-0.105c0.030-0.35 0.030-0.4-0.070-0.61-0.23-0.46-0.82-0.72-1.36-0.61-0.257 0.056-0.469 0.213-0.598 0.426l-0.002 0.004c-0.060 0.1-0.070 0.14-0.070 0.33-0.049 1.886-0.386 3.677-0.967 5.354l0.037-0.124c-0.080 0.22-0.080 0.29-0.010 0.27l0.19-0.050c0.3-0.070 0.7 0.050 0.95 0.3 0.23 0.23 0.34 0.53 0.36 0.95 0.020 0.3 0.040 0.33 0.12 0.16zM17.51 20.3v-0.13l-0.12-0.13c-0.144-0.142-0.342-0.23-0.56-0.23h-0c-0.28-0.020-0.36 0-0.47 0.12-0.028 0.031-0.061 0.058-0.098 0.079l-0.002 0.001s0.13-0.36 0.17-0.4c0.1-0.12 0.6-0.1 0.85 0.020 0.13 0.070 0.28 0.22 0.33 0.33l0.050 0.1-0.050 0.18c-0.080 0.22-0.1 0.23-0.1 0.060zM17.85 19c-0.006-0.034-0.010-0.074-0.010-0.114 0-0.002 0-0.004 0-0.007v0c0-0.080-0.080-0.17-0.21-0.26-0.149-0.085-0.328-0.136-0.519-0.136-0.082 0-0.162 0.009-0.238 0.027l0.007-0.001c-0.1 0.020-0.13 0.040-0.22 0.14l-0.1 0.1 0.040-0.13c0.090-0.3 0.1-0.32 0.2-0.36 0.2-0.080 0.56-0.070 0.8 0.030 0.1 0.050 0.27 0.2 0.33 0.3 0.040 0.1 0.040 0.1 0 0.27l-0.060 0.19-0.020-0.050zM18.13 17.66c-0.010-0.049-0.024-0.093-0.042-0.134l0.002 0.004c-0.077-0.104-0.178-0.186-0.295-0.238l-0.005-0.002c-0.13-0.070-0.14-0.070-0.4-0.070-0.35 0-0.43 0.040-0.55 0.25-0.040 0.070-0.030 0 0.010-0.2 0.040-0.14 0.070-0.22 0.1-0.24 0.14-0.11 0.6-0.13 0.85-0.040 0.16 0.060 0.3 0.18 0.37 0.29 0.050 0.090 0.050 0.1 0.030 0.27-0.010 0.1-0.030 0.18-0.040 0.19s-0.020-0.030-0.030-0.080zM18.32 16.46l-0.060-0.16c-0.040-0.13-0.050-0.15-0.18-0.23-0.17-0.11-0.31-0.15-0.59-0.13-0.3 0.020-0.4 0.060-0.49 0.2-0.040 0.060-0.070 0.1-0.070 0.080 0-0.070 0.070-0.4 0.090-0.43 0.030-0.040 0.25-0.11 0.4-0.14 0.2-0.030 0.43 0 0.6 0.090 0.15 0.060 0.3 0.21 0.33 0.3 0.001 0.018 0.001 0.039 0.001 0.060 0 0.124-0.011 0.245-0.033 0.362l0.002-0.012zM1.62 14.85c0.5-0.49 1.3-0.56 1.79-0.16 0.12 0.1 0.15 0.1 0.15-0.1 0-0.22 0.040-0.7 0.090-1.1 0.020-0.2 0.040-0.36 0.030-0.37l-0.26-0.040c-0.675-0.079-1.29-0.255-1.858-0.516l0.038 0.016c-0.16-0.090-0.2-0.080-0.22 0.020s-0.020 2.27 0 2.34c0.010 0.040 0.030 0.060 0.050 0.060s0.1-0.070 0.19-0.15zM18.77 14.86c0.020-0.16 0.020-1.98 0-2.18-0.010-0.15-0.020-0.15-0.070-0.15-0.030 0-0.18 0.060-0.33 0.12-0.48 0.2-1.030 0.35-1.6 0.43l-0.29 0.030v0.1l0.040 0.39 0.070 0.73c0.020 0.34 0.030 0.44 0.050 0.44s0.070-0.040 0.12-0.080c0.21-0.17 0.47-0.25 0.76-0.25 0.4 0 0.74 0.13 1.020 0.4 0.1 0.090 0.18 0.16 0.2 0.16s0.020-0.070 0.030-0.14zM3.72 12.97l0.080-0.38c0.2-1.134 0.627-2.142 1.236-3.014l-0.016 0.024c0.2-0.26 0.54-0.61 0.75-0.78 0.080-0.060 0.15-0.13 0.15-0.15s-0.1-0.1-0.29-0.21c-0.951-0.543-1.722-1.301-2.264-2.212l-0.016-0.028c-0.080 0-0.42 0.53-0.71 1.13-0.72 1.467-1.161 3.186-1.21 5.003l-0 0.017c0.020 0.050 0.31 0.19 0.66 0.31 0.64 0.24 1.57 0.4 1.63 0.3zM16.84 12.98c0.626-0.089 1.192-0.257 1.72-0.496l-0.040 0.016 0.23-0.11-0.010-0.22c-0.13-1.94-0.67-3.91-1.45-5.26-0.134-0.263-0.291-0.49-0.473-0.693l0.003 0.003c-0.55 0.923-1.312 1.669-2.22 2.184l-0.030 0.016-0.34 0.24c1.074 0.917 1.824 2.184 2.075 3.623l0.005 0.037 0.1 0.49c0.040 0.23 0.020 0.23 0.42 0.17zM1.22 12.060l0.070-0.47c0.164-2.145 0.85-4.101 1.93-5.779l-0.030 0.049c0.030-0.1-0.59-0.61-0.74-0.61-0.080 0-0.47 0.63-0.78 1.28-0.23 0.49-0.37 0.83-0.56 1.41-0.374 1.118-0.64 2.418-0.746 3.762l-0.004 0.058-0.010 0.14 0.25 0.040c0.14 0.020 0.32 0.060 0.41 0.090 0.2 0.060 0.19 0.060 0.21 0.030zM19.55 11.93l0.24-0.030 0.010-0.090c-0.107-1.673-0.464-3.233-1.036-4.684l0.036 0.104c-0.23-0.58-0.63-1.36-0.94-1.83-0.080-0.11-0.12-0.15-0.16-0.15-0.12 0-0.73 0.48-0.73 0.59l0.1 0.2c0.4 0.58 0.81 1.41 1.1 2.22 0.35 1.050 0.6 2.22 0.72 3.45 0.010 0.19 0.040 0.34 0.050 0.35s0.1 0 0.2-0.040l0.4-0.090zM14.45 8.4c0.88-0.54 1.6-1.2 2.020-1.83 0.070-0.12 0.17-0.28 0.2-0.36l0.070-0.14-0.1-0.12c-0.14-0.2-0.56-0.62-0.78-0.8-0.548-0.464-1.242-0.772-2.005-0.849l-0.015-0.001c-0.3-0.030-0.55-0.010-0.76 0.060-0.3 0.1-0.5 0.27-0.65 0.58-0.25 0.5-0.19 1.36 0.15 1.87 0.2 0.32 0.43 0.47 0.7 0.45 0.36-0.030 0.6-0.5 0.6-1.17 0-0.46-0.13-0.8-0.37-0.96-0.17-0.11-0.4-0.030-0.51 0.18-0.1 0.17-0.12 0.52-0.040 0.78 0.050 0.15 0.17 0.29 0.27 0.29 0.050 0 0.080-0.020 0.11-0.070 0.040-0.060 0.040-0.1 0.040-0.26 0-0.15-0.020-0.2-0.060-0.25-0.060-0.090-0.050-0.15 0.010-0.16 0.14-0.010 0.24 0.24 0.22 0.54-0.030 0.54-0.27 0.75-0.53 0.47-0.22-0.24-0.33-0.75-0.26-1.18 0.060-0.35 0.2-0.56 0.4-0.66 0.14-0.080 0.27-0.080 0.4 0 0.51 0.3 0.67 1.53 0.3 2.3-0.1 0.2-0.2 0.33-0.34 0.4-0.1 0.050-0.12 0.050-0.65 0.050-0.35 0-0.6-0.010-0.7-0.030-0.549-0.063-1.030-0.311-1.39-0.68l-0-0c-0.142-0.184-0.252-0.401-0.317-0.637l-0.003-0.013c-0.035-0.132-0.055-0.284-0.055-0.44 0-0.046 0.002-0.091 0.005-0.136l-0 0.006c-0-0.018-0.001-0.039-0.001-0.061 0-0.69 0.221-1.329 0.597-1.849l-0.006 0.009c0.16-0.22 0.5-0.54 0.7-0.67s0.21-0.17 0.060-0.24c-0.061-0.033-0.134-0.052-0.212-0.052-0.014 0-0.027 0.001-0.040 0.002l0.002-0c-0.203 0.007-0.387 0.081-0.531 0.201l0.001-0.001c-0.3 0.2-0.7 0.7-0.81 0.99-0.060 0.16-0.1 0.16-0.17-0.010-0.16-0.4-0.64-0.91-1.030-1.1-0.1-0.048-0.217-0.076-0.34-0.076-0.056 0-0.112 0.006-0.165 0.017l0.005-0.001c-0.090 0.020-0.2 0.1-0.2 0.13l0.2 0.14c0.24 0.16 0.58 0.5 0.74 0.75 0.5 0.74 0.69 1.8 0.45 2.51-0.1 0.28-0.17 0.41-0.39 0.62-0.2 0.2-0.37 0.31-0.63 0.41-0.42 0.17-0.82 0.23-1.44 0.21-0.4 0-0.46-0.010-0.54-0.050-0.53-0.24-0.75-1.55-0.38-2.31 0.077-0.17 0.197-0.31 0.346-0.408l0.004-0.002c0.23-0.11 0.5 0.020 0.65 0.31 0.29 0.56 0.070 1.6-0.34 1.68-0.060 0.010-0.080 0-0.15-0.070-0.22-0.22-0.25-0.85-0.050-1.030 0.1-0.1 0.17 0.020 0.080 0.14-0.040 0.050-0.050 0.090-0.050 0.24 0 0.22 0.050 0.32 0.15 0.32s0.18-0.070 0.25-0.21c0.050-0.1 0.060-0.16 0.070-0.36 0.010-0.38-0.070-0.58-0.26-0.68-0.13-0.060-0.23-0.060-0.33 0-0.25 0.17-0.37 0.49-0.37 0.98 0 0.34 0.050 0.57 0.15 0.78 0.13 0.26 0.28 0.38 0.5 0.38 0.4 0 0.77-0.46 0.9-1.1 0.060-0.25 0.060-0.74 0-0.94-0.077-0.351-0.297-0.639-0.594-0.807l-0.006-0.003c-0.18-0.1-0.34-0.13-0.66-0.12-0.88 0-1.7 0.34-2.47 1.030-0.26 0.23-0.67 0.7-0.67 0.76s0.13 0.3 0.28 0.53c0.34 0.5 0.84 0.99 1.49 1.45 0.3 0.21 0.8 0.52 0.84 0.52l0.32-0.14c0.61-0.3 1.14-0.42 1.79-0.4 0.42 0.010 0.6 0.040 1.27 0.21 0.66 0.17 0.67 0.17 1.3 0l0.7-0.15c0.3-0.060 0.85-0.080 1.13-0.040 0.45 0.050 0.99 0.22 1.38 0.44 0.1 0.050 0.19 0.090 0.2 0.080l0.32-0.18zM8.030 7.17c0.477-0.035 0.898-0.251 1.199-0.579l0.001-0.001c0.22-0.3 0.3-0.56 0.3-1 0.020-1.080-0.6-2.090-1.53-2.54-0.391-0.174-0.847-0.276-1.327-0.276-0.114 0-0.226 0.006-0.337 0.017l0.014-0.001c-1.323 0.111-2.482 0.733-3.295 1.664l-0.005 0.006c-0.25 0.28-0.51 0.61-0.51 0.66 0 0.020 0.060 0.070 0.16 0.14 0.1 0.060 0.25 0.19 0.36 0.28s0.2 0.18 0.22 0.18c0.020 0 0.070-0.050 0.12-0.11 0.609-0.805 1.473-1.389 2.47-1.634l0.030-0.006c0.31-0.060 0.84-0.080 1.050-0.030 0.43 0.1 0.76 0.36 0.96 0.78 0.24 0.49 0.27 1.070 0.090 1.66-0.070 0.2-0.18 0.43-0.29 0.58-0.080 0.12-0.090 0.18-0.030 0.21 0.050 0.030 0.12 0.030 0.36 0zM12.47 7.18c0.080-0.020 0.080-0.080-0.020-0.22-0.56-0.83-0.52-2.030 0.090-2.64 0.17-0.17 0.33-0.27 0.58-0.36 0.17-0.060 0.81-0.060 1.1 0 0.57 0.11 1.13 0.37 1.63 0.75 0.383 0.304 0.721 0.635 1.021 0.999l0.009 0.011c0.020 0 0.1-0.070 0.2-0.16 0.15-0.13 0.33-0.27 0.53-0.39 0.060-0.030 0.030-0.080-0.2-0.37-0.664-0.861-1.568-1.507-2.612-1.84l-0.038-0.010c-0.361-0.107-0.776-0.169-1.205-0.169-0.274 0-0.542 0.025-0.802 0.073l0.027-0.004c-1.237 0.263-2.151 1.347-2.151 2.644 0 0.030 0.001 0.061 0.002 0.091l-0-0.004c0 0.35 0 0.38 0.060 0.55 0.030 0.1 0.080 0.22 0.12 0.28 0.15 0.26 0.45 0.5 0.77 0.63 0.28 0.1 0.74 0.18 0.89 0.14zM10.22 3.47c0.42-0.73 1-1.12 1.52-1.040 0.18 0.030 0.39 0.12 0.5 0.22l0.090 0.080 0.13-0.040 0.38-0.080c0.104-0.013 0.199-0.041 0.286-0.082l-0.006 0.002c0.050-0.050-0.070-0.25-0.27-0.45-0.15-0.15-0.21-0.2-0.4-0.29-0.209-0.113-0.455-0.183-0.718-0.19l-0.002-0c-0.37-0.020-0.68 0.060-0.97 0.25-0.26 0.18-0.48 0.45-0.6 0.75l-0.080 0.14-0.060-0.1c-0.094-0.219-0.215-0.407-0.362-0.572l0.002 0.002c-0.2-0.2-0.44-0.35-0.71-0.42-0.21-0.060-0.67-0.060-0.9 0s-0.5 0.2-0.66 0.34c-0.15 0.13-0.34 0.38-0.36 0.49-0.010 0.070-0.010 0.070 0.21 0.1l0.37 0.090 0.23 0.060 0.1-0.080c0.168-0.139 0.385-0.223 0.622-0.223 0.027 0 0.054 0.001 0.081 0.003l-0.004-0c0.17 0.010 0.37 0.090 0.54 0.18 0.24 0.15 0.55 0.5 0.77 0.87 0.11 0.2 0.15 0.2 0.27-0.010zM10.18 2.27c0.16-0.27 0.38-0.48 0.68-0.64 0.2-0.1 0.2-0.13 0.060-0.21-0.090-0.050-0.13-0.050-0.28-0.050-0.22 0-0.35 0.050-0.48 0.18l-0.080 0.090-0.1-0.1c-0.119-0.108-0.276-0.176-0.449-0.18h-0.001c-0.2 0-0.43 0.1-0.4 0.17 0 0.020 0.1 0.070 0.19 0.12 0.21 0.1 0.47 0.34 0.61 0.56 0.13 0.2 0.17 0.2 0.25 0.060zM9 1.37c0.152-0.167 0.371-0.271 0.614-0.271 0.122 0 0.237 0.026 0.342 0.073l-0.005-0.002c0.13 0.050 0.14 0.050 0.22 0.010 0.34-0.15 0.7-0.090 0.96 0.17l0.11 0.12 0.15-0.030c0.059-0.005 0.113-0.019 0.163-0.041l-0.003 0.001c0.050-0.050-0.18-0.5-0.37-0.72-0.279-0.293-0.673-0.475-1.108-0.475-0.244 0-0.476 0.057-0.681 0.159l0.009-0.004c-0.32 0.16-0.66 0.56-0.77 0.9-0.040 0.14-0.030 0.15 0.1 0.18 0.16 0.030 0.18 0.030 0.27-0.070z"></path>
</svg>
