<!-- Generated by IcoMoon.io -->
<svg version="1.1" xmlns="http://www.w3.org/2000/svg" width="32" height="32" viewBox="0 0 32 32">
<path fill="#6c757d" d="M25.143 16.571v5.714c0 2.84-2.303 5.143-5.143 5.143v0h-14.857c-2.84 0-5.143-2.303-5.143-5.143v0-14.857c0-2.84 2.303-5.143 5.143-5.143v0h12.571c0.32 0 0.571 0.251 0.571 0.571v1.143c0 0.316-0.256 0.571-0.571 0.571v0h-12.571c-1.578 0-2.857 1.279-2.857 2.857v0 14.857c0 1.578 1.279 2.857 2.857 2.857v0h14.857c1.578 0 2.857-1.279 2.857-2.857v0-5.714c0-0.32 0.251-0.571 0.571-0.571h1.143c0.32 0 0.571 0.251 0.571 0.571zM32 1.143v9.143c0 0.631-0.512 1.143-1.143 1.143v0c-0.314-0.003-0.597-0.134-0.8-0.343l-3.143-3.143-11.646 11.646c-0.114 0.114-0.263 0.183-0.411 0.183s-0.297-0.080-0.411-0.183l-2.034-2.034c-0.114-0.114-0.171-0.263-0.171-0.411s0.069-0.309 0.171-0.411l11.646-11.646-3.143-3.143c-0.208-0.204-0.338-0.486-0.343-0.799v-0.001c0-0.631 0.512-1.143 1.143-1.143v0h9.143c0.631 0 1.143 0.512 1.143 1.143v0z"></path>
</svg>
