<svg xmlns="http://www.w3.org/2000/svg" viewBox="0 0 20 32">
  <path fill="#6c757d" d="M10.02 31.99c-.02 0-.03-.02-.02-.03s0-.02-.01-.02c-.04 0-.2-.15-.32-.3l-.11-.15-.24-.06a9.25 9.25 0 0 1-4.62-3.12c-.8-.96-1.41-1.9-2.07-3.23A26.41 26.41 0 0 1 .03 14.9L0 14.39a14.24 14.24 0 0 1 .05-1.75c.01-.66.18-2.07.36-2.96.6-3 1.8-5.16 3.5-6.3a4.81 4.81 0 0 1 2.73-.85c.03 0 .08-.07.14-.2.2-.42.63-.7 1.25-.85.13-.02.23-.05.24-.06l.08-.17c.12-.28.27-.49.48-.7.26-.26.52-.4.84-.47.07-.01.12-.03.1-.04s.05-.02.14-.02c.18-.02.5 0 .47.02l.15.05c.54.13 1.04.59 1.28 1.18.06.14.1.18.15.18.13 0 .5.12.73.23.2.1.27.15.42.3.14.14.2.21.27.36.05.1.1.19.13.2l.22.01c.56 0 1.32.2 1.91.5 1.73.84 3.03 2.67 3.8 5.36a19.4 19.4 0 0 1 .69 4.58l.01.84a9.99 9.99 0 0 1-.04 1.13 25.77 25.77 0 0 1-2.79 10.56 13.4 13.4 0 0 1-3.65 4.52 8.33 8.33 0 0 1-3.06 1.48l-.16.18c-.07.09-.17.19-.21.22l-.06.06c.03 0-.06.04-.09.03h-.06zm.2-.37c.25-.27.5-.77.58-1.14.04-.2.05-.54.02-.73-.02-.16-.08-.25-.23-.34-.32-.19-.85-.16-1.1.06-.13.1-.15.18-.17.46-.03.52.12 1 .47 1.51.15.22.2.26.3.26.05 0 .08-.02.14-.08zm-.87-.52a.93.93 0 0 0-.06-.25 2.63 2.63 0 0 1-.15-.72c0-.17-.02-.2-.15-.25a7.38 7.38 0 0 1-1.56-.82c-.04 0-.24.2-.36.35-.13.17-.27.4-.26.46a7.14 7.14 0 0 0 2.49 1.25l.05-.02zm1.71-.04a8.35 8.35 0 0 0 2.31-1.19c.02-.03-.08-.22-.2-.38a1.6 1.6 0 0 0-.42-.43 7.89 7.89 0 0 1-1.7.87.65.65 0 0 0-.03.22c-.02.26-.07.47-.15.7-.1.3-.1.3.2.21zm-4.28-1.39c.1-.17.26-.38.4-.52.07-.07.12-.13.12-.15s-.09-.1-.2-.2c-.48-.36-1.2-1.05-1.64-1.58a15.23 15.23 0 0 1-1.87-2.87l-.04-.05-.17.05c-.1.02-.28.1-.42.16-.21.1-.24.13-.24.17a15.62 15.62 0 0 0 2.13 3.38c.29.36 1 1.08 1.3 1.33.29.25.5.41.54.41l.1-.12zm6.99-.08a13.3 13.3 0 0 0 3.66-4.87c0-.08-.44-.3-.72-.37-.09-.03-.11-.03-.14 0l-.2.36a12.63 12.63 0 0 1-3.5 4.27l.13.17c.17.18.29.33.38.5.05.09.09.13.11.13.02 0 .15-.09.28-.2zm-4.62.1c.07-.25.18-.38.39-.48.35-.15.73-.15 1.07 0 .22.1.34.24.38.43.01.06.03.07.07.07a4.8 4.8 0 0 0 1.37-.7c0-.03-.06-.1-.13-.15-.2-.16-.57-.56-.73-.76-.16-.22-.3-.44-.39-.66-.04-.09-.08-.17-.1-.17s-.13.05-.24.12c-.26.15-.7.36-.76.36-.06 0-.57-.25-.78-.37a.56.56 0 0 0-.19-.09c-.02 0-.06.06-.1.16-.09.2-.22.41-.4.66-.16.22-.55.62-.74.77-.11.09-.14.13-.12.16s.44.28.71.41c.47.23.67.3.69.23zm-1.35-.87c.48-.4.89-.9 1.1-1.35.13-.27.13-.27-.15-.48-.92-.67-1.96-1.9-2.77-3.25-.1-.17-.15-.24-.18-.24a.38.38 0 0 0-.14.09 4.15 4.15 0 0 1-1.8.82 12.1 12.1 0 0 0 3.13 4.08c.28.23.6.46.63.46l.18-.13zm4.99-.03c1.24-.89 2.4-2.27 3.37-4.04.16-.3.17-.35.08-.37a6.32 6.32 0 0 1-.87-.28 3.32 3.32 0 0 1-.8-.45c-.1-.08-.2-.15-.22-.15s-.1.12-.19.27c-.38.63-.86 1.3-1.3 1.83-.42.5-1.04 1.1-1.5 1.45-.16.11-.17.12-.15.19a3.72 3.72 0 0 0 1.35 1.7c.02 0 .12-.07.23-.15zm-4.12-3.96l.65-4.17.64-4.16.81 4.1.82 4.18.02.07h.2c.12 0 .19-.01.2-.03.02-.02.63-2.74 1.36-6.06.89-4.03 1.35-6.06 1.37-6.09.07-.1.14-.13.3-.15l.17-.01v-.74h-2.1v.74l.16-.01c.29-.01.41.09.42.34 0 .12-1.58 7-1.6 6.97l-.96-4.51c-.7-3.34-.95-4.51-.98-4.54-.06-.06-.34-.05-.37.01l-.7 4.47-.7 4.44-.8-3.38c-.83-3.57-.81-3.5-.73-3.66.06-.11.14-.15.3-.15.1 0 .14-.01.15-.04.03-.04.03-.6 0-.65-.02-.04-.05-.04-1.16-.04-.95 0-1.15 0-1.17.03-.02.02-.02.13-.02.35v.32l.14.05c.17.06.23.1.27.19.02.04.67 2.77 1.44 6.08l1.42 6.04c.02.03.43.04.45.01zm8.98-.54a25.26 25.26 0 0 0 2.23-10.45c0-1.3-.02-1.77-.09-1.81-.06-.05-.45.02-.7.1l-.14.05.01.42a24.1 24.1 0 0 1-2.17 11.25c-.11.24-.15.34-.13.36.01.02.09.06.17.08.17.05.44.18.54.25.12.08.14.06.28-.25zm-14.71.13l.4-.16c.11-.03.15-.05.15-.08a21.8 21.8 0 0 1-1.35-3.58 25.5 25.5 0 0 1-.94-7.96c.02-.3.02-.42 0-.44-.07-.09-.8-.23-.85-.17a24.79 24.79 0 0 0 .25 5.94c.33 1.99.88 3.93 1.63 5.69.22.54.4.88.43.88l.28-.11zm1.12-.17c.47-.12.95-.32 1.26-.52.22-.14.43-.31.43-.36l-.12-.25c-.06-.12-.23-.41-.35-.66-.13-.25-.24-.45-.26-.45s-.05.05-.1.1a.72.72 0 0 1-.33.3c-.32.15-.57.12-.77-.09a.47.47 0 0 1-.15-.34c0-.27.24-.52.46-.48.11.02.24.14.23.2-.01.08-.07.09-.15.02-.05-.04-.09-.05-.13-.04-.18.04-.25.3-.12.47.21.28.74.1.85-.29.08-.28-.06-.57-.34-.72-.11-.06-.14-.07-.35-.07-.2 0-.23 0-.35.07-.16.08-.36.27-.43.41-.21.41-.18 1.09.08 1.9.13.37.28.75.34.83.03.04.07.03.3-.03zm12.43-.15c.12-.26.31-.84.38-1.16.1-.44.11-.88.04-1.17a.98.98 0 0 0-.51-.63.64.64 0 0 0-.34-.08c-.17 0-.2 0-.3.05a.83.83 0 0 0-.36.31c-.05.1-.06.13-.06.28 0 .19.02.25.15.39.08.1.3.2.41.2.05 0 .13-.02.18-.04.23-.12.26-.46.04-.56-.05-.03-.07-.03-.13 0l-.08.06c0 .01-.02.02-.05.02-.07-.01-.07-.11 0-.18.13-.13.34-.12.49.03.15.16.18.36.1.55a.55.55 0 0 1-.6.32.92.92 0 0 1-.62-.39c-.03-.05-.07-.09-.09-.09s-.1.15-.2.35a22.22 22.22 0 0 1-.52 1.01c0 .1.38.36.77.55.27.13.52.23.85.32.35.1.33.1.45-.14zM3 22.2c0-.28.05-.5.16-.73.16-.35.45-.55.84-.6.16-.03.22-.02.51.05.04.01.05 0 .05-.02l-.14-.46a17.2 17.2 0 0 1-.85-4.81l-.02-.47-.07-.1a.79.79 0 0 0-.36-.32 1.06 1.06 0 0 0-.56-.1c-.47.03-.84.26-1.04.67-.1.2-.1.25-.04.82.21 2.1.64 4.04 1.32 5.93.16.43.2.46.2.13zm-.42-1.95l-.06-.18.04-.1a.67.67 0 0 1 .33-.32c.2-.1.36-.13.58-.12.25.02.27.03.36.26l.08.21-.1-.07c-.1-.12-.2-.14-.46-.12a.86.86 0 0 0-.49.17c-.15.11-.2.18-.2.33l-.02.13-.06-.19zm-.33-1.37a.75.75 0 0 1-.02-.23c.04-.14.27-.34.48-.4.05-.02.2-.03.33-.03.2 0 .27 0 .34.04.08.04.09.06.15.24l.07.22c0 .02-.04-.01-.1-.08-.08-.1-.1-.11-.22-.13-.2-.05-.47-.02-.63.06-.23.11-.32.22-.32.37 0 .06 0 .1-.02.1s-.04-.07-.06-.16zM2 17.68l-.03-.22-.02-.15.14-.13c.1-.1.18-.15.28-.19.26-.1.79-.06.88.05.03.03.12.43.1.44l-.07-.09c-.09-.13-.17-.16-.43-.18a.88.88 0 0 0-.57.13c-.14.1-.2.17-.23.3l-.04.11-.02-.07zm-.15-1.3l-.03-.22-.01-.13.1-.11c.19-.22.5-.31.84-.27.2.03.34.08.39.13.04.04.13.46.1.46l-.08-.1c-.1-.16-.2-.2-.55-.2-.26 0-.28 0-.41.07-.15.07-.28.19-.28.25l-.03.12-.03.08-.01-.08zm15.42 5.9a25.94 25.94 0 0 0 1.43-6.4c.03-.35.03-.4-.07-.61-.23-.46-.82-.72-1.36-.61a.92.92 0 0 0-.6.43c-.06.1-.07.14-.07.33a17.68 17.68 0 0 1-.93 5.23c-.08.22-.08.29-.01.27l.19-.05c.3-.07.7.05.95.3.23.23.34.53.36.95.02.3.04.33.12.16zm.24-1.98v-.13l-.12-.13a.8.8 0 0 0-.56-.23c-.28-.02-.36 0-.47.12a.4.4 0 0 1-.1.08s.13-.36.17-.4c.1-.12.6-.1.85.02.13.07.28.22.33.33l.05.1-.05.18c-.08.22-.1.23-.1.06zm.34-1.3a.65.65 0 0 1-.01-.12c0-.08-.08-.17-.21-.26a1.06 1.06 0 0 0-.75-.11c-.1.02-.13.04-.22.14l-.1.1.04-.13c.09-.3.1-.32.2-.36.2-.08.56-.07.8.03.1.05.27.2.33.3.04.1.04.1 0 .27l-.06.19-.02-.05zm.28-1.34a.65.65 0 0 0-.04-.13.73.73 0 0 0-.3-.24c-.13-.07-.14-.07-.4-.07-.35 0-.43.04-.55.25-.04.07-.03 0 .01-.2.04-.14.07-.22.1-.24.14-.11.6-.13.85-.04.16.06.3.18.37.29.05.09.05.1.03.27-.01.1-.03.18-.04.19s-.02-.03-.03-.08zm.19-1.2l-.06-.16c-.04-.13-.05-.15-.18-.23-.17-.11-.31-.15-.59-.13-.3.02-.4.06-.49.2-.04.06-.07.1-.07.08 0-.07.07-.4.09-.43.03-.04.25-.11.4-.14.2-.03.43 0 .6.09.15.06.3.21.33.3a2 2 0 0 1-.03.41zm-16.7-1.61c.5-.49 1.3-.56 1.79-.16.12.1.15.1.15-.1 0-.22.04-.7.09-1.1.02-.2.04-.36.03-.37l-.26-.04a6.16 6.16 0 0 1-1.82-.5c-.16-.09-.2-.08-.22.02-.02.1-.02 2.27 0 2.34.01.04.03.06.05.06s.1-.07.19-.15zm17.15.01c.02-.16.02-1.98 0-2.18-.01-.15-.02-.15-.07-.15-.03 0-.18.06-.33.12-.48.2-1.03.35-1.6.43l-.29.03v.1l.04.39.07.73c.02.34.03.44.05.44.02 0 .07-.04.12-.08.21-.17.47-.25.76-.25.4 0 .74.13 1.02.4.1.09.18.16.2.16s.02-.07.03-.14zM3.72 12.97l.08-.38A7.5 7.5 0 0 1 5.02 9.6c.2-.26.54-.61.75-.78.08-.06.15-.13.15-.15 0-.02-.1-.1-.29-.21a6.14 6.14 0 0 1-2.28-2.24c-.08 0-.42.53-.71 1.13a12.36 12.36 0 0 0-1.21 5.02c.02.05.31.19.66.31.64.24 1.57.4 1.63.3zm13.12.01a6.29 6.29 0 0 0 1.68-.48l.23-.11-.01-.22c-.13-1.94-.67-3.91-1.45-5.26a3.2 3.2 0 0 0-.47-.69 6.02 6.02 0 0 1-2.25 2.2l-.34.24a6.15 6.15 0 0 1 2.08 3.66l.1.49c.04.23.02.23.42.17zm-15.62-.92l.07-.47a12.4 12.4 0 0 1 1.9-5.73c.03-.1-.59-.61-.74-.61-.08 0-.47.63-.78 1.28-.23.49-.37.83-.56 1.41a16.62 16.62 0 0 0-.75 3.82l-.01.14.25.04c.14.02.32.06.41.09.2.06.19.06.21.03zm18.33-.13l.24-.03.01-.09a15.39 15.39 0 0 0-1-4.58c-.23-.58-.63-1.36-.94-1.83-.08-.11-.12-.15-.16-.15-.12 0-.73.48-.73.59l.1.2c.4.58.81 1.41 1.1 2.22.35 1.05.6 2.22.72 3.45.01.19.04.34.05.35s.1 0 .2-.04l.4-.09zm-5.1-3.53c.88-.54 1.6-1.2 2.02-1.83.07-.12.17-.28.2-.36l.07-.14-.1-.12c-.14-.2-.56-.62-.78-.8a3.69 3.69 0 0 0-2.02-.85c-.3-.03-.55-.01-.76.06-.3.1-.5.27-.65.58-.25.5-.19 1.36.15 1.87.2.32.43.47.7.45.36-.03.6-.5.6-1.17 0-.46-.13-.8-.37-.96-.17-.11-.4-.03-.51.18-.1.17-.12.52-.04.78.05.15.17.29.27.29.05 0 .08-.02.11-.07.04-.06.04-.1.04-.26 0-.15-.02-.2-.06-.25-.06-.09-.05-.15.01-.16.14-.01.24.24.22.54-.03.54-.27.75-.53.47-.22-.24-.33-.75-.26-1.18.06-.35.2-.56.4-.66.14-.08.27-.08.4 0 .51.3.67 1.53.3 2.3-.1.2-.2.33-.34.4-.1.05-.12.05-.65.05-.35 0-.6-.01-.7-.03a2.3 2.3 0 0 1-1.39-.68 1.85 1.85 0 0 1-.32-.65 1.8 1.8 0 0 1-.05-.57 3.16 3.16 0 0 1 .59-1.9c.16-.22.5-.54.7-.67.2-.13.21-.17.06-.24a.46.46 0 0 0-.25-.05.88.88 0 0 0-.53.2c-.3.2-.7.7-.81.99-.06.16-.1.16-.17-.01-.16-.4-.64-.91-1.03-1.1a.8.8 0 0 0-.5-.06c-.09.02-.2.1-.2.13l.2.14c.24.16.58.5.74.75.5.74.69 1.8.45 2.51-.1.28-.17.41-.39.62-.2.2-.37.31-.63.41-.42.17-.82.23-1.44.21-.4 0-.46-.01-.54-.05-.53-.24-.75-1.55-.38-2.31a.95.95 0 0 1 .35-.41c.23-.11.5.02.65.31.29.56.07 1.6-.34 1.68-.06.01-.08 0-.15-.07-.22-.22-.25-.85-.05-1.03.1-.1.17.02.08.14-.04.05-.05.09-.05.24 0 .22.05.32.15.32.1 0 .18-.07.25-.21.05-.1.06-.16.07-.36.01-.38-.07-.58-.26-.68-.13-.06-.23-.06-.33 0-.25.17-.37.49-.37.98 0 .34.05.57.15.78.13.26.28.38.5.38.4 0 .77-.46.9-1.1.06-.25.06-.74 0-.94a1.22 1.22 0 0 0-.6-.81c-.18-.1-.34-.13-.66-.12-.88 0-1.7.34-2.47 1.03-.26.23-.67.7-.67.76 0 .06.13.3.28.53.34.5.84.99 1.49 1.45.3.21.8.52.84.52l.32-.14c.61-.3 1.14-.42 1.79-.4.42.01.6.04 1.27.21.66.17.67.17 1.3 0l.7-.15c.3-.06.85-.08 1.13-.04.45.05.99.22 1.38.44.1.05.19.09.2.08l.32-.18zM8.03 7.17a1.8 1.8 0 0 0 1.2-.58c.22-.3.3-.56.3-1C9.55 4.51 8.93 3.5 8 3.05a3.33 3.33 0 0 0-1.65-.26 4.9 4.9 0 0 0-3.3 1.67c-.25.28-.51.61-.51.66 0 .02.06.07.16.14.1.06.25.19.36.28s.2.18.22.18c.02 0 .07-.05.12-.11a4.41 4.41 0 0 1 2.5-1.64c.31-.06.84-.08 1.05-.03.43.1.76.36.96.78.24.49.27 1.07.09 1.66-.07.2-.18.43-.29.58-.08.12-.09.18-.03.21.05.03.12.03.36 0zm4.44.01c.08-.02.08-.08-.02-.22-.56-.83-.52-2.03.09-2.64.17-.17.33-.27.58-.36.17-.06.81-.06 1.1 0 .57.11 1.13.37 1.63.75a6.69 6.69 0 0 1 1.03 1.01c.02 0 .1-.07.2-.16.15-.13.33-.27.53-.39.06-.03.03-.08-.2-.37a5.33 5.33 0 0 0-2.65-1.85 4.38 4.38 0 0 0-1.98-.1 2.7 2.7 0 0 0-2.15 2.73c0 .35 0 .38.06.55.03.1.08.22.12.28.15.26.45.5.77.63.28.1.74.18.89.14zm-2.25-3.71c.42-.73 1-1.12 1.52-1.04.18.03.39.12.5.22l.09.08.13-.04.38-.08a.95.95 0 0 0 .28-.08c.05-.05-.07-.25-.27-.45-.15-.15-.21-.2-.4-.29a1.63 1.63 0 0 0-.72-.19c-.37-.02-.68.06-.97.25-.26.18-.48.45-.6.75l-.08.14-.06-.1a2.06 2.06 0 0 0-.36-.57c-.2-.2-.44-.35-.71-.42-.21-.06-.67-.06-.9 0s-.5.2-.66.34c-.15.13-.34.38-.36.49-.01.07-.01.07.21.1l.37.09.23.06.1-.08a.98.98 0 0 1 .7-.22c.17.01.37.09.54.18.24.15.55.5.77.87.11.2.15.2.27-.01zm-.04-1.2c.16-.27.38-.48.68-.64.2-.1.2-.13.06-.21-.09-.05-.13-.05-.28-.05-.22 0-.35.05-.48.18l-.08.09-.1-.1a.69.69 0 0 0-.45-.18c-.2 0-.43.1-.4.17 0 .02.1.07.19.12.21.1.47.34.61.56.13.2.17.2.25.06zM9 1.37a.83.83 0 0 1 .95-.2c.13.05.14.05.22.01.34-.15.7-.09.96.17l.11.12.15-.03a.52.52 0 0 0 .16-.04c.05-.05-.18-.5-.37-.72A1.53 1.53 0 0 0 9.4.36c-.32.16-.66.56-.77.9-.04.14-.03.15.1.18.16.03.18.03.27-.07z"/>
</svg>
